<?xml version="1.0" encoding="utf-8"?>
<!-- Generator: Adobe Illustrator 16.0.0, SVG Export Plug-In . SVG Version: 6.00 Build 0)  -->
<!DOCTYPE svg PUBLIC "-//W3C//DTD SVG 1.1//EN" "http://www.w3.org/Graphics/SVG/1.1/DTD/svg11.dtd">
<svg version="1.1" id="Layer_1" xmlns="http://www.w3.org/2000/svg" xmlns:xlink="http://www.w3.org/1999/xlink" x="0px" y="0px"
	 width="140px" height="100px" viewBox="0 0 140 100" enable-background="new 0 0 140 100" xml:space="preserve">
<g>
	<path opacity="0.75" fill="#84704A" enable-background="new    " d="M138.563,65.309c0-0.069,0-0.146,0-0.19
		c0-0.335-0.607-0.652-1.671-0.938l-0.219-0.644c-0.067-0.196-0.209-0.349-0.382-0.435c-0.123-0.059-0.262-0.072-0.401-0.06
		l-0.391-1.149c0.118-0.076,0.22-0.171,0.278-0.291c0.088-0.176,0.104-0.381,0.039-0.578l-0.289-0.844
		c-0.065-0.199-0.207-0.351-0.381-0.436c-0.122-0.061-0.261-0.072-0.4-0.061l-0.392-1.147c0.118-0.076,0.221-0.171,0.282-0.293
		c0.084-0.175,0.104-0.38,0.035-0.577l-0.287-0.846c-0.066-0.195-0.209-0.348-0.382-0.432c-0.123-0.062-0.262-0.074-0.402-0.062
		l-0.391-1.149c0.118-0.075,0.22-0.171,0.28-0.293c0.086-0.174,0.104-0.381,0.037-0.578l-0.287-0.843
		c-0.066-0.198-0.208-0.351-0.383-0.437c-0.121-0.059-0.26-0.071-0.399-0.059l-0.393-1.147c0.119-0.076,0.221-0.172,0.282-0.294
		c0.086-0.174,0.104-0.381,0.036-0.576l-0.286-0.845c-0.066-0.196-0.209-0.349-0.384-0.434c-0.122-0.061-0.261-0.073-0.401-0.061
		l-0.39-1.149c0.118-0.076,0.22-0.171,0.279-0.292c0.086-0.175,0.104-0.38,0.038-0.578l-0.287-0.843
		c-0.068-0.198-0.209-0.35-0.383-0.435c-0.122-0.06-0.262-0.073-0.401-0.061l-0.392-1.147c0.118-0.076,0.221-0.171,0.281-0.292
		c0.086-0.175,0.104-0.381,0.037-0.578l-0.287-0.844c-0.066-0.197-0.207-0.349-0.383-0.434c-0.122-0.061-0.26-0.073-0.399-0.061
		l-0.392-1.149c0.118-0.075,0.22-0.169,0.279-0.292c0.086-0.174,0.104-0.38,0.038-0.577l-0.287-0.844
		c-0.067-0.197-0.209-0.349-0.384-0.436c-0.122-0.06-0.261-0.073-0.4-0.06l-0.392-1.148c0.119-0.076,0.222-0.171,0.28-0.292
		c0.086-0.173,0.105-0.381,0.039-0.577l-0.289-0.844c-0.065-0.197-0.207-0.349-0.381-0.435c-0.123-0.06-0.262-0.072-0.402-0.06
		l-0.391-1.149c0.119-0.075,0.221-0.17,0.28-0.292c0.086-0.174,0.104-0.38,0.038-0.578l-0.288-0.843
		c-0.065-0.198-0.208-0.35-0.383-0.435c-0.122-0.061-0.261-0.073-0.4-0.061l-0.392-1.149c0.119-0.076,0.221-0.17,0.281-0.292
		c0.084-0.174,0.104-0.38,0.037-0.578l-0.287-0.844c-0.067-0.196-0.209-0.348-0.383-0.434c-0.121-0.061-0.26-0.073-0.4-0.061
		l-0.392-1.148c0.118-0.075,0.22-0.17,0.28-0.292c0.086-0.175,0.104-0.381,0.038-0.578l-0.288-0.843
		c-0.066-0.198-0.208-0.35-0.383-0.436c-0.122-0.06-0.261-0.073-0.401-0.06l-0.392-1.149c0.119-0.076,0.221-0.17,0.281-0.292
		c0.086-0.173,0.104-0.38,0.037-0.576l-0.287-0.845c-0.066-0.196-0.209-0.348-0.383-0.434c-0.122-0.061-0.261-0.073-0.4-0.061
		l-0.39-1.149c0.118-0.076,0.22-0.17,0.278-0.292c0.086-0.174,0.105-0.38,0.038-0.578l-0.287-0.844
		c-0.067-0.197-0.208-0.349-0.383-0.435c-0.122-0.06-0.261-0.072-0.4-0.061l-0.341-1.002c3.462-0.276,5.023-1.278,5.202-2.218
		c0.001,0.004,0.003,0.007,0.004,0.011c0.003-0.014-0.001-0.028,0.002-0.042c0.012-0.079,0.015-0.156,0.009-0.233
		c-0.002-0.023-0.004-0.047-0.008-0.07c-0.013-0.082-0.037-0.162-0.071-0.24c-0.007-0.016-0.011-0.031-0.018-0.046
		c-0.021-0.043-0.049-0.085-0.077-0.127c0.617-0.987-0.365-2.027-2.367-2.208c-3.461-0.314-4.307,1.257-7.381,0.584
		c-3.076-0.674-20.451-5.744-28.14-7.448c-4.061-0.9-9.035-1.311-12.833-1.5V4.049c0.008-0.013,0.028-0.022,0.031-0.035
		l-0.031-0.005V4.008c0,0-0.001,0-0.001,0.001v0c0,0,0.001-0.001,0.001-0.001c0-0.309-2.146-0.562-4.774-0.562
		c-2.631,0-4.774,0.253-4.774,0.562c0,0,0.001,0.001,0.001,0.001l-0.001,0l0,0v0l-0.033,0.006c0.004,0.017,0.023,0.029,0.033,0.044
		l0.003,0.794c-3.798,0.189-8.773,0.6-12.834,1.5c-7.688,1.704-25.064,6.774-28.139,7.448c-3.076,0.673-3.921-0.898-7.381-0.584
		c-2.002,0.182-2.985,1.222-2.368,2.208c-0.026,0.04-0.053,0.08-0.074,0.121c-0.012,0.023-0.018,0.048-0.028,0.072
		c-0.029,0.07-0.051,0.14-0.063,0.212c-0.005,0.03-0.007,0.061-0.009,0.091c-0.005,0.069-0.002,0.139,0.008,0.209
		c0.002,0.019-0.001,0.036,0.002,0.054c0.001-0.005,0.004-0.009,0.005-0.014c0.158,0.844,1.427,1.739,4.191,2.115l-0.378,1.108
		c-0.14-0.012-0.279,0-0.402,0.06c-0.173,0.086-0.315,0.238-0.382,0.435l-0.288,0.844c-0.067,0.198-0.047,0.404,0.038,0.578
		c0.06,0.122,0.162,0.216,0.28,0.292l-0.391,1.148c-0.14-0.012-0.278,0.001-0.401,0.061c-0.175,0.086-0.316,0.238-0.383,0.434
		l-0.288,0.845c-0.066,0.196-0.046,0.403,0.039,0.576c0.06,0.122,0.162,0.217,0.28,0.293l-0.391,1.149
		c-0.14-0.013-0.279,0-0.401,0.06c-0.173,0.086-0.315,0.238-0.382,0.436l-0.288,0.843c-0.066,0.197-0.047,0.403,0.038,0.578
		c0.061,0.123,0.162,0.217,0.281,0.292l-0.391,1.148c-0.14-0.012-0.279,0-0.401,0.061c-0.173,0.086-0.315,0.238-0.382,0.434
		l-0.288,0.844c-0.067,0.198-0.047,0.404,0.038,0.578c0.06,0.123,0.162,0.217,0.28,0.292l-0.392,1.149
		c-0.14-0.013-0.278,0-0.4,0.061c-0.174,0.085-0.316,0.237-0.383,0.435l-0.287,0.843c-0.067,0.198-0.048,0.404,0.037,0.578
		c0.06,0.123,0.163,0.218,0.282,0.293l-0.392,1.148c-0.141-0.013-0.28,0-0.403,0.06c-0.173,0.086-0.315,0.238-0.382,0.435
		l-0.288,0.844c-0.067,0.196-0.047,0.404,0.038,0.577c0.061,0.122,0.163,0.217,0.282,0.293l-0.392,1.148
		c-0.14-0.013-0.278,0-0.399,0.06c-0.175,0.087-0.316,0.239-0.383,0.436l-0.288,0.844c-0.067,0.197-0.047,0.403,0.038,0.577
		c0.06,0.123,0.162,0.217,0.28,0.292l-0.392,1.149c-0.14-0.012-0.278,0-0.399,0.061c-0.174,0.085-0.316,0.237-0.383,0.434
		l-0.288,0.844c-0.067,0.197-0.047,0.403,0.038,0.578c0.06,0.122,0.162,0.217,0.281,0.292l-0.391,1.147
		c-0.141-0.012-0.28,0.001-0.401,0.061c-0.173,0.085-0.315,0.237-0.382,0.435L8.16,47.592c-0.067,0.198-0.047,0.403,0.038,0.578
		c0.061,0.122,0.162,0.216,0.28,0.292l-0.39,1.149c-0.141-0.013-0.28,0-0.402,0.06c-0.173,0.085-0.315,0.238-0.382,0.434
		L7.016,50.95c-0.067,0.196-0.047,0.403,0.038,0.575c0.06,0.123,0.162,0.219,0.28,0.295l-0.391,1.148
		c-0.14-0.013-0.279-0.001-0.401,0.059c-0.175,0.086-0.316,0.238-0.383,0.437l-0.287,0.843c-0.067,0.197-0.047,0.404,0.038,0.578
		c0.06,0.122,0.161,0.217,0.279,0.293l-0.391,1.148c-0.141-0.013-0.279,0-0.401,0.061c-0.174,0.086-0.315,0.237-0.382,0.434
		l-0.288,0.845c-0.067,0.196-0.048,0.403,0.038,0.577c0.061,0.122,0.163,0.217,0.281,0.293l-0.391,1.148
		c-0.14-0.013-0.279,0-0.401,0.061C4.08,59.829,3.938,59.98,3.871,60.18l-0.288,0.844c-0.067,0.197-0.047,0.402,0.038,0.578
		c0.061,0.121,0.163,0.216,0.281,0.291l-0.391,1.149c-0.14-0.013-0.279,0-0.402,0.06c-0.173,0.086-0.316,0.238-0.383,0.435
		L2.507,64.18c-1.063,0.286-1.671,0.604-1.671,0.938c0,0.044,0,0.12,0,0.188c0,0.001,0,0.002,0,0.002c0,1.23-0.302,9.33,18.429,9.33
		s18.429-8.099,18.429-9.33c0-0.069,0-0.146,0-0.19c0-0.317-0.536-0.619-1.495-0.894l-0.185-0.556
		c-0.066-0.196-0.207-0.351-0.381-0.437c-0.122-0.061-0.261-0.074-0.401-0.063l-0.383-1.152c0.119-0.074,0.222-0.168,0.283-0.29
		c0.087-0.172,0.109-0.379,0.043-0.576l-0.282-0.848c-0.066-0.197-0.207-0.351-0.381-0.438c-0.121-0.062-0.26-0.075-0.4-0.064
		l-0.383-1.15c0.12-0.074,0.223-0.168,0.284-0.291c0.087-0.172,0.109-0.379,0.043-0.576l-0.282-0.848
		c-0.066-0.195-0.206-0.35-0.38-0.437c-0.122-0.061-0.261-0.075-0.4-0.063l-0.384-1.152c0.119-0.074,0.222-0.168,0.283-0.29
		c0.087-0.173,0.109-0.38,0.043-0.577l-0.282-0.846c-0.066-0.197-0.206-0.352-0.381-0.438c-0.122-0.062-0.261-0.075-0.402-0.064
		l-0.383-1.15c0.12-0.074,0.224-0.168,0.286-0.291c0.087-0.173,0.108-0.379,0.043-0.577l-0.282-0.847
		c-0.065-0.196-0.206-0.35-0.38-0.437c-0.122-0.061-0.262-0.075-0.402-0.064l-0.384-1.151c0.12-0.075,0.223-0.169,0.284-0.292
		c0.088-0.172,0.109-0.379,0.043-0.576l-0.282-0.847c-0.066-0.197-0.207-0.35-0.381-0.438c-0.123-0.061-0.262-0.074-0.403-0.063
		l-0.383-1.151c0.12-0.074,0.224-0.168,0.284-0.291c0.087-0.173,0.108-0.379,0.043-0.577l-0.282-0.847
		c-0.066-0.196-0.207-0.35-0.38-0.437c-0.124-0.061-0.263-0.075-0.403-0.063l-0.383-1.151c0.12-0.075,0.223-0.169,0.285-0.291
		c0.088-0.173,0.109-0.379,0.043-0.577l-0.281-0.847c-0.066-0.197-0.207-0.351-0.381-0.437c-0.123-0.061-0.262-0.075-0.402-0.064
		l-0.383-1.15c0.12-0.075,0.223-0.169,0.285-0.292c0.087-0.173,0.108-0.379,0.043-0.576l-0.282-0.847
		c-0.065-0.197-0.207-0.351-0.381-0.438c-0.122-0.061-0.261-0.075-0.402-0.063l-0.383-1.151c0.12-0.075,0.223-0.169,0.284-0.291
		c0.086-0.173,0.108-0.379,0.042-0.577l-0.282-0.847c-0.065-0.196-0.207-0.35-0.38-0.437c-0.122-0.062-0.261-0.076-0.402-0.064
		l-0.383-1.152c0.12-0.074,0.223-0.168,0.284-0.291c0.087-0.172,0.108-0.379,0.042-0.576l-0.281-0.847
		c-0.065-0.197-0.207-0.351-0.38-0.438c-0.123-0.061-0.263-0.074-0.404-0.063l-0.382-1.15c0.12-0.075,0.223-0.169,0.284-0.292
		c0.087-0.173,0.109-0.379,0.042-0.577l-0.281-0.846c-0.065-0.198-0.206-0.352-0.38-0.438c-0.123-0.062-0.262-0.075-0.403-0.064
		l-0.383-1.15c0.12-0.075,0.223-0.168,0.284-0.291c0.086-0.174,0.108-0.38,0.042-0.577l-0.281-0.847
		c-0.066-0.196-0.207-0.35-0.38-0.437c-0.123-0.062-0.262-0.076-0.402-0.064l-0.383-1.15c0.119-0.075,0.223-0.169,0.284-0.291
		c0.087-0.173,0.109-0.379,0.043-0.576l-0.282-0.847c-0.065-0.197-0.207-0.351-0.38-0.438c-0.122-0.061-0.261-0.075-0.402-0.063
		l-0.326-0.977c3.919,0.212,10.03-0.453,18.982-2.978c6.203-1.749,17.191-2.68,28.495-2.796v0.007c0,0,0,0,0,0v0.43c0,0,0,0,0,0
		v0.43v0v0.429v0v0.431v0v0.431v0v0.429v0v0.431v0v0.43c0,0,0,0,0,0v0.429c0,0,0,0,0,0v0.431v0v0.429v0l0,0.431c0,0,0,0,0,0l0,0.997
		l0.002,51.872c0-0.001-0.002-0.002-0.003-0.003v0.182l0,0v0.183l0,0v0.183l0,0v0.174c0,0.004,0,0.003,0,0.008l0,0v0.184l0,0v0.182
		l0,0v0.184l0,0v0.182l0,0v0.182l0,0v0.184l0,0v0.184l0,0v0.182l0,0v0.183l0,0v0.183l0,0v0.183l0,0v0.012
		c-12.742,0.128-22.804,1.393-22.804,2.927l0.03,2.521l-0.199,0.032c0.008,0.036,0.036,0.067,0.049,0.102c0,0.358,0,1.923,0,2.942
		c0,0.09-0.02,0.185-0.047,0.28H44.84c0,0.001,0.001,0.001,0.001,0.002c-0.334,1.138-2.512,2.668-3.728,4.092
		c-0.058,0.067-0.1,0.127-0.152,0.192l-0.054,0.009c0.003,0.013,0.015,0.023,0.018,0.037c-1.116,1.396-1.138,2.228-1.138,2.228
		v0.105l-0.117,0.019c0.019,0.086,0.072,0.163,0.117,0.242v0.18l-0.101,0.017c-0.018-0.041-0.053-0.079-0.063-0.122l0,0.04l0-0.001
		l0,0.042l0-0.001l0,0.04l0-0.001l0,0.042l0-0.001l0,0.04l0-0.001l0,0.04l0-0.001l0,0.042l0-0.001l0,0.04l0-0.001l0.001,0.041
		c0,0-0.001,0-0.001-0.001l0.001,0.042c0-0.001-0.001-0.001-0.001-0.002l0.001,0.041c0-0.001-0.001-0.001-0.001-0.002l0.001,0.042
		c0-0.001-0.001-0.001-0.001-0.002l0.001,0.042c0-0.001-0.001-0.001-0.001-0.002l0.001,0.041c0-0.001-0.001-0.001-0.001-0.002
		l0.001,0.042c0-0.001-0.001-0.001-0.001-0.002l0.001,0.042c0,0-0.001-0.001-0.001-0.002l0.011,0.363l0,0.026l0.002,0.125
		l0.008,0.694c-1.501,0.445-2.337,0.931-2.337,1.439c0,2.145,14.71,3.893,32.749,3.893c18.037,0,32.75-1.748,32.75-3.893
		c0-0.52-0.869-1.016-2.434-1.469v-0.086v-1.094v-0.04v-0.039v-0.039v-0.04V89.63v-0.041v-0.04V89.51v-0.039v-0.08V89.35v-0.037
		V89.27V89.23c-0.033,0.156-0.129,0.302-0.268,0.438v-0.05c0.053-0.085,0.094-0.172,0.113-0.263l-0.113-0.02v-0.159
		c0.053-0.085,0.094-0.172,0.113-0.263l-0.113-0.018v-0.105c0,0-0.021-0.831-1.135-2.225c0.004-0.014,0.013-0.027,0.016-0.041
		l-0.056-0.009c-0.052-0.065-0.094-0.124-0.151-0.191c-1.216-1.423-3.395-2.954-3.729-4.093c0,0,0.001-0.001,0.001-0.002H95.05
		c-0.027-0.096-0.047-0.189-0.047-0.279c0-1,0-2.521,0-2.918c0.019-0.042,0.039-0.083,0.049-0.127l-0.17-0.027v-2.45
		c0.052-0.086,0.094-0.175,0.112-0.269L94.8,76.125c-0.927-1.408-10.321-2.542-22.165-2.692v-0.017v-0.184V73.05v-0.184v-0.181
		v-0.184v-0.184v-0.18v-0.184v-0.184V71.59v-0.182v-0.184V71.04v-0.181v-0.182V23.343v-0.158v-0.157V22.87v-0.158v-0.157v-0.157
		v-0.157v-0.158v-0.158v-0.157v-0.157v-0.157v-0.158v-0.159v-0.156v-0.158v-3.011v-0.43v-0.429v-0.43v-0.43v-0.429v-0.429v-0.429
		v-0.43v-0.43v-0.429v-0.428v-0.43v-0.008c11.306,0.116,22.294,1.048,28.496,2.796c8.183,2.308,13.989,3.061,17.922,3.012
		l-0.313,0.943c-0.14-0.011-0.279,0.003-0.401,0.063c-0.175,0.087-0.316,0.241-0.381,0.438l-0.281,0.847
		c-0.066,0.197-0.045,0.403,0.042,0.576c0.062,0.122,0.165,0.216,0.285,0.291l-0.385,1.15c-0.141-0.011-0.279,0.003-0.402,0.064
		c-0.173,0.087-0.313,0.241-0.38,0.437l-0.281,0.847c-0.064,0.197-0.045,0.403,0.043,0.577c0.061,0.122,0.163,0.215,0.283,0.29
		l-0.383,1.151c-0.141-0.011-0.28,0.003-0.402,0.064c-0.174,0.086-0.314,0.24-0.38,0.438l-0.282,0.846
		c-0.064,0.198-0.043,0.404,0.043,0.577c0.062,0.122,0.165,0.217,0.284,0.292l-0.384,1.15c-0.141-0.011-0.28,0.002-0.402,0.063
		c-0.174,0.087-0.314,0.241-0.379,0.438l-0.283,0.847c-0.064,0.197-0.043,0.404,0.043,0.576c0.062,0.123,0.166,0.217,0.285,0.292
		l-0.385,1.152c-0.141-0.012-0.279,0.002-0.4,0.064c-0.174,0.087-0.315,0.241-0.381,0.437l-0.283,0.847
		c-0.064,0.198-0.043,0.404,0.045,0.577c0.061,0.121,0.163,0.216,0.282,0.29l-0.384,1.151c-0.141-0.011-0.278,0.002-0.4,0.063
		c-0.174,0.087-0.315,0.241-0.381,0.438l-0.281,0.847c-0.066,0.197-0.045,0.403,0.042,0.576c0.062,0.122,0.164,0.216,0.283,0.291
		l-0.384,1.151c-0.141-0.011-0.279,0.003-0.4,0.064c-0.176,0.086-0.316,0.24-0.381,0.437l-0.281,0.847
		c-0.067,0.198-0.045,0.404,0.043,0.577c0.061,0.122,0.163,0.216,0.282,0.291l-0.384,1.151c-0.14-0.011-0.279,0.003-0.402,0.064
		c-0.174,0.087-0.314,0.241-0.381,0.437l-0.281,0.847c-0.064,0.198-0.044,0.404,0.044,0.577c0.061,0.122,0.164,0.216,0.284,0.291
		l-0.384,1.152c-0.141-0.012-0.28,0.002-0.401,0.063c-0.174,0.088-0.314,0.241-0.381,0.438l-0.281,0.847
		c-0.066,0.197-0.044,0.404,0.043,0.576c0.061,0.123,0.164,0.217,0.284,0.292l-0.385,1.151c-0.141-0.011-0.279,0.003-0.401,0.064
		c-0.174,0.087-0.314,0.241-0.381,0.437l-0.281,0.847c-0.064,0.198-0.045,0.404,0.043,0.577c0.061,0.122,0.164,0.217,0.284,0.291
		l-0.384,1.15c-0.141-0.011-0.28,0.003-0.402,0.064c-0.173,0.086-0.314,0.24-0.38,0.438l-0.282,0.846
		c-0.064,0.197-0.044,0.404,0.043,0.577c0.062,0.122,0.165,0.216,0.284,0.291l-0.383,1.151c-0.141-0.012-0.279,0.002-0.401,0.063
		c-0.175,0.087-0.316,0.241-0.381,0.437l-0.281,0.848c-0.065,0.197-0.046,0.404,0.043,0.576c0.061,0.123,0.163,0.217,0.282,0.291
		l-0.384,1.15c-0.14-0.011-0.279,0.003-0.402,0.064c-0.173,0.087-0.313,0.24-0.379,0.438l-0.283,0.848
		c-0.064,0.197-0.043,0.404,0.045,0.576c0.061,0.122,0.163,0.216,0.283,0.29l-0.383,1.152c-0.142-0.012-0.281,0.003-0.402,0.063
		c-0.175,0.086-0.315,0.24-0.381,0.437l-0.185,0.556c-0.96,0.274-1.496,0.576-1.496,0.894c0,0.044,0,0.12,0.001,0.188
		c0,0.001-0.001,0.002-0.001,0.002c0,1.231-0.302,9.33,18.429,9.33C138.866,74.639,138.563,66.539,138.563,65.309z M47.409,77.608
		c0.084,0.023,0.162,0.043,0.241,0.064c-0.557-0.124-1.349-0.326-1.925-0.623C46.129,77.244,46.695,77.431,47.409,77.608z
		 M20.867,19.856c0.074,0.038,0.133,0.103,0.162,0.186l0.281,0.846c0.028,0.084,0.019,0.171-0.018,0.244
		c-0.017,0.032-0.055,0.045-0.081,0.07c-0.056-0.051-0.121-0.082-0.187-0.06l-0.152,0.05c-0.078,0.026-0.111,0.111-0.115,0.204
		c-0.041,0.005-0.079,0.004-0.117-0.006c0.033-0.034,0.071-0.063,0.098-0.104c0.098-0.147,0.147-0.333,0.124-0.522l-0.1-0.805
		c0-0.003-0.002-0.005-0.003-0.009c0.016-0.03,0.014-0.063,0.016-0.101C20.806,19.854,20.839,19.842,20.867,19.856z M21.988,23.223
		c0.074,0.038,0.133,0.102,0.161,0.184l0.282,0.848c0.027,0.083,0.019,0.171-0.018,0.243c-0.017,0.032-0.055,0.045-0.081,0.07
		c-0.056-0.051-0.121-0.083-0.187-0.061l-0.152,0.051c-0.075,0.025-0.108,0.104-0.115,0.191c-0.064,0.008-0.129,0.015-0.185-0.014
		c-0.074-0.036-0.134-0.101-0.162-0.185l-0.282-0.847c-0.028-0.083-0.019-0.17,0.018-0.244c0.026-0.051,0.08-0.08,0.129-0.111
		c0.057,0.09,0.145,0.148,0.232,0.119l0.152-0.049c0.078-0.025,0.111-0.11,0.115-0.203C21.927,23.222,21.96,23.209,21.988,23.223z
		 M23.108,26.59c0.074,0.036,0.134,0.101,0.161,0.184l0.282,0.847c0.028,0.084,0.019,0.17-0.018,0.244
		c-0.016,0.032-0.055,0.044-0.081,0.069c-0.056-0.05-0.121-0.082-0.187-0.059l-0.153,0.05c-0.075,0.025-0.108,0.104-0.115,0.192
		c-0.064,0.008-0.129,0.015-0.185-0.014c-0.074-0.038-0.133-0.102-0.162-0.185l-0.281-0.847c-0.028-0.084-0.019-0.172,0.018-0.244
		c0.026-0.051,0.08-0.08,0.129-0.112c0.057,0.09,0.146,0.149,0.233,0.12l0.152-0.051c0.078-0.025,0.111-0.109,0.115-0.201
		C23.047,26.588,23.081,26.576,23.108,26.59z M21.997,26.631c-0.086,0.175-0.109,0.38-0.043,0.577l0.282,0.847
		c0.065,0.197,0.207,0.35,0.38,0.437c0.147,0.074,0.317,0.087,0.487,0.054l0.373,1.119c-0.155,0.074-0.284,0.187-0.357,0.333
		c-0.088,0.173-0.109,0.38-0.043,0.577l0.282,0.847c0.066,0.197,0.207,0.35,0.38,0.437c0.147,0.074,0.318,0.087,0.488,0.054
		l0.373,1.12c-0.156,0.074-0.286,0.187-0.358,0.334c-0.087,0.173-0.108,0.38-0.042,0.576l0.281,0.847
		c0.066,0.198,0.207,0.351,0.381,0.438c0.147,0.073,0.318,0.086,0.487,0.053l0.372,1.118c-0.156,0.075-0.285,0.188-0.358,0.333
		c-0.087,0.175-0.109,0.381-0.043,0.579l0.282,0.845c0.065,0.198,0.207,0.351,0.38,0.438c0.148,0.073,0.318,0.086,0.487,0.054
		l0.373,1.118c-0.156,0.075-0.285,0.187-0.358,0.333c-0.087,0.173-0.109,0.38-0.043,0.577l0.281,0.847
		c0.066,0.197,0.208,0.35,0.381,0.437c0.147,0.073,0.318,0.087,0.487,0.054l0.372,1.119c-0.155,0.073-0.285,0.186-0.358,0.333
		c-0.087,0.173-0.108,0.38-0.042,0.577l0.281,0.847c0.066,0.197,0.208,0.35,0.381,0.437c0.147,0.073,0.318,0.086,0.486,0.053
		l0.373,1.119c-0.155,0.074-0.285,0.187-0.358,0.333c-0.086,0.173-0.107,0.379-0.042,0.576l0.282,0.846
		c0.066,0.198,0.207,0.351,0.381,0.438c0.146,0.073,0.316,0.086,0.485,0.053l0.373,1.121c-0.156,0.075-0.284,0.187-0.358,0.332
		c-0.086,0.175-0.109,0.38-0.042,0.58l0.282,0.845c0.065,0.196,0.207,0.351,0.379,0.437c0.148,0.074,0.318,0.087,0.487,0.055
		l0.373,1.119c-0.155,0.074-0.284,0.187-0.357,0.332c-0.088,0.174-0.109,0.381-0.043,0.576l0.282,0.848
		c0.066,0.197,0.207,0.351,0.38,0.438c0.148,0.074,0.318,0.087,0.488,0.054l0.373,1.119c-0.156,0.073-0.285,0.186-0.358,0.333
		c-0.087,0.174-0.108,0.381-0.043,0.576l0.282,0.848c0.066,0.197,0.206,0.351,0.38,0.438c0.146,0.072,0.317,0.086,0.486,0.053
		l0.373,1.119c-0.156,0.074-0.285,0.187-0.358,0.333c-0.087,0.175-0.109,0.38-0.043,0.577l0.283,0.846
		c0.065,0.198,0.206,0.352,0.38,0.438c0.147,0.074,0.317,0.087,0.487,0.054l0.373,1.119c-0.156,0.075-0.285,0.188-0.358,0.333
		c-0.022,0.045-0.027,0.097-0.041,0.146c-2.076-0.359-4.979-0.64-8.373-0.802c0.002-0.004,0.007-0.006,0.009-0.01
		c0.098-0.148,0.147-0.334,0.124-0.521l-0.101-0.807c-0.023-0.189-0.115-0.345-0.243-0.443c-0.09-0.07-0.202-0.099-0.318-0.104
		l-0.137-1.1c0.109-0.054,0.208-0.128,0.277-0.233c0.098-0.146,0.146-0.334,0.123-0.521l-0.101-0.807
		c-0.023-0.189-0.115-0.345-0.243-0.443c-0.091-0.07-0.202-0.099-0.318-0.104l-0.137-1.1c0.108-0.054,0.207-0.128,0.275-0.232
		c0.098-0.147,0.147-0.335,0.124-0.522l-0.1-0.807c-0.023-0.188-0.115-0.344-0.243-0.443c-0.091-0.07-0.202-0.099-0.318-0.104
		l-0.137-1.1c0.108-0.054,0.207-0.128,0.276-0.231c0.098-0.148,0.147-0.335,0.124-0.523l-0.1-0.807
		c-0.023-0.188-0.115-0.344-0.243-0.443c-0.091-0.069-0.203-0.098-0.319-0.104l-0.136-1.1c0.108-0.054,0.207-0.128,0.275-0.232
		c0.098-0.149,0.146-0.335,0.123-0.523l-0.1-0.806c-0.023-0.188-0.115-0.345-0.244-0.443c-0.089-0.07-0.2-0.099-0.316-0.104
		l-0.136-1.099c0.109-0.055,0.208-0.129,0.277-0.233c0.098-0.147,0.147-0.335,0.124-0.522l-0.1-0.807
		c-0.023-0.188-0.115-0.345-0.244-0.443c-0.09-0.069-0.202-0.098-0.317-0.104l-0.137-1.1c0.108-0.054,0.207-0.128,0.275-0.232
		c0.098-0.148,0.147-0.334,0.124-0.522l-0.101-0.807c-0.023-0.188-0.114-0.345-0.243-0.444c-0.091-0.07-0.203-0.098-0.32-0.104
		l-0.136-1.1c0.108-0.055,0.207-0.128,0.274-0.231c0.098-0.149,0.147-0.335,0.124-0.523l-0.101-0.807
		c-0.023-0.188-0.115-0.344-0.243-0.443c-0.089-0.07-0.201-0.099-0.317-0.104l-0.136-1.099c0.109-0.054,0.208-0.127,0.276-0.232
		c0.098-0.149,0.147-0.335,0.124-0.523L22.757,36c-0.023-0.188-0.115-0.344-0.243-0.443c-0.092-0.07-0.204-0.098-0.32-0.104
		l-0.136-1.098c0.109-0.055,0.208-0.129,0.277-0.234c0.097-0.148,0.146-0.334,0.123-0.521l-0.1-0.808
		c-0.023-0.188-0.115-0.345-0.243-0.444c-0.092-0.069-0.204-0.098-0.32-0.104l-0.136-1.099c0.108-0.055,0.207-0.129,0.275-0.232
		c0.098-0.148,0.147-0.335,0.124-0.523l-0.1-0.806c-0.023-0.188-0.114-0.344-0.244-0.444c-0.089-0.069-0.2-0.098-0.316-0.104
		l-0.137-1.1c0.108-0.054,0.207-0.128,0.275-0.232c0.097-0.148,0.146-0.334,0.123-0.522l-0.1-0.807
		c-0.023-0.188-0.115-0.344-0.244-0.443c-0.089-0.07-0.201-0.099-0.317-0.105l-0.136-1.099c0.082-0.04,0.152-0.095,0.212-0.165
		l0.042,0.125c0.065,0.199,0.206,0.352,0.38,0.438c0.146,0.073,0.317,0.086,0.486,0.054l0.373,1.119
		C22.199,26.373,22.07,26.485,21.997,26.631z M24.23,29.956c0.073,0.036,0.133,0.102,0.161,0.185l0.282,0.846
		c0.028,0.084,0.019,0.171-0.019,0.244c-0.016,0.032-0.054,0.044-0.08,0.07c-0.056-0.05-0.121-0.081-0.188-0.059l-0.151,0.05
		c-0.075,0.025-0.108,0.104-0.115,0.191c-0.064,0.008-0.13,0.015-0.186-0.013c-0.074-0.037-0.134-0.103-0.162-0.187l-0.281-0.845
		c-0.029-0.084-0.019-0.172,0.018-0.245c0.026-0.05,0.079-0.08,0.129-0.111c0.057,0.09,0.145,0.149,0.232,0.12l0.152-0.05
		c0.078-0.025,0.111-0.109,0.115-0.202C24.168,29.955,24.202,29.941,24.23,29.956z M25.35,33.322
		c0.073,0.037,0.133,0.103,0.161,0.185l0.282,0.847c0.027,0.084,0.019,0.171-0.019,0.244c-0.016,0.031-0.054,0.044-0.08,0.069
		c-0.056-0.051-0.121-0.082-0.188-0.06l-0.151,0.05c-0.075,0.024-0.108,0.104-0.115,0.191c-0.064,0.008-0.13,0.014-0.187-0.015
		c-0.073-0.035-0.133-0.101-0.161-0.185l-0.282-0.846c-0.028-0.083-0.019-0.171,0.018-0.245c0.026-0.051,0.08-0.08,0.13-0.111
		c0.057,0.09,0.145,0.149,0.233,0.12l0.152-0.05c0.078-0.026,0.111-0.11,0.114-0.203C25.289,33.321,25.322,33.308,25.35,33.322z
		 M26.471,36.69c0.073,0.036,0.134,0.101,0.161,0.184l0.283,0.847c0.027,0.084,0.018,0.171-0.019,0.244
		c-0.016,0.032-0.055,0.045-0.081,0.07c-0.056-0.051-0.122-0.083-0.188-0.06l-0.152,0.05c-0.074,0.025-0.107,0.104-0.114,0.193
		c-0.064,0.007-0.129,0.014-0.186-0.015c-0.073-0.037-0.132-0.102-0.161-0.185l-0.281-0.847c-0.028-0.083-0.019-0.171,0.018-0.244
		c0.025-0.051,0.079-0.08,0.128-0.112c0.057,0.089,0.145,0.148,0.232,0.119l0.151-0.05c0.079-0.025,0.111-0.109,0.115-0.201
		C26.41,36.688,26.443,36.675,26.471,36.69z M27.592,40.056c0.074,0.038,0.133,0.102,0.161,0.185l0.282,0.847
		c0.027,0.084,0.018,0.17-0.019,0.243c-0.016,0.032-0.055,0.044-0.081,0.07c-0.056-0.05-0.121-0.081-0.187-0.059l-0.153,0.05
		c-0.075,0.025-0.108,0.104-0.115,0.191c-0.064,0.008-0.129,0.015-0.187-0.014c-0.073-0.037-0.133-0.102-0.161-0.186l-0.282-0.846
		c-0.028-0.084-0.019-0.172,0.019-0.244c0.026-0.051,0.08-0.081,0.129-0.112c0.057,0.09,0.146,0.149,0.233,0.121l0.151-0.051
		c0.079-0.026,0.112-0.11,0.115-0.202C27.531,40.055,27.564,40.042,27.592,40.056z M28.713,43.422
		c0.073,0.037,0.133,0.102,0.161,0.186l0.281,0.846c0.028,0.084,0.019,0.171-0.018,0.244c-0.016,0.032-0.055,0.044-0.081,0.07
		c-0.056-0.051-0.121-0.082-0.188-0.06l-0.152,0.051c-0.075,0.024-0.107,0.104-0.114,0.191c-0.064,0.008-0.13,0.015-0.186-0.014
		c-0.074-0.036-0.134-0.102-0.161-0.186l-0.282-0.845c-0.028-0.084-0.019-0.172,0.018-0.246c0.025-0.05,0.079-0.079,0.128-0.111
		c0.057,0.09,0.146,0.149,0.233,0.12l0.152-0.05c0.08-0.026,0.112-0.111,0.115-0.204C28.651,43.42,28.685,43.408,28.713,43.422z
		 M29.834,46.789c0.073,0.036,0.133,0.102,0.161,0.185l0.282,0.847c0.028,0.083,0.019,0.17-0.018,0.243
		c-0.017,0.032-0.055,0.045-0.081,0.07c-0.056-0.05-0.121-0.082-0.188-0.059l-0.152,0.049c-0.075,0.024-0.108,0.104-0.115,0.192
		c-0.064,0.007-0.129,0.014-0.184-0.014c-0.074-0.037-0.134-0.101-0.161-0.185l-0.282-0.847c-0.027-0.083-0.019-0.17,0.019-0.244
		c0.024-0.05,0.078-0.079,0.127-0.11c0.057,0.089,0.145,0.147,0.232,0.118l0.151-0.05c0.078-0.024,0.111-0.109,0.115-0.202
		C29.772,46.787,29.806,46.774,29.834,46.789z M30.953,50.155c0.075,0.037,0.134,0.101,0.162,0.185l0.282,0.848
		c0.028,0.084,0.018,0.17-0.018,0.244c-0.017,0.031-0.055,0.044-0.08,0.069c-0.056-0.051-0.122-0.082-0.188-0.06l-0.152,0.05
		c-0.075,0.024-0.108,0.104-0.115,0.191c-0.064,0.008-0.13,0.015-0.186-0.014c-0.073-0.037-0.133-0.103-0.161-0.187l-0.282-0.846
		c-0.027-0.084-0.019-0.171,0.018-0.244c0.026-0.051,0.08-0.08,0.129-0.112c0.057,0.09,0.146,0.15,0.234,0.12l0.152-0.051
		c0.078-0.026,0.111-0.109,0.115-0.202C30.893,50.153,30.926,50.141,30.953,50.155z M32.075,53.523
		c0.075,0.037,0.134,0.102,0.162,0.185l0.281,0.847c0.027,0.084,0.019,0.17-0.019,0.243c-0.016,0.032-0.054,0.044-0.08,0.069
		c-0.056-0.051-0.122-0.081-0.188-0.059l-0.152,0.051c-0.075,0.024-0.108,0.104-0.115,0.191c-0.064,0.008-0.13,0.015-0.186-0.014
		c-0.075-0.037-0.134-0.104-0.161-0.188l-0.282-0.845c-0.027-0.084-0.019-0.172,0.018-0.243c0.026-0.052,0.08-0.081,0.129-0.112
		c0.057,0.089,0.145,0.146,0.233,0.118l0.152-0.051c0.078-0.025,0.111-0.109,0.114-0.201C32.014,53.521,32.048,53.509,32.075,53.523
		z M33.196,56.889c0.074,0.037,0.133,0.103,0.162,0.186l0.281,0.847c0.027,0.083,0.019,0.171-0.019,0.244
		c-0.016,0.031-0.055,0.044-0.08,0.069c-0.056-0.051-0.122-0.082-0.188-0.06l-0.151,0.052c-0.079,0.025-0.111,0.109-0.115,0.201
		c-0.064,0.009-0.129,0.003-0.185-0.025c-0.075-0.035-0.134-0.102-0.162-0.186l-0.282-0.846c-0.027-0.083-0.018-0.171,0.018-0.245
		c0.026-0.051,0.08-0.08,0.13-0.111c0.057,0.09,0.146,0.149,0.233,0.12l0.153-0.05c0.078-0.026,0.111-0.11,0.115-0.203
		C33.136,56.888,33.169,56.875,33.196,56.889z M34.317,60.256c0.073,0.036,0.133,0.102,0.161,0.186l0.283,0.846
		c0.027,0.084,0.019,0.171-0.019,0.244c-0.016,0.031-0.055,0.044-0.081,0.069c-0.056-0.05-0.122-0.081-0.188-0.06l-0.151,0.05
		c-0.075,0.024-0.108,0.104-0.115,0.192c-0.064,0.008-0.129,0.015-0.185-0.014c-0.074-0.037-0.134-0.103-0.162-0.186l-0.282-0.848
		c-0.028-0.084-0.019-0.17,0.018-0.243c0.026-0.052,0.08-0.08,0.129-0.111c0.057,0.09,0.145,0.147,0.232,0.119l0.152-0.05
		c0.078-0.025,0.111-0.109,0.115-0.203C34.256,60.254,34.289,60.241,34.317,60.256z M35.437,63.621
		c0.074,0.038,0.134,0.102,0.161,0.186l0.096,0.29c-0.298-0.072-0.622-0.143-0.979-0.21c0.003-0.009-0.002-0.02,0.002-0.027
		c0.026-0.051,0.08-0.08,0.129-0.112c0.057,0.091,0.146,0.149,0.233,0.12l0.152-0.051c0.079-0.025,0.111-0.11,0.115-0.202
		C35.376,63.619,35.41,63.607,35.437,63.621z M4.65,60.333l0.151,0.051c0.087,0.029,0.175-0.028,0.233-0.118
		c0.049,0.032,0.102,0.062,0.127,0.113c0.037,0.073,0.045,0.161,0.016,0.245L4.89,61.467c-0.029,0.084-0.089,0.148-0.163,0.184
		c-0.056,0.029-0.122,0.021-0.185,0.014c-0.006-0.089-0.038-0.167-0.113-0.193l-0.151-0.05c-0.065-0.022-0.131,0.008-0.187,0.058
		c-0.025-0.025-0.064-0.038-0.079-0.069c-0.038-0.075-0.045-0.163-0.017-0.246l0.288-0.843c0.028-0.084,0.088-0.148,0.162-0.186
		c0.028-0.014,0.062-0.001,0.092-0.006C4.54,60.222,4.572,60.307,4.65,60.333z M4.435,62.093c0.168,0.034,0.338,0.022,0.485-0.05
		c0.174-0.086,0.315-0.238,0.382-0.436l0.288-0.842c0.066-0.199,0.047-0.404-0.038-0.578c-0.072-0.147-0.199-0.261-0.354-0.336
		l0.38-1.117c0.168,0.034,0.338,0.022,0.485-0.049c0.174-0.086,0.315-0.238,0.382-0.436l0.288-0.844
		c0.067-0.196,0.048-0.402-0.037-0.577c-0.073-0.146-0.201-0.261-0.355-0.336l0.38-1.116c0.169,0.034,0.339,0.023,0.486-0.049
		c0.174-0.086,0.316-0.239,0.383-0.436l0.288-0.845c0.067-0.194,0.047-0.403-0.038-0.575c-0.072-0.147-0.199-0.261-0.353-0.337
		l0.379-1.115c0.169,0.035,0.339,0.022,0.486-0.05c0.174-0.086,0.315-0.238,0.382-0.435l0.288-0.845
		c0.067-0.196,0.047-0.402-0.038-0.577c-0.072-0.147-0.199-0.261-0.354-0.336l0.381-1.117c0.168,0.034,0.337,0.023,0.485-0.05
		c0.174-0.085,0.315-0.237,0.382-0.434l0.288-0.844c0.067-0.197,0.047-0.403-0.038-0.578c-0.073-0.146-0.2-0.26-0.354-0.335
		l0.381-1.116c0.168,0.035,0.338,0.023,0.486-0.05c0.173-0.085,0.315-0.237,0.382-0.435l0.288-0.844
		c0.066-0.197,0.047-0.403-0.039-0.577c-0.072-0.146-0.199-0.26-0.354-0.336l0.38-1.116c0.168,0.035,0.339,0.023,0.487-0.049
		c0.174-0.086,0.316-0.238,0.382-0.434l0.288-0.845c0.066-0.196,0.047-0.403-0.038-0.577c-0.072-0.146-0.199-0.26-0.354-0.336
		l0.38-1.116c0.168,0.034,0.338,0.023,0.485-0.05c0.173-0.086,0.315-0.238,0.382-0.435l0.288-0.843
		c0.067-0.197,0.048-0.403-0.037-0.578c-0.073-0.146-0.2-0.26-0.354-0.335l0.38-1.116c0.168,0.034,0.339,0.023,0.485-0.051
		c0.174-0.085,0.316-0.237,0.383-0.434l0.288-0.844c0.067-0.197,0.046-0.403-0.039-0.577c-0.072-0.147-0.199-0.261-0.354-0.336
		l0.38-1.117c0.168,0.034,0.338,0.022,0.486-0.049c0.174-0.086,0.316-0.238,0.382-0.435l0.288-0.844
		c0.066-0.197,0.047-0.403-0.038-0.578c-0.072-0.146-0.2-0.259-0.354-0.335l0.381-1.116c0.167,0.034,0.337,0.022,0.484-0.05
		c0.174-0.086,0.315-0.238,0.382-0.434l0.288-0.845c0.066-0.196,0.047-0.403-0.039-0.576c-0.072-0.147-0.2-0.261-0.354-0.336
		l0.38-1.116c0.169,0.034,0.339,0.022,0.486-0.05c0.173-0.086,0.315-0.238,0.382-0.435l0.287-0.844
		c0.067-0.197,0.048-0.403-0.037-0.577c-0.072-0.148-0.2-0.261-0.354-0.336l0.38-1.116c0.168,0.034,0.339,0.023,0.485-0.05
		c0.174-0.086,0.316-0.238,0.382-0.434l0.264-0.773l0.068,0.544c0.022,0.188,0.114,0.345,0.243,0.444
		c0.108,0.083,0.247,0.115,0.39,0.104l0.132,1.067c-0.138,0.05-0.26,0.137-0.342,0.263c-0.098,0.148-0.147,0.334-0.124,0.522
		l0.101,0.807c0.023,0.188,0.115,0.344,0.243,0.443c0.108,0.084,0.246,0.117,0.389,0.106l0.132,1.069
		c-0.138,0.049-0.259,0.136-0.342,0.263c-0.097,0.147-0.146,0.334-0.123,0.522l0.1,0.807c0.023,0.188,0.115,0.344,0.243,0.443
		c0.109,0.084,0.246,0.116,0.389,0.105l0.132,1.068c-0.137,0.05-0.26,0.137-0.342,0.264c-0.098,0.147-0.146,0.334-0.123,0.522
		l0.1,0.806c0.023,0.189,0.115,0.345,0.243,0.444c0.109,0.084,0.246,0.116,0.389,0.104l0.133,1.068
		c-0.138,0.05-0.26,0.137-0.342,0.263c-0.098,0.147-0.147,0.334-0.124,0.522l0.1,0.807c0.023,0.188,0.115,0.344,0.244,0.444
		c0.108,0.084,0.245,0.115,0.388,0.104l0.133,1.068c-0.138,0.049-0.26,0.137-0.343,0.263c-0.097,0.148-0.146,0.335-0.123,0.523
		l0.1,0.807c0.023,0.188,0.115,0.344,0.244,0.442c0.108,0.085,0.246,0.117,0.389,0.105l0.132,1.068
		c-0.138,0.05-0.261,0.137-0.344,0.264c-0.098,0.148-0.147,0.335-0.124,0.523l0.101,0.807c0.022,0.188,0.114,0.344,0.243,0.442
		c0.108,0.084,0.246,0.117,0.389,0.105l0.132,1.068c-0.138,0.05-0.26,0.138-0.343,0.264c-0.098,0.147-0.147,0.334-0.124,0.522
		l0.101,0.807c0.022,0.188,0.115,0.345,0.243,0.443c0.109,0.084,0.247,0.116,0.39,0.104l0.132,1.068
		c-0.138,0.05-0.26,0.138-0.343,0.262c-0.098,0.149-0.146,0.335-0.123,0.523l0.1,0.807c0.023,0.188,0.115,0.344,0.243,0.443
		c0.109,0.084,0.246,0.116,0.39,0.104l0.133,1.069c-0.138,0.049-0.262,0.137-0.344,0.263c-0.098,0.149-0.146,0.335-0.123,0.523
		l0.1,0.807c0.023,0.188,0.115,0.344,0.243,0.443c0.109,0.084,0.246,0.116,0.39,0.104l0.133,1.068
		c-0.138,0.05-0.26,0.137-0.342,0.264c-0.098,0.148-0.147,0.334-0.124,0.521l0.1,0.807c0.023,0.188,0.115,0.346,0.244,0.444
		c0.109,0.083,0.246,0.116,0.39,0.104l0.133,1.067c-0.138,0.05-0.261,0.137-0.344,0.263c-0.099,0.148-0.147,0.336-0.124,0.523
		l0.1,0.806c0.023,0.188,0.115,0.345,0.244,0.445c0.108,0.083,0.246,0.116,0.389,0.104l0.133,1.066
		c-0.138,0.05-0.261,0.138-0.344,0.264c-0.098,0.148-0.146,0.334-0.123,0.522l0.1,0.807c0.023,0.188,0.115,0.345,0.244,0.444
		c0.108,0.083,0.246,0.115,0.389,0.104l0.132,1.068c-0.138,0.049-0.261,0.138-0.344,0.263c-0.097,0.148-0.147,0.334-0.124,0.522
		l0.1,0.807c0.007,0.056,0.031,0.102,0.049,0.15c-1.688-0.063-3.475-0.097-5.329-0.097c-6.069,0-11.437,0.362-14.794,0.919
		c-0.012-0.079-0.027-0.157-0.063-0.229c-0.072-0.146-0.2-0.26-0.354-0.335L4.435,62.093z M5.793,56.975l0.151,0.051
		c0.087,0.03,0.176-0.028,0.233-0.117c0.05,0.031,0.103,0.062,0.13,0.113c0.037,0.074,0.045,0.16,0.016,0.244l-0.288,0.844
		c-0.028,0.082-0.089,0.147-0.162,0.185c-0.057,0.028-0.123,0.021-0.187,0.013c-0.006-0.088-0.039-0.167-0.113-0.191l-0.15-0.053
		c-0.065-0.022-0.13,0.007-0.186,0.057c-0.025-0.025-0.063-0.038-0.079-0.07c-0.038-0.072-0.045-0.16-0.017-0.244l0.288-0.844
		c0.028-0.083,0.088-0.146,0.162-0.184c0.027-0.014,0.06,0,0.09-0.006C5.684,56.864,5.716,56.947,5.793,56.975z M6.938,53.618
		l0.151,0.051c0.086,0.029,0.175-0.028,0.233-0.117c0.049,0.032,0.102,0.062,0.128,0.112c0.037,0.072,0.045,0.16,0.017,0.244
		l-0.288,0.845c-0.029,0.083-0.089,0.146-0.163,0.183c-0.057,0.028-0.123,0.021-0.187,0.014c-0.006-0.089-0.038-0.168-0.113-0.194
		l-0.15-0.05c-0.066-0.022-0.131,0.008-0.188,0.058c-0.025-0.025-0.063-0.038-0.079-0.069c-0.037-0.074-0.045-0.161-0.017-0.246
		l0.288-0.844C6.6,53.521,6.66,53.456,6.734,53.42c0.028-0.014,0.061-0.001,0.092-0.006C6.828,53.507,6.86,53.591,6.938,53.618z
		 M8.082,50.259l0.152,0.052c0.086,0.03,0.174-0.028,0.231-0.117c0.049,0.031,0.103,0.06,0.126,0.113
		c0.036,0.073,0.045,0.161,0.017,0.244l-0.288,0.844c-0.029,0.084-0.088,0.149-0.162,0.185c-0.056,0.028-0.121,0.021-0.185,0.013
		c-0.006-0.088-0.038-0.167-0.113-0.193l-0.15-0.051c-0.066-0.022-0.131,0.008-0.188,0.058c-0.025-0.025-0.064-0.038-0.08-0.07
		c-0.037-0.073-0.045-0.16-0.017-0.243l0.288-0.845c0.028-0.083,0.089-0.147,0.162-0.184c0.029-0.014,0.063-0.001,0.094-0.006
		C7.973,50.149,8.005,50.233,8.082,50.259z M9.226,46.902l0.151,0.051c0.087,0.029,0.175-0.028,0.232-0.118
		c0.049,0.032,0.103,0.062,0.127,0.114c0.037,0.073,0.046,0.161,0.017,0.244l-0.288,0.844c-0.028,0.083-0.089,0.147-0.162,0.184
		c-0.056,0.028-0.122,0.021-0.185,0.013c-0.007-0.088-0.039-0.167-0.113-0.193L8.855,47.99c-0.065-0.022-0.131,0.008-0.187,0.058
		c-0.025-0.025-0.063-0.038-0.079-0.07c-0.038-0.074-0.046-0.162-0.017-0.245l0.287-0.844c0.029-0.083,0.089-0.148,0.163-0.184
		c0.028-0.014,0.061-0.001,0.092-0.006C9.117,46.792,9.149,46.876,9.226,46.902z M10.37,43.544l0.151,0.052
		c0.086,0.029,0.174-0.029,0.232-0.117c0.049,0.032,0.103,0.061,0.127,0.112c0.037,0.074,0.045,0.162,0.017,0.245l-0.288,0.843
		c-0.028,0.084-0.088,0.149-0.162,0.185c-0.056,0.028-0.12,0.021-0.183,0.012c-0.006-0.088-0.039-0.167-0.113-0.192L10,44.632
		c-0.067-0.022-0.132,0.009-0.188,0.059c-0.025-0.026-0.063-0.039-0.08-0.071c-0.037-0.073-0.045-0.161-0.017-0.244l0.288-0.844
		c0.028-0.083,0.088-0.146,0.163-0.184c0.027-0.014,0.061-0.001,0.091-0.006C10.26,43.434,10.292,43.518,10.37,43.544z
		 M11.514,40.187l0.152,0.051c0.087,0.03,0.176-0.028,0.232-0.117c0.049,0.032,0.103,0.062,0.128,0.112
		c0.037,0.073,0.045,0.161,0.016,0.244l-0.287,0.845c-0.029,0.083-0.089,0.147-0.163,0.184c-0.056,0.027-0.122,0.021-0.187,0.013
		c-0.006-0.089-0.039-0.168-0.113-0.194l-0.15-0.051c-0.065-0.022-0.13,0.008-0.186,0.058c-0.025-0.025-0.063-0.037-0.079-0.069
		c-0.038-0.073-0.045-0.161-0.017-0.244l0.288-0.844c0.028-0.084,0.088-0.149,0.162-0.184c0.027-0.014,0.061-0.001,0.09-0.006
		C11.404,40.076,11.437,40.161,11.514,40.187z M12.659,36.83l0.151,0.051c0.087,0.03,0.175-0.027,0.232-0.117
		c0.049,0.032,0.102,0.061,0.127,0.112c0.037,0.074,0.044,0.161,0.016,0.244l-0.288,0.844c-0.028,0.084-0.088,0.149-0.162,0.184
		c-0.056,0.029-0.121,0.021-0.184,0.013c-0.006-0.087-0.039-0.167-0.113-0.191l-0.15-0.052c-0.066-0.023-0.132,0.008-0.188,0.058
		c-0.026-0.025-0.064-0.039-0.08-0.07c-0.036-0.073-0.045-0.161-0.016-0.244l0.288-0.845c0.028-0.083,0.087-0.146,0.162-0.183
		c0.028-0.014,0.062-0.001,0.093-0.006C12.55,36.719,12.582,36.803,12.659,36.83z M13.69,33.268
		c0.003,0.093,0.036,0.178,0.113,0.204l0.15,0.051c0.087,0.03,0.176-0.028,0.233-0.118c0.049,0.032,0.102,0.062,0.127,0.113
		c0.037,0.073,0.045,0.161,0.017,0.245l-0.288,0.844c-0.028,0.083-0.089,0.147-0.162,0.183c-0.057,0.029-0.122,0.021-0.186,0.013
		c-0.006-0.087-0.038-0.166-0.112-0.192l-0.152-0.051c-0.066-0.023-0.131,0.007-0.186,0.057c-0.026-0.025-0.064-0.038-0.08-0.07
		c-0.037-0.074-0.045-0.162-0.017-0.245l0.288-0.843c0.029-0.083,0.089-0.148,0.163-0.185C13.626,33.26,13.66,33.273,13.69,33.268z
		 M14.947,30.114l0.151,0.052c0.087,0.029,0.175-0.028,0.232-0.117c0.048,0.032,0.102,0.061,0.126,0.111
		c0.037,0.075,0.045,0.163,0.017,0.245l-0.288,0.844c-0.029,0.083-0.089,0.148-0.163,0.185c-0.055,0.027-0.121,0.02-0.184,0.011
		c-0.006-0.088-0.038-0.167-0.113-0.191l-0.151-0.053c-0.065-0.021-0.131,0.009-0.187,0.059c-0.025-0.025-0.063-0.039-0.079-0.07
		c-0.038-0.073-0.045-0.161-0.017-0.245l0.288-0.844c0.028-0.083,0.088-0.147,0.162-0.183c0.028-0.015,0.062-0.001,0.092-0.006
		C14.837,30.004,14.87,30.088,14.947,30.114z M16.09,26.757l0.151,0.05c0.087,0.03,0.175-0.027,0.232-0.117
		c0.049,0.032,0.103,0.062,0.127,0.114c0.038,0.072,0.046,0.16,0.017,0.244l-0.288,0.844c-0.028,0.084-0.088,0.147-0.162,0.184
		c-0.056,0.028-0.121,0.021-0.184,0.013c-0.006-0.088-0.039-0.167-0.113-0.193l-0.151-0.051c-0.066-0.023-0.132,0.007-0.188,0.057
		c-0.025-0.025-0.063-0.038-0.078-0.069c-0.038-0.074-0.046-0.162-0.017-0.245l0.287-0.844c0.029-0.083,0.089-0.148,0.163-0.184
		c0.027-0.014,0.06-0.001,0.09-0.006C15.98,26.646,16.013,26.73,16.09,26.757z M17.234,23.399l0.151,0.052
		c0.088,0.029,0.176-0.029,0.233-0.119c0.049,0.032,0.102,0.061,0.128,0.112c0.037,0.074,0.045,0.162,0.017,0.245l-0.288,0.844
		c-0.028,0.083-0.088,0.148-0.162,0.184c-0.057,0.028-0.123,0.021-0.186,0.013c-0.006-0.088-0.038-0.167-0.113-0.193l-0.15-0.052
		c-0.066-0.022-0.132,0.008-0.188,0.059c-0.025-0.025-0.063-0.039-0.079-0.07c-0.037-0.072-0.045-0.16-0.017-0.243l0.288-0.845
		c0.028-0.084,0.089-0.148,0.163-0.184c0.027-0.014,0.061-0.001,0.09-0.006C17.125,23.288,17.156,23.373,17.234,23.399z
		 M18.38,20.043l0.15,0.051c0.088,0.029,0.176-0.029,0.234-0.119c0.049,0.032,0.102,0.062,0.127,0.112
		c0.036,0.073,0.045,0.161,0.017,0.245l-0.289,0.844c-0.028,0.083-0.088,0.147-0.162,0.183c-0.056,0.029-0.122,0.021-0.186,0.013
		c-0.006-0.088-0.039-0.167-0.113-0.192l-0.15-0.051c-0.066-0.023-0.131,0.007-0.188,0.057c-0.025-0.025-0.063-0.037-0.078-0.068
		c-0.037-0.074-0.045-0.163-0.017-0.245l0.288-0.844c0.028-0.083,0.089-0.148,0.162-0.184c0.028-0.014,0.062,0,0.092-0.006
		C18.27,19.932,18.302,20.016,18.38,20.043z M20.697,23.057c0.054,0.041,0.093,0.108,0.104,0.188l0.025,0.2
		c-0.029,0.129-0.037,0.264,0.007,0.397l0.067,0.199l0.001,0.009c0.01,0.08-0.011,0.159-0.052,0.221
		c-0.018,0.028-0.052,0.035-0.077,0.055c-0.038-0.052-0.086-0.088-0.144-0.076l-0.132,0.028c-0.065,0.015-0.104,0.083-0.124,0.164
		c-0.053,0-0.108-0.002-0.148-0.034c-0.055-0.041-0.094-0.108-0.103-0.188l-0.101-0.807c-0.011-0.079,0.011-0.159,0.052-0.222
		c0.028-0.043,0.077-0.063,0.123-0.086c0.033,0.088,0.096,0.152,0.172,0.135l0.132-0.028c0.067-0.015,0.106-0.088,0.124-0.171
		C20.648,23.049,20.677,23.042,20.697,23.057z M20.503,20.843c0.011,0.079-0.011,0.158-0.052,0.222
		c-0.016,0.023-0.045,0.028-0.065,0.046l-0.258-0.772c-0.027-0.084-0.019-0.172,0.019-0.245c0.026-0.052,0.079-0.08,0.129-0.111
		c0.036,0.056,0.078,0.089,0.133,0.103L20.503,20.843z M19.713,20.476l0.252,0.755c-0.049-0.002-0.1-0.002-0.138-0.031
		c-0.054-0.043-0.094-0.109-0.104-0.188l-0.1-0.807c-0.01-0.08,0.011-0.159,0.052-0.222c0.017-0.025,0.048-0.031,0.071-0.05
		C19.672,20.099,19.651,20.291,19.713,20.476z M21.097,26.265c0.055,0.042,0.093,0.108,0.104,0.188l0.1,0.806
		c0.01,0.079-0.011,0.159-0.053,0.221c-0.018,0.027-0.052,0.035-0.076,0.055c-0.038-0.053-0.087-0.088-0.144-0.075l-0.132,0.028
		c-0.065,0.015-0.104,0.083-0.123,0.161c-0.053,0-0.107-0.001-0.149-0.034c-0.055-0.042-0.094-0.107-0.104-0.188l-0.101-0.807
		c-0.009-0.078,0.012-0.158,0.053-0.221c0.028-0.043,0.077-0.063,0.122-0.086c0.033,0.089,0.096,0.153,0.172,0.137l0.132-0.029
		c0.068-0.015,0.108-0.088,0.125-0.172C21.047,26.257,21.077,26.25,21.097,26.265z M21.495,29.474
		c0.054,0.042,0.093,0.108,0.103,0.187l0.101,0.808c0.01,0.079-0.012,0.158-0.053,0.222c-0.018,0.027-0.051,0.034-0.075,0.054
		c-0.038-0.053-0.087-0.089-0.145-0.077l-0.132,0.029c-0.064,0.014-0.104,0.083-0.123,0.163c-0.053,0-0.107-0.001-0.149-0.034
		c-0.055-0.042-0.094-0.109-0.103-0.188l-0.1-0.807c-0.01-0.08,0.011-0.158,0.052-0.221c0.029-0.043,0.077-0.064,0.122-0.087
		c0.034,0.088,0.096,0.153,0.172,0.135l0.132-0.028c0.068-0.015,0.108-0.087,0.125-0.172C21.446,29.466,21.475,29.458,21.495,29.474
		z M21.894,32.682c0.055,0.043,0.093,0.108,0.103,0.188l0.101,0.807c0.009,0.08-0.011,0.158-0.053,0.223
		c-0.018,0.027-0.051,0.034-0.076,0.054c-0.038-0.053-0.086-0.089-0.144-0.077l-0.132,0.028c-0.064,0.014-0.103,0.083-0.123,0.163
		c-0.054,0-0.108-0.001-0.149-0.033c-0.055-0.042-0.093-0.109-0.103-0.188l-0.1-0.808c-0.01-0.079,0.011-0.157,0.053-0.221
		c0.029-0.044,0.077-0.064,0.121-0.087c0.033,0.088,0.096,0.153,0.171,0.136l0.132-0.029c0.068-0.015,0.108-0.087,0.125-0.171
		C21.844,32.674,21.874,32.667,21.894,32.682z M22.293,35.891c0.055,0.043,0.094,0.107,0.104,0.188l0.101,0.806
		c0.009,0.081-0.012,0.159-0.054,0.223c-0.018,0.027-0.051,0.034-0.076,0.054c-0.038-0.053-0.086-0.089-0.143-0.077l-0.132,0.028
		c-0.066,0.015-0.104,0.083-0.123,0.164c-0.054,0-0.108-0.002-0.15-0.034c-0.055-0.042-0.093-0.108-0.104-0.188l-0.1-0.807
		c-0.01-0.079,0.011-0.158,0.053-0.221c0.028-0.043,0.077-0.064,0.122-0.087c0.033,0.088,0.095,0.152,0.171,0.136l0.132-0.028
		c0.068-0.015,0.108-0.088,0.125-0.172C22.243,35.883,22.272,35.875,22.293,35.891z M22.691,39.099
		c0.054,0.042,0.094,0.108,0.104,0.188l0.1,0.806c0.01,0.08-0.011,0.159-0.052,0.222c-0.018,0.027-0.051,0.034-0.076,0.054
		c-0.038-0.052-0.086-0.088-0.144-0.075l-0.132,0.028c-0.065,0.014-0.104,0.083-0.123,0.162c-0.053,0-0.107-0.001-0.148-0.035
		c-0.054-0.042-0.093-0.107-0.104-0.188l-0.1-0.807c-0.01-0.079,0.011-0.157,0.052-0.221c0.028-0.044,0.077-0.063,0.122-0.086
		c0.033,0.089,0.095,0.152,0.171,0.135l0.132-0.028c0.068-0.015,0.107-0.087,0.125-0.171C22.642,39.091,22.671,39.083,22.691,39.099
		z M23.09,42.307c0.055,0.043,0.094,0.109,0.104,0.188l0.1,0.807c0.009,0.08-0.011,0.158-0.052,0.222
		c-0.018,0.027-0.051,0.034-0.076,0.054c-0.038-0.052-0.087-0.087-0.144-0.075l-0.132,0.028c-0.065,0.015-0.104,0.083-0.124,0.162
		c-0.053,0-0.108-0.002-0.149-0.035c-0.055-0.042-0.093-0.107-0.103-0.188l-0.1-0.807c-0.011-0.08,0.011-0.157,0.052-0.222
		c0.029-0.042,0.077-0.062,0.122-0.085c0.033,0.089,0.096,0.152,0.172,0.135l0.131-0.028c0.068-0.016,0.108-0.088,0.125-0.173
		C23.04,42.299,23.07,42.292,23.09,42.307z M23.888,48.725c0.054,0.043,0.093,0.107,0.103,0.188l0.1,0.806
		c0.01,0.079-0.011,0.158-0.052,0.222c-0.018,0.027-0.051,0.034-0.076,0.054c-0.038-0.053-0.087-0.088-0.144-0.075l-0.132,0.028
		c-0.065,0.014-0.104,0.082-0.123,0.162c-0.053,0-0.107-0.001-0.149-0.033c-0.055-0.043-0.094-0.108-0.103-0.188l-0.101-0.806
		c-0.009-0.08,0.011-0.159,0.053-0.222c0.029-0.043,0.077-0.064,0.122-0.087c0.033,0.089,0.096,0.153,0.172,0.136l0.132-0.028
		c0.068-0.015,0.108-0.088,0.125-0.171C23.838,48.717,23.868,48.709,23.888,48.725z M23.49,45.517
		c0.055,0.042,0.093,0.107,0.104,0.188l0.1,0.807c0.01,0.079-0.011,0.157-0.053,0.221c-0.018,0.028-0.051,0.034-0.076,0.054
		c-0.038-0.053-0.086-0.089-0.144-0.076l-0.132,0.028c-0.065,0.015-0.104,0.083-0.124,0.163c-0.053,0-0.108-0.002-0.148-0.034
		c-0.055-0.042-0.094-0.108-0.104-0.188l-0.1-0.806c-0.009-0.08,0.011-0.159,0.053-0.222c0.028-0.043,0.077-0.064,0.122-0.087
		c0.033,0.088,0.096,0.151,0.172,0.136l0.132-0.029c0.067-0.015,0.107-0.087,0.125-0.171C23.441,45.509,23.47,45.501,23.49,45.517z
		 M24.287,51.934c0.055,0.041,0.094,0.108,0.104,0.188l0.1,0.808c0.01,0.078-0.011,0.157-0.052,0.221
		c-0.018,0.027-0.051,0.034-0.077,0.055c-0.038-0.054-0.087-0.09-0.145-0.077l-0.132,0.028c-0.065,0.015-0.104,0.083-0.123,0.163
		c-0.053-0.001-0.107-0.002-0.148-0.033c-0.055-0.044-0.093-0.108-0.103-0.188l-0.101-0.806c-0.01-0.081,0.012-0.159,0.053-0.224
		c0.028-0.043,0.076-0.063,0.121-0.086c0.033,0.089,0.095,0.152,0.171,0.134l0.132-0.027c0.068-0.015,0.108-0.088,0.125-0.172
		C24.237,51.925,24.267,51.917,24.287,51.934z M24.685,55.143c0.055,0.041,0.093,0.108,0.103,0.188l0.101,0.807
		c0.01,0.08-0.012,0.158-0.053,0.223c-0.018,0.027-0.051,0.034-0.075,0.054c-0.038-0.053-0.087-0.089-0.144-0.076l-0.131,0.028
		c-0.065,0.016-0.104,0.084-0.124,0.163c-0.054-0.001-0.108-0.003-0.15-0.034c-0.055-0.043-0.093-0.107-0.104-0.188l-0.1-0.809
		c-0.01-0.079,0.011-0.158,0.052-0.223c0.03-0.042,0.078-0.063,0.124-0.087c0.032,0.09,0.096,0.155,0.172,0.137l0.132-0.028
		c0.068-0.016,0.108-0.088,0.125-0.171C24.636,55.135,24.665,55.127,24.685,55.143z M25.084,58.352
		c0.055,0.041,0.094,0.106,0.103,0.188l0.101,0.807c0.009,0.079-0.011,0.158-0.053,0.221c-0.018,0.027-0.051,0.035-0.076,0.055
		c-0.038-0.053-0.086-0.088-0.144-0.076l-0.131,0.029c-0.065,0.016-0.104,0.083-0.123,0.163c-0.054-0.001-0.108-0.003-0.15-0.035
		c-0.054-0.043-0.093-0.108-0.103-0.188l-0.1-0.807c-0.01-0.079,0.011-0.159,0.053-0.223c0.028-0.042,0.076-0.063,0.122-0.086
		c0.033,0.089,0.096,0.152,0.171,0.136l0.132-0.028c0.068-0.016,0.107-0.088,0.125-0.171C25.035,58.344,25.063,58.336,25.084,58.352
		z M25.483,61.559c0.055,0.043,0.094,0.108,0.104,0.188l0.1,0.806c0.01,0.079-0.011,0.159-0.052,0.223
		c-0.042,0.063-0.104,0.108-0.176,0.125l-0.25,0.054c-0.073,0.017-0.143-0.002-0.198-0.044c-0.054-0.042-0.093-0.109-0.103-0.188
		l-0.1-0.808c-0.01-0.08,0.011-0.159,0.052-0.222c0.027-0.043,0.076-0.063,0.121-0.086c0.033,0.089,0.096,0.152,0.171,0.135
		l0.132-0.028c0.068-0.014,0.108-0.087,0.125-0.172C25.433,61.551,25.463,61.543,25.483,61.559z M3.506,63.689l0.151,0.053
		c0.086,0.028,0.174-0.029,0.232-0.118c0.049,0.032,0.102,0.061,0.127,0.112c0.016,0.033,0.003,0.072,0.008,0.109
		c-0.367,0.066-0.703,0.135-1.012,0.206l0.127-0.374c0.029-0.085,0.089-0.148,0.163-0.185c0.029-0.015,0.061-0.021,0.092-0.025
		C3.39,63.567,3.423,63.662,3.506,63.689z M21.11,23.003c-0.043-0.112-0.104-0.213-0.191-0.28c-0.091-0.07-0.203-0.098-0.319-0.104
		l-0.102-0.825c0.117,0.036,0.239,0.044,0.365,0.02l0.372,1.118C21.191,22.953,21.148,22.975,21.11,23.003z M19.59,18.376
		l0.139,1.119c-0.138,0.05-0.261,0.138-0.344,0.263c-0.04,0.06-0.064,0.129-0.087,0.2c-0.008-0.02-0.007-0.043-0.017-0.063
		c-0.072-0.146-0.2-0.259-0.354-0.335l0.413-1.212C19.426,18.357,19.503,18.369,19.59,18.376z M104.055,63.613
		c0.003,0.093,0.036,0.178,0.114,0.203l0.151,0.051c0.087,0.029,0.177-0.029,0.234-0.12c0.049,0.032,0.104,0.062,0.129,0.112
		c0.004,0.008-0.002,0.019,0.002,0.027c-0.357,0.067-0.682,0.138-0.979,0.21l0.096-0.29c0.028-0.084,0.089-0.147,0.161-0.186
		C103.99,63.607,104.024,63.619,104.055,63.613z M105.175,60.249c0.004,0.093,0.037,0.177,0.114,0.202l0.152,0.05
		c0.088,0.028,0.177-0.03,0.232-0.12c0.051,0.031,0.104,0.061,0.129,0.112c0.039,0.073,0.047,0.159,0.021,0.243l-0.282,0.848
		c-0.027,0.083-0.087,0.148-0.161,0.186c-0.056,0.028-0.122,0.022-0.188,0.014c-0.006-0.088-0.038-0.168-0.114-0.192l-0.152-0.05
		c-0.065-0.021-0.131,0.009-0.187,0.059c-0.025-0.024-0.063-0.037-0.079-0.068c-0.038-0.073-0.045-0.16-0.02-0.244l0.281-0.846
		c0.028-0.084,0.088-0.149,0.162-0.186C105.111,60.241,105.145,60.254,105.175,60.249z M105.088,62.212
		c0.169,0.033,0.34,0.021,0.487-0.054c0.175-0.086,0.315-0.239,0.38-0.438l0.281-0.846c0.066-0.197,0.046-0.402-0.041-0.577
		c-0.074-0.146-0.204-0.259-0.359-0.333l0.373-1.119c0.17,0.033,0.341,0.021,0.488-0.053c0.174-0.087,0.314-0.24,0.381-0.438
		l0.281-0.848c0.064-0.195,0.043-0.402-0.045-0.576c-0.072-0.147-0.201-0.26-0.357-0.333l0.373-1.118
		c0.169,0.032,0.34,0.02,0.486-0.055c0.174-0.087,0.315-0.24,0.381-0.438l0.281-0.848c0.066-0.195,0.045-0.402-0.043-0.576
		c-0.073-0.146-0.202-0.259-0.357-0.333l0.372-1.119c0.17,0.033,0.341,0.021,0.487-0.054c0.174-0.086,0.315-0.24,0.381-0.437
		l0.281-0.845c0.065-0.199,0.045-0.404-0.043-0.58c-0.072-0.146-0.202-0.258-0.358-0.333l0.373-1.12
		c0.169,0.033,0.34,0.02,0.487-0.053c0.174-0.087,0.314-0.24,0.381-0.438l0.281-0.846c0.064-0.197,0.045-0.403-0.044-0.576
		c-0.073-0.147-0.202-0.26-0.358-0.334l0.373-1.119c0.169,0.033,0.34,0.02,0.488-0.053c0.174-0.087,0.314-0.24,0.381-0.437
		l0.28-0.847c0.065-0.197,0.046-0.404-0.043-0.577c-0.073-0.147-0.203-0.26-0.358-0.333l0.372-1.119
		c0.169,0.033,0.34,0.02,0.488-0.054c0.175-0.087,0.315-0.24,0.38-0.437l0.282-0.847c0.065-0.197,0.045-0.404-0.044-0.577
		c-0.073-0.146-0.201-0.259-0.357-0.333l0.373-1.118c0.169,0.033,0.341,0.02,0.488-0.054c0.174-0.087,0.314-0.24,0.38-0.438
		l0.282-0.845c0.064-0.198,0.044-0.404-0.043-0.579c-0.073-0.145-0.203-0.258-0.358-0.333l0.372-1.118
		c0.169,0.033,0.34,0.02,0.487-0.053c0.175-0.087,0.315-0.24,0.38-0.438l0.282-0.847c0.065-0.196,0.045-0.403-0.043-0.576
		c-0.073-0.147-0.203-0.261-0.358-0.334l0.373-1.12c0.169,0.033,0.34,0.02,0.488-0.054c0.173-0.087,0.314-0.24,0.379-0.437
		l0.282-0.847c0.065-0.197,0.043-0.404-0.043-0.577c-0.073-0.146-0.202-0.258-0.357-0.333l0.372-1.119
		c0.169,0.033,0.34,0.02,0.487-0.054c0.173-0.087,0.313-0.24,0.38-0.437l0.281-0.847c0.066-0.197,0.044-0.402-0.043-0.577
		c-0.072-0.146-0.202-0.258-0.357-0.333l0.373-1.119c0.169,0.033,0.34,0.02,0.486-0.054c0.175-0.086,0.316-0.239,0.381-0.438
		l0.041-0.125c0.061,0.07,0.131,0.125,0.212,0.165l-0.136,1.099c-0.117,0.006-0.229,0.035-0.319,0.105
		c-0.128,0.099-0.22,0.255-0.242,0.443l-0.101,0.807c-0.023,0.188,0.023,0.373,0.123,0.522c0.069,0.104,0.168,0.179,0.276,0.233
		l-0.137,1.099c-0.117,0.006-0.229,0.035-0.319,0.104c-0.127,0.1-0.22,0.256-0.242,0.444l-0.101,0.806
		c-0.022,0.188,0.025,0.375,0.123,0.523c0.068,0.104,0.168,0.179,0.278,0.233l-0.137,1.098c-0.117,0.006-0.229,0.035-0.319,0.104
		c-0.129,0.099-0.222,0.256-0.243,0.444l-0.102,0.808c-0.022,0.187,0.025,0.372,0.123,0.521c0.069,0.105,0.169,0.179,0.278,0.233
		l-0.137,1.099c-0.117,0.006-0.229,0.034-0.32,0.104c-0.128,0.099-0.22,0.255-0.243,0.443l-0.101,0.807
		c-0.022,0.188,0.026,0.374,0.124,0.523c0.068,0.105,0.168,0.179,0.277,0.232l-0.137,1.099c-0.116,0.006-0.228,0.035-0.317,0.104
		c-0.13,0.099-0.222,0.255-0.245,0.443l-0.1,0.807c-0.023,0.188,0.025,0.374,0.123,0.523c0.069,0.104,0.168,0.178,0.276,0.232
		l-0.137,1.099c-0.116,0.006-0.227,0.035-0.316,0.104c-0.13,0.099-0.222,0.256-0.245,0.444l-0.1,0.807
		c-0.023,0.188,0.025,0.374,0.123,0.522c0.069,0.104,0.168,0.178,0.277,0.233l-0.137,1.099c-0.117,0.006-0.229,0.034-0.318,0.104
		c-0.129,0.098-0.221,0.255-0.244,0.443l-0.1,0.807c-0.023,0.187,0.023,0.375,0.123,0.522c0.068,0.104,0.167,0.179,0.275,0.233
		l-0.137,1.099c-0.116,0.006-0.227,0.034-0.316,0.104c-0.129,0.098-0.221,0.255-0.244,0.443l-0.1,0.806
		c-0.023,0.188,0.025,0.375,0.123,0.523c0.068,0.104,0.166,0.178,0.275,0.232l-0.136,1.1c-0.117,0.006-0.229,0.034-0.319,0.104
		c-0.129,0.1-0.22,0.256-0.242,0.443l-0.101,0.807c-0.024,0.188,0.024,0.375,0.122,0.523c0.069,0.105,0.169,0.179,0.279,0.233
		l-0.137,1.098c-0.117,0.006-0.229,0.034-0.32,0.104c-0.128,0.1-0.219,0.256-0.242,0.443l-0.102,0.807
		c-0.022,0.188,0.025,0.375,0.123,0.522c0.069,0.104,0.168,0.179,0.277,0.233l-0.137,1.099c-0.116,0.006-0.228,0.034-0.318,0.104
		c-0.128,0.099-0.22,0.254-0.242,0.443l-0.102,0.807c-0.023,0.188,0.025,0.375,0.124,0.521c0.068,0.105,0.167,0.18,0.276,0.233
		l-0.137,1.1c-0.116,0.006-0.228,0.034-0.317,0.104c-0.13,0.099-0.222,0.254-0.245,0.443l-0.1,0.807
		c-0.023,0.188,0.024,0.373,0.123,0.521c0.003,0.004,0.007,0.006,0.01,0.01c-3.393,0.162-6.295,0.442-8.371,0.802
		c-0.014-0.049-0.019-0.101-0.041-0.146c-0.074-0.146-0.203-0.258-0.358-0.332L105.088,62.212z M106.297,56.882
		c0.003,0.093,0.036,0.177,0.114,0.203l0.151,0.05c0.087,0.029,0.175-0.03,0.232-0.12c0.05,0.031,0.104,0.061,0.129,0.111
		c0.039,0.074,0.047,0.162,0.02,0.245l-0.281,0.846c-0.027,0.084-0.088,0.15-0.162,0.186c-0.056,0.028-0.12,0.034-0.186,0.025
		c-0.004-0.092-0.036-0.176-0.114-0.201l-0.153-0.052c-0.066-0.022-0.131,0.009-0.187,0.059c-0.025-0.024-0.063-0.037-0.079-0.068
		c-0.038-0.073-0.047-0.161-0.018-0.244l0.279-0.847c0.027-0.083,0.088-0.148,0.162-0.186
		C106.232,56.875,106.266,56.888,106.297,56.882z M107.416,53.516c0.004,0.092,0.037,0.176,0.115,0.201l0.15,0.051
		c0.089,0.028,0.177-0.029,0.233-0.119c0.051,0.032,0.104,0.062,0.13,0.113c0.039,0.071,0.047,0.159,0.02,0.243l-0.282,0.845
		c-0.027,0.084-0.089,0.15-0.16,0.188c-0.056,0.028-0.122,0.021-0.188,0.014c-0.007-0.088-0.039-0.167-0.114-0.191l-0.152-0.051
		c-0.065-0.022-0.131,0.008-0.187,0.059c-0.026-0.025-0.064-0.037-0.081-0.069c-0.037-0.073-0.045-0.159-0.018-0.243l0.281-0.847
		c0.027-0.083,0.088-0.147,0.161-0.185C107.353,53.509,107.386,53.521,107.416,53.516z M108.537,50.148
		c0.004,0.092,0.037,0.176,0.115,0.202l0.152,0.051c0.086,0.03,0.175-0.03,0.232-0.121c0.05,0.032,0.104,0.061,0.129,0.113
		c0.038,0.073,0.046,0.16,0.02,0.244l-0.283,0.846c-0.025,0.084-0.086,0.149-0.16,0.187c-0.056,0.029-0.122,0.022-0.187,0.015
		c-0.007-0.089-0.04-0.168-0.114-0.192l-0.152-0.05c-0.066-0.022-0.131,0.008-0.188,0.059c-0.025-0.024-0.063-0.037-0.08-0.068
		c-0.037-0.074-0.045-0.16-0.018-0.244l0.281-0.848c0.027-0.084,0.087-0.147,0.16-0.185
		C108.473,50.141,108.507,50.153,108.537,50.148z M109.658,46.782c0.004,0.093,0.037,0.178,0.115,0.202l0.15,0.05
		c0.088,0.029,0.176-0.03,0.233-0.12c0.051,0.031,0.104,0.06,0.131,0.111c0.038,0.074,0.046,0.161,0.019,0.244l-0.281,0.847
		c-0.027,0.084-0.088,0.147-0.162,0.185c-0.056,0.029-0.122,0.023-0.188,0.014c-0.007-0.088-0.039-0.168-0.115-0.192l-0.15-0.049
		c-0.064-0.022-0.13,0.008-0.186,0.058c-0.025-0.025-0.064-0.038-0.08-0.069c-0.039-0.073-0.047-0.16-0.02-0.243l0.282-0.847
		c0.026-0.083,0.088-0.149,0.159-0.185C109.595,46.774,109.628,46.788,109.658,46.782z M110.778,43.415
		c0.003,0.093,0.036,0.177,0.114,0.203l0.152,0.05c0.087,0.03,0.177-0.03,0.233-0.121c0.05,0.031,0.104,0.062,0.131,0.112
		c0.038,0.074,0.046,0.162,0.018,0.246l-0.28,0.845c-0.028,0.084-0.088,0.15-0.162,0.186c-0.056,0.029-0.123,0.022-0.188,0.014
		c-0.008-0.087-0.041-0.167-0.115-0.191l-0.15-0.051c-0.065-0.022-0.131,0.008-0.187,0.058c-0.025-0.025-0.064-0.037-0.079-0.068
		c-0.039-0.073-0.048-0.16-0.02-0.244l0.281-0.846c0.027-0.084,0.088-0.149,0.162-0.186
		C110.716,43.408,110.749,43.42,110.778,43.415z M111.899,40.049c0.004,0.092,0.036,0.176,0.114,0.202l0.152,0.051
		c0.088,0.028,0.177-0.031,0.232-0.121c0.051,0.032,0.104,0.061,0.131,0.113c0.037,0.072,0.046,0.16,0.019,0.244l-0.28,0.846
		c-0.029,0.084-0.088,0.149-0.162,0.186c-0.058,0.029-0.124,0.023-0.188,0.014c-0.007-0.088-0.04-0.167-0.115-0.192l-0.151-0.05
		c-0.065-0.022-0.13,0.008-0.186,0.058c-0.025-0.025-0.063-0.038-0.079-0.069c-0.038-0.073-0.046-0.159-0.02-0.243l0.282-0.847
		c0.026-0.083,0.088-0.148,0.16-0.185C111.836,40.042,111.869,40.055,111.899,40.049z M113.021,36.683
		c0.005,0.092,0.038,0.175,0.115,0.201l0.152,0.05c0.087,0.029,0.175-0.029,0.232-0.119c0.05,0.032,0.103,0.062,0.13,0.112
		c0.037,0.073,0.047,0.161,0.019,0.244l-0.28,0.847c-0.029,0.083-0.089,0.148-0.162,0.185c-0.057,0.029-0.124,0.023-0.188,0.015
		c-0.007-0.089-0.04-0.168-0.114-0.193l-0.15-0.05c-0.066-0.023-0.132,0.008-0.188,0.058c-0.025-0.025-0.063-0.037-0.08-0.068
		c-0.038-0.073-0.046-0.16-0.02-0.244l0.281-0.847c0.029-0.083,0.09-0.148,0.162-0.184C112.957,36.675,112.99,36.688,113.021,36.683
		z M114.142,33.315c0.003,0.093,0.036,0.177,0.114,0.203l0.152,0.05c0.088,0.03,0.176-0.03,0.232-0.12
		c0.05,0.031,0.104,0.06,0.131,0.111c0.037,0.074,0.045,0.162,0.018,0.245l-0.281,0.846c-0.027,0.084-0.087,0.15-0.16,0.185
		c-0.057,0.029-0.123,0.023-0.188,0.015c-0.007-0.088-0.04-0.167-0.115-0.191l-0.15-0.05c-0.067-0.022-0.133,0.008-0.188,0.059
		c-0.024-0.025-0.063-0.038-0.078-0.068c-0.039-0.073-0.047-0.16-0.021-0.244l0.281-0.847c0.028-0.082,0.088-0.147,0.162-0.185
		C114.078,33.308,114.111,33.321,114.142,33.315z M115.263,29.949c0.004,0.092,0.037,0.176,0.114,0.202l0.152,0.05
		c0.088,0.029,0.176-0.03,0.233-0.12c0.05,0.032,0.103,0.061,0.13,0.111c0.037,0.073,0.045,0.161,0.019,0.245l-0.282,0.845
		c-0.027,0.084-0.087,0.15-0.162,0.187c-0.055,0.028-0.121,0.021-0.186,0.013c-0.007-0.088-0.039-0.167-0.114-0.191l-0.153-0.05
		c-0.065-0.022-0.131,0.008-0.186,0.058c-0.025-0.025-0.064-0.037-0.08-0.069c-0.038-0.073-0.047-0.16-0.02-0.244l0.281-0.846
		c0.027-0.083,0.088-0.149,0.162-0.185C115.199,29.942,115.232,29.955,115.263,29.949z M116.383,26.583
		c0.004,0.092,0.037,0.176,0.115,0.201l0.15,0.051c0.089,0.03,0.178-0.03,0.234-0.12c0.05,0.032,0.104,0.062,0.131,0.112
		c0.037,0.072,0.045,0.16,0.018,0.244l-0.282,0.847c-0.026,0.083-0.088,0.148-0.16,0.185c-0.056,0.029-0.123,0.022-0.188,0.014
		c-0.007-0.088-0.039-0.167-0.114-0.192l-0.152-0.05c-0.065-0.022-0.131,0.008-0.187,0.058c-0.025-0.025-0.064-0.037-0.08-0.068
		c-0.038-0.074-0.046-0.16-0.019-0.244l0.281-0.847c0.028-0.083,0.088-0.148,0.161-0.184
		C116.319,26.576,116.353,26.588,116.383,26.583z M117.504,23.216c0.004,0.093,0.037,0.177,0.114,0.203l0.153,0.049
		c0.087,0.03,0.176-0.03,0.231-0.12c0.05,0.032,0.104,0.061,0.13,0.112c0.038,0.074,0.047,0.161,0.02,0.244l-0.282,0.847
		c-0.027,0.084-0.087,0.149-0.161,0.185c-0.056,0.029-0.122,0.022-0.187,0.015c-0.008-0.088-0.041-0.167-0.115-0.191l-0.151-0.051
		c-0.066-0.022-0.131,0.009-0.188,0.06c-0.025-0.025-0.063-0.038-0.08-0.069c-0.037-0.072-0.045-0.16-0.018-0.243l0.28-0.848
		c0.028-0.082,0.088-0.146,0.162-0.184C117.44,23.209,117.474,23.222,117.504,23.216z M118.625,19.849c0.002,0.037,0,0.07,0.015,0.1
		c0,0.004-0.003,0.006-0.003,0.01l-0.1,0.805c-0.023,0.189,0.025,0.375,0.123,0.522c0.027,0.041,0.065,0.07,0.099,0.104
		c-0.038,0.009-0.076,0.011-0.116,0.005c-0.002-0.093-0.034-0.177-0.113-0.204l-0.152-0.05c-0.066-0.022-0.131,0.009-0.188,0.059
		c-0.025-0.025-0.064-0.038-0.08-0.069c-0.037-0.073-0.045-0.16-0.018-0.244l0.281-0.846c0.027-0.083,0.087-0.149,0.16-0.186
		C118.561,19.842,118.595,19.854,118.625,19.849z M120.088,18.427l0.386,1.134c-0.154,0.075-0.282,0.188-0.354,0.334
		c-0.01,0.02-0.01,0.043-0.018,0.064c-0.021-0.071-0.047-0.141-0.088-0.201c-0.082-0.125-0.203-0.213-0.343-0.263l0.131-1.051
		C119.902,18.441,119.99,18.433,120.088,18.427z M122.536,24.486l-0.149,0.052c-0.075,0.026-0.107,0.105-0.113,0.193
		c-0.064,0.009-0.13,0.015-0.187-0.013c-0.073-0.037-0.134-0.101-0.162-0.184l-0.286-0.844c-0.029-0.083-0.021-0.171,0.016-0.245
		c0.026-0.051,0.079-0.081,0.128-0.113c0.058,0.09,0.146,0.148,0.233,0.119l0.15-0.052c0.077-0.026,0.109-0.111,0.112-0.203
		c0.03,0.005,0.063-0.007,0.091,0.006c0.074,0.036,0.134,0.1,0.162,0.184l0.287,0.845c0.029,0.083,0.021,0.171-0.016,0.243
		c-0.016,0.032-0.054,0.044-0.079,0.07C122.668,24.494,122.603,24.464,122.536,24.486z M121.264,23.254
		c-0.087,0.174-0.104,0.38-0.039,0.577l0.289,0.844c0.065,0.197,0.207,0.349,0.381,0.435c0.148,0.072,0.318,0.083,0.487,0.049
		l0.38,1.116c-0.154,0.076-0.282,0.189-0.354,0.336c-0.085,0.173-0.104,0.38-0.037,0.576l0.287,0.845
		c0.067,0.196,0.209,0.348,0.383,0.434c0.146,0.073,0.317,0.084,0.486,0.05l0.379,1.116c-0.154,0.075-0.282,0.188-0.354,0.335
		c-0.086,0.175-0.105,0.381-0.037,0.578l0.287,0.844c0.066,0.197,0.208,0.349,0.383,0.435c0.147,0.072,0.318,0.084,0.486,0.049
		l0.38,1.117c-0.153,0.075-0.282,0.189-0.354,0.336c-0.086,0.174-0.104,0.38-0.037,0.577l0.287,0.844
		c0.066,0.197,0.209,0.349,0.383,0.434c0.147,0.074,0.318,0.085,0.486,0.05l0.38,1.116c-0.154,0.074-0.282,0.188-0.354,0.335
		c-0.086,0.175-0.104,0.381-0.038,0.578l0.288,0.843c0.067,0.197,0.209,0.349,0.383,0.435c0.146,0.073,0.317,0.084,0.485,0.05
		l0.38,1.116c-0.153,0.076-0.282,0.19-0.354,0.336c-0.086,0.174-0.104,0.381-0.039,0.577l0.287,0.845
		c0.067,0.196,0.209,0.348,0.384,0.434c0.147,0.072,0.317,0.083,0.486,0.049l0.38,1.116c-0.154,0.075-0.282,0.19-0.354,0.336
		c-0.086,0.174-0.104,0.38-0.038,0.577l0.288,0.844c0.065,0.198,0.208,0.35,0.384,0.435c0.147,0.073,0.317,0.084,0.484,0.05
		l0.38,1.116c-0.154,0.075-0.282,0.189-0.354,0.335c-0.084,0.175-0.104,0.381-0.037,0.578l0.287,0.844
		c0.067,0.197,0.209,0.349,0.383,0.434c0.146,0.073,0.318,0.084,0.486,0.049l0.381,1.116c-0.154,0.075-0.282,0.189-0.354,0.337
		c-0.087,0.174-0.104,0.38-0.039,0.577l0.288,0.845c0.066,0.196,0.208,0.349,0.383,0.435c0.147,0.072,0.318,0.085,0.486,0.05
		l0.379,1.115c-0.154,0.076-0.283,0.189-0.355,0.337c-0.084,0.172-0.104,0.381-0.037,0.575l0.287,0.845
		c0.067,0.196,0.211,0.35,0.383,0.436c0.147,0.072,0.318,0.083,0.486,0.049l0.381,1.117c-0.154,0.074-0.282,0.188-0.354,0.335
		c-0.086,0.175-0.105,0.381-0.038,0.577l0.287,0.845c0.065,0.198,0.209,0.351,0.383,0.435c0.148,0.072,0.317,0.084,0.486,0.051
		l0.38,1.114c-0.154,0.076-0.282,0.189-0.355,0.337c-0.086,0.174-0.104,0.379-0.037,0.578l0.287,0.842
		c0.066,0.197,0.209,0.35,0.383,0.436c0.147,0.073,0.318,0.084,0.486,0.05l0.38,1.116c-0.154,0.075-0.282,0.188-0.354,0.335
		c-0.035,0.071-0.051,0.149-0.063,0.229c-3.357-0.557-8.725-0.919-14.795-0.919c-1.854,0-3.642,0.034-5.33,0.097
		c0.019-0.049,0.042-0.095,0.049-0.15l0.1-0.807c0.023-0.188-0.023-0.374-0.122-0.522c-0.083-0.125-0.205-0.213-0.343-0.263
		l0.133-1.068c0.143,0.011,0.279-0.021,0.388-0.104c0.13-0.1,0.22-0.256,0.243-0.444l0.102-0.807
		c0.023-0.188-0.025-0.374-0.123-0.522c-0.084-0.125-0.205-0.213-0.344-0.263l0.133-1.067c0.143,0.012,0.279-0.021,0.388-0.104
		c0.129-0.101,0.221-0.257,0.245-0.445l0.1-0.806c0.023-0.188-0.025-0.375-0.123-0.523c-0.084-0.125-0.206-0.212-0.344-0.263
		l0.133-1.067c0.143,0.011,0.279-0.021,0.389-0.104c0.129-0.099,0.219-0.257,0.242-0.444l0.102-0.807
		c0.022-0.188-0.025-0.374-0.125-0.521c-0.082-0.127-0.204-0.214-0.342-0.265l0.133-1.067c0.144,0.012,0.28-0.021,0.389-0.104
		c0.129-0.099,0.22-0.255,0.243-0.443l0.101-0.807c0.023-0.188-0.025-0.374-0.124-0.523c-0.083-0.125-0.204-0.213-0.343-0.263
		l0.133-1.069c0.143,0.011,0.28-0.021,0.389-0.104c0.129-0.099,0.221-0.255,0.244-0.443l0.1-0.807
		c0.023-0.188-0.025-0.374-0.123-0.523c-0.082-0.125-0.205-0.212-0.344-0.262l0.134-1.068c0.143,0.011,0.28-0.021,0.389-0.104
		c0.129-0.098,0.22-0.255,0.243-0.443l0.1-0.807c0.024-0.188-0.023-0.375-0.121-0.522c-0.083-0.126-0.206-0.214-0.345-0.264
		l0.133-1.068c0.144,0.011,0.281-0.021,0.39-0.105c0.127-0.098,0.219-0.254,0.242-0.442l0.102-0.807
		c0.023-0.188-0.025-0.375-0.124-0.523c-0.083-0.127-0.205-0.213-0.343-0.263l0.133-1.068c0.143,0.011,0.279-0.021,0.387-0.105
		c0.128-0.098,0.223-0.254,0.245-0.442l0.101-0.807c0.022-0.188-0.026-0.375-0.123-0.523c-0.084-0.126-0.206-0.213-0.344-0.262
		l0.133-1.069c0.143,0.011,0.28-0.02,0.389-0.104c0.129-0.1,0.221-0.256,0.244-0.444l0.1-0.807c0.023-0.188-0.025-0.375-0.123-0.522
		c-0.084-0.126-0.205-0.213-0.343-0.263l0.133-1.068c0.143,0.011,0.279-0.021,0.388-0.104c0.129-0.099,0.219-0.255,0.242-0.444
		l0.102-0.806c0.022-0.188-0.025-0.375-0.125-0.522c-0.082-0.127-0.204-0.214-0.342-0.264l0.133-1.068
		c0.144,0.011,0.28-0.021,0.389-0.105c0.129-0.099,0.221-0.255,0.244-0.443l0.1-0.807c0.023-0.188-0.025-0.375-0.123-0.522
		c-0.083-0.127-0.205-0.215-0.344-0.264l0.133-1.067c0.142,0.011,0.279-0.021,0.389-0.106c0.129-0.099,0.221-0.255,0.244-0.443
		l0.1-0.807c0.023-0.188-0.024-0.374-0.122-0.522c-0.083-0.126-0.206-0.214-0.345-0.263l0.134-1.067
		c0.144,0.01,0.281-0.021,0.39-0.104c0.128-0.099,0.219-0.256,0.242-0.444l0.068-0.545l0.264,0.774
		c0.066,0.196,0.209,0.348,0.383,0.434c0.146,0.073,0.318,0.084,0.486,0.05l0.38,1.115
		C121.464,22.992,121.335,23.105,121.264,23.254z M123.682,27.845l-0.152,0.051c-0.073,0.025-0.105,0.105-0.111,0.193
		c-0.064,0.009-0.131,0.015-0.188-0.013c-0.073-0.037-0.133-0.1-0.162-0.184l-0.287-0.844c-0.028-0.084-0.021-0.172,0.016-0.244
		c0.026-0.052,0.08-0.082,0.13-0.114c0.057,0.089,0.146,0.147,0.232,0.117l0.149-0.05c0.078-0.027,0.11-0.111,0.113-0.203
		c0.03,0.005,0.064-0.007,0.092,0.006c0.073,0.037,0.133,0.101,0.16,0.184l0.288,0.844c0.027,0.083,0.021,0.171-0.017,0.245
		c-0.016,0.032-0.054,0.044-0.078,0.069C123.812,27.853,123.746,27.822,123.682,27.845z M124.657,29.918
		c0.073,0.036,0.135,0.1,0.161,0.183l0.289,0.844c0.027,0.084,0.02,0.172-0.017,0.245c-0.016,0.031-0.054,0.044-0.079,0.07
		c-0.056-0.05-0.121-0.08-0.188-0.059l-0.149,0.053c-0.075,0.024-0.106,0.104-0.112,0.192c-0.064,0.009-0.131,0.016-0.187-0.012
		c-0.075-0.037-0.135-0.102-0.163-0.185l-0.287-0.844c-0.029-0.082-0.02-0.17,0.016-0.245c0.025-0.051,0.079-0.081,0.129-0.112
		c0.058,0.09,0.146,0.147,0.232,0.118l0.15-0.052c0.077-0.026,0.109-0.11,0.113-0.202C124.597,29.917,124.63,29.904,124.657,29.918z
		 M125.969,34.56l-0.15,0.051c-0.074,0.026-0.105,0.105-0.112,0.192c-0.064,0.009-0.131,0.016-0.187-0.013
		c-0.072-0.036-0.133-0.1-0.162-0.183l-0.287-0.844c-0.027-0.084-0.021-0.172,0.017-0.245c0.025-0.051,0.078-0.081,0.128-0.113
		c0.057,0.09,0.146,0.147,0.232,0.118l0.15-0.051c0.078-0.026,0.109-0.111,0.112-0.204c0.03,0.005,0.064-0.008,0.092,0.006
		c0.073,0.037,0.134,0.102,0.162,0.185l0.287,0.843c0.028,0.083,0.021,0.171-0.017,0.245c-0.016,0.032-0.054,0.044-0.079,0.07
		C126.099,34.567,126.033,34.537,125.969,34.56z M127.113,37.917l-0.15,0.052c-0.075,0.025-0.107,0.104-0.113,0.192
		c-0.064,0.008-0.131,0.016-0.186-0.013c-0.075-0.035-0.135-0.1-0.164-0.184l-0.286-0.844c-0.028-0.083-0.021-0.17,0.017-0.244
		c0.025-0.051,0.079-0.081,0.128-0.113c0.058,0.09,0.146,0.148,0.232,0.118l0.151-0.051c0.077-0.027,0.109-0.111,0.111-0.204
		c0.031,0.005,0.064-0.007,0.092,0.006c0.074,0.036,0.135,0.1,0.162,0.183l0.287,0.845c0.028,0.083,0.02,0.171-0.017,0.244
		c-0.016,0.031-0.054,0.044-0.079,0.069C127.244,37.924,127.179,37.894,127.113,37.917z M128.257,41.274l-0.151,0.051
		c-0.073,0.025-0.105,0.105-0.111,0.194c-0.064,0.008-0.13,0.014-0.186-0.013c-0.074-0.037-0.136-0.101-0.162-0.184l-0.289-0.845
		c-0.027-0.083-0.02-0.171,0.018-0.244c0.025-0.05,0.078-0.08,0.127-0.112c0.058,0.089,0.146,0.147,0.232,0.117l0.152-0.051
		c0.077-0.026,0.108-0.111,0.111-0.204c0.03,0.005,0.064-0.008,0.092,0.006c0.074,0.035,0.135,0.1,0.162,0.184l0.287,0.844
		c0.027,0.083,0.021,0.171-0.016,0.244c-0.016,0.032-0.055,0.044-0.08,0.069C128.388,41.282,128.322,41.252,128.257,41.274z
		 M129.4,44.632l-0.15,0.052c-0.074,0.025-0.105,0.104-0.111,0.192c-0.064,0.009-0.131,0.016-0.188-0.012
		c-0.073-0.036-0.133-0.101-0.162-0.185l-0.287-0.843c-0.027-0.083-0.021-0.171,0.018-0.245c0.025-0.051,0.079-0.081,0.128-0.113
		c0.058,0.089,0.146,0.147,0.232,0.118l0.149-0.052c0.077-0.026,0.11-0.11,0.113-0.202c0.03,0.005,0.064-0.007,0.092,0.006
		c0.072,0.037,0.133,0.101,0.16,0.184l0.289,0.844c0.027,0.083,0.02,0.171-0.018,0.244c-0.016,0.031-0.054,0.044-0.078,0.07
		C129.531,44.64,129.467,44.61,129.4,44.632z M130.546,47.99l-0.151,0.051c-0.074,0.025-0.105,0.104-0.111,0.193
		c-0.064,0.009-0.131,0.015-0.188-0.013c-0.072-0.037-0.134-0.101-0.162-0.184l-0.287-0.844c-0.028-0.083-0.021-0.171,0.017-0.244
		c0.025-0.051,0.079-0.081,0.128-0.113c0.058,0.09,0.146,0.147,0.232,0.118l0.149-0.051c0.078-0.026,0.11-0.111,0.113-0.204
		c0.03,0.005,0.064-0.008,0.092,0.006c0.074,0.036,0.134,0.101,0.161,0.184l0.288,0.844c0.028,0.083,0.021,0.171-0.017,0.245
		c-0.016,0.032-0.054,0.044-0.079,0.069C130.676,47.997,130.61,47.967,130.546,47.99z M131.689,51.348l-0.151,0.051
		c-0.075,0.026-0.106,0.105-0.112,0.193c-0.064,0.009-0.131,0.016-0.187-0.013c-0.073-0.035-0.134-0.101-0.162-0.185l-0.287-0.844
		c-0.028-0.083-0.021-0.171,0.017-0.244c0.026-0.053,0.079-0.083,0.129-0.115c0.057,0.09,0.145,0.149,0.231,0.119l0.151-0.052
		c0.077-0.026,0.109-0.11,0.111-0.202c0.031,0.005,0.064-0.007,0.092,0.006c0.074,0.037,0.135,0.101,0.162,0.184l0.289,0.845
		c0.026,0.083,0.019,0.17-0.018,0.243c-0.016,0.032-0.054,0.044-0.079,0.069C131.82,51.354,131.755,51.325,131.689,51.348z
		 M132.666,53.42c0.074,0.036,0.134,0.102,0.161,0.184l0.289,0.844c0.028,0.084,0.021,0.172-0.017,0.246
		c-0.016,0.032-0.054,0.045-0.079,0.069c-0.056-0.05-0.121-0.081-0.187-0.058l-0.15,0.05c-0.075,0.026-0.107,0.105-0.113,0.194
		c-0.064,0.008-0.131,0.015-0.187-0.014c-0.073-0.037-0.134-0.1-0.161-0.183l-0.287-0.845c-0.028-0.084-0.021-0.172,0.016-0.244
		c0.024-0.051,0.078-0.08,0.128-0.112c0.058,0.089,0.146,0.146,0.233,0.117l0.149-0.051c0.078-0.027,0.11-0.111,0.113-0.204
		C132.605,53.419,132.639,53.406,132.666,53.42z M133.979,58.063l-0.15,0.053c-0.075,0.024-0.107,0.104-0.113,0.191
		c-0.064,0.009-0.131,0.016-0.188-0.013c-0.074-0.037-0.135-0.103-0.162-0.185l-0.287-0.844c-0.029-0.084-0.02-0.17,0.018-0.244
		c0.025-0.052,0.078-0.082,0.127-0.113c0.058,0.089,0.146,0.147,0.232,0.117l0.15-0.051c0.078-0.027,0.11-0.11,0.113-0.203
		c0.03,0.005,0.064-0.008,0.092,0.006c0.072,0.037,0.133,0.101,0.162,0.184l0.286,0.844c0.028,0.084,0.021,0.172-0.016,0.244
		c-0.016,0.032-0.054,0.045-0.079,0.07C134.107,58.069,134.043,58.04,133.979,58.063z M135.122,61.421l-0.151,0.05
		c-0.075,0.026-0.106,0.105-0.112,0.193c-0.063,0.009-0.13,0.017-0.187-0.014c-0.072-0.035-0.134-0.1-0.162-0.184l-0.287-0.843
		c-0.027-0.084-0.021-0.172,0.016-0.245c0.025-0.052,0.079-0.081,0.129-0.113c0.058,0.09,0.147,0.147,0.234,0.118l0.149-0.051
		c0.078-0.026,0.11-0.111,0.112-0.204c0.03,0.005,0.063-0.008,0.091,0.006c0.073,0.037,0.133,0.102,0.162,0.186l0.288,0.843
		c0.027,0.083,0.02,0.171-0.018,0.246c-0.015,0.031-0.053,0.044-0.078,0.068C135.253,61.428,135.188,61.398,135.122,61.421z
		 M113.766,62.775c-0.041-0.063-0.063-0.144-0.053-0.223l0.102-0.806c0.01-0.08,0.049-0.146,0.103-0.188
		c0.021-0.016,0.05-0.008,0.074-0.017c0.017,0.085,0.057,0.158,0.125,0.172l0.132,0.028c0.076,0.018,0.139-0.046,0.172-0.134
		c0.045,0.022,0.093,0.042,0.121,0.085c0.042,0.063,0.063,0.142,0.053,0.222l-0.101,0.808c-0.011,0.078-0.05,0.146-0.104,0.188
		c-0.053,0.042-0.123,0.061-0.197,0.044l-0.25-0.054C113.87,62.884,113.807,62.838,113.766,62.775z M114.39,58.335
		c0.018,0.083,0.058,0.155,0.126,0.171l0.131,0.028c0.076,0.017,0.139-0.047,0.172-0.136c0.045,0.023,0.093,0.044,0.121,0.086
		c0.041,0.063,0.063,0.144,0.053,0.223l-0.1,0.807c-0.01,0.08-0.049,0.146-0.104,0.188c-0.04,0.031-0.095,0.033-0.147,0.034
		c-0.019-0.079-0.057-0.147-0.123-0.162l-0.133-0.029c-0.058-0.012-0.106,0.023-0.144,0.076c-0.025-0.021-0.058-0.027-0.076-0.055
		c-0.041-0.063-0.063-0.142-0.052-0.221l0.1-0.807c0.01-0.081,0.049-0.146,0.104-0.188C114.337,58.336,114.366,58.344,114.39,58.335
		z M114.789,55.126c0.018,0.083,0.057,0.155,0.125,0.171l0.131,0.028c0.076,0.019,0.14-0.047,0.173-0.137
		c0.045,0.024,0.093,0.045,0.122,0.087c0.041,0.064,0.063,0.144,0.053,0.223l-0.101,0.809c-0.01,0.08-0.049,0.145-0.103,0.188
		c-0.042,0.031-0.097,0.033-0.15,0.034c-0.019-0.079-0.058-0.147-0.124-0.163l-0.132-0.028c-0.057-0.013-0.105,0.023-0.144,0.075
		c-0.024-0.02-0.058-0.026-0.075-0.053c-0.041-0.064-0.063-0.143-0.053-0.223l0.1-0.807c0.011-0.079,0.049-0.146,0.104-0.188
		C114.734,55.126,114.765,55.135,114.789,55.126z M115.187,51.917c0.018,0.084,0.058,0.157,0.126,0.172l0.131,0.027
		c0.076,0.019,0.139-0.046,0.172-0.136c0.045,0.023,0.093,0.044,0.123,0.088c0.041,0.064,0.063,0.143,0.053,0.224l-0.102,0.806
		c-0.01,0.08-0.049,0.145-0.103,0.188c-0.041,0.032-0.096,0.034-0.149,0.033c-0.019-0.079-0.058-0.147-0.123-0.163l-0.131-0.028
		c-0.058-0.013-0.106,0.023-0.145,0.076c-0.025-0.02-0.059-0.026-0.076-0.054c-0.043-0.063-0.063-0.143-0.054-0.221l0.101-0.808
		c0.012-0.08,0.051-0.147,0.104-0.188C115.134,51.918,115.163,51.926,115.187,51.917z M115.585,48.708
		c0.018,0.083,0.058,0.156,0.126,0.171l0.131,0.028c0.076,0.017,0.14-0.047,0.172-0.136c0.046,0.023,0.095,0.044,0.123,0.088
		c0.041,0.063,0.063,0.142,0.053,0.222l-0.101,0.806c-0.01,0.08-0.049,0.145-0.104,0.188c-0.04,0.032-0.095,0.033-0.148,0.033
		c-0.02-0.08-0.058-0.147-0.124-0.162l-0.131-0.028c-0.057-0.013-0.105,0.022-0.145,0.075c-0.024-0.02-0.058-0.027-0.075-0.054
		c-0.041-0.064-0.063-0.143-0.053-0.222l0.101-0.806c0.009-0.081,0.049-0.145,0.103-0.188
		C115.532,48.709,115.562,48.717,115.585,48.708z M115.984,45.5c0.018,0.083,0.057,0.156,0.125,0.171l0.133,0.029
		c0.075,0.016,0.138-0.048,0.17-0.137c0.046,0.023,0.094,0.044,0.123,0.088c0.041,0.063,0.063,0.142,0.053,0.222l-0.102,0.806
		c-0.01,0.08-0.049,0.146-0.104,0.188c-0.04,0.031-0.095,0.033-0.147,0.034c-0.02-0.08-0.059-0.148-0.124-0.163l-0.133-0.028
		c-0.057-0.013-0.105,0.023-0.144,0.077c-0.024-0.021-0.058-0.027-0.076-0.055c-0.041-0.064-0.062-0.142-0.052-0.221l0.1-0.807
		c0.012-0.081,0.049-0.146,0.104-0.188C115.932,45.501,115.961,45.509,115.984,45.5z M117.182,35.874
		c0.017,0.083,0.057,0.157,0.125,0.172l0.131,0.028c0.076,0.016,0.139-0.047,0.172-0.136c0.045,0.023,0.093,0.043,0.123,0.087
		c0.041,0.063,0.063,0.142,0.053,0.221l-0.102,0.807c-0.01,0.08-0.049,0.146-0.104,0.188c-0.041,0.032-0.095,0.033-0.147,0.034
		c-0.02-0.08-0.059-0.148-0.124-0.163l-0.133-0.028c-0.058-0.012-0.105,0.024-0.144,0.077c-0.025-0.02-0.059-0.027-0.076-0.054
		c-0.041-0.064-0.063-0.142-0.052-0.223l0.1-0.806c0.01-0.081,0.051-0.145,0.104-0.188
		C117.128,35.875,117.157,35.883,117.182,35.874z M116.782,39.083c0.018,0.084,0.058,0.157,0.125,0.171l0.132,0.028
		c0.076,0.017,0.139-0.047,0.172-0.135c0.045,0.023,0.093,0.043,0.121,0.086c0.041,0.064,0.063,0.142,0.052,0.221l-0.1,0.807
		c-0.009,0.081-0.048,0.146-0.104,0.188c-0.04,0.033-0.095,0.035-0.147,0.035c-0.02-0.08-0.058-0.148-0.123-0.162l-0.132-0.028
		c-0.058-0.013-0.106,0.022-0.144,0.075c-0.025-0.02-0.059-0.027-0.077-0.054c-0.041-0.063-0.063-0.142-0.053-0.222l0.102-0.806
		c0.01-0.08,0.049-0.146,0.103-0.188C116.729,39.083,116.758,39.091,116.782,39.083z M116.383,42.291
		c0.017,0.084,0.057,0.157,0.124,0.172l0.134,0.028c0.075,0.017,0.139-0.047,0.171-0.136c0.045,0.022,0.094,0.043,0.122,0.085
		c0.043,0.065,0.063,0.142,0.053,0.222l-0.1,0.807c-0.011,0.081-0.05,0.146-0.104,0.188c-0.04,0.032-0.095,0.034-0.148,0.035
		c-0.019-0.079-0.058-0.147-0.122-0.162l-0.134-0.028c-0.057-0.013-0.105,0.022-0.144,0.075c-0.024-0.02-0.058-0.027-0.075-0.054
		c-0.042-0.064-0.063-0.142-0.054-0.222l0.102-0.807c0.01-0.079,0.049-0.145,0.104-0.188
		C116.33,42.292,116.359,42.299,116.383,42.291z M117.58,32.666c0.017,0.084,0.057,0.157,0.125,0.171l0.131,0.029
		c0.076,0.017,0.139-0.048,0.172-0.136c0.046,0.023,0.094,0.043,0.123,0.087c0.042,0.064,0.063,0.142,0.053,0.221l-0.101,0.808
		c-0.01,0.079-0.049,0.146-0.103,0.188c-0.042,0.032-0.097,0.034-0.15,0.034c-0.02-0.08-0.059-0.149-0.124-0.163l-0.131-0.028
		c-0.058-0.012-0.105,0.023-0.144,0.077c-0.025-0.02-0.059-0.027-0.076-0.054c-0.041-0.065-0.063-0.143-0.054-0.223l0.101-0.807
		c0.011-0.08,0.05-0.145,0.104-0.188C117.527,32.667,117.557,32.674,117.58,32.666z M117.979,29.458
		c0.018,0.084,0.057,0.157,0.125,0.171l0.131,0.028c0.076,0.018,0.14-0.047,0.172-0.136c0.045,0.023,0.093,0.044,0.123,0.088
		c0.041,0.063,0.063,0.141,0.053,0.221l-0.1,0.807c-0.012,0.079-0.049,0.146-0.104,0.188c-0.041,0.033-0.096,0.034-0.148,0.034
		c-0.02-0.08-0.058-0.148-0.124-0.163l-0.131-0.029c-0.058-0.012-0.106,0.024-0.145,0.077c-0.025-0.02-0.058-0.027-0.076-0.054
		c-0.041-0.064-0.063-0.143-0.053-0.222l0.101-0.808c0.011-0.079,0.05-0.145,0.104-0.187
		C117.926,29.459,117.955,29.466,117.979,29.458z M118.377,26.249c0.018,0.084,0.057,0.157,0.125,0.171l0.132,0.029
		c0.076,0.017,0.139-0.048,0.171-0.138c0.046,0.024,0.095,0.045,0.123,0.088c0.041,0.063,0.063,0.143,0.053,0.221l-0.101,0.807
		c-0.01,0.081-0.049,0.146-0.103,0.188c-0.041,0.033-0.097,0.035-0.15,0.034c-0.02-0.079-0.058-0.146-0.123-0.161l-0.131-0.028
		c-0.058-0.013-0.106,0.022-0.145,0.075c-0.024-0.02-0.059-0.027-0.076-0.055c-0.041-0.062-0.063-0.142-0.053-0.221l0.101-0.806
		c0.01-0.08,0.05-0.146,0.104-0.188C118.324,26.25,118.354,26.257,118.377,26.249z M119.688,20.476
		c0.061-0.186,0.04-0.379-0.036-0.545c0.023,0.02,0.057,0.026,0.073,0.052c0.041,0.063,0.063,0.142,0.053,0.222l-0.1,0.807
		c-0.011,0.079-0.049,0.145-0.104,0.188c-0.036,0.028-0.088,0.028-0.137,0.031L119.688,20.476z M118.992,20.086
		c0.054-0.015,0.097-0.049,0.132-0.104c0.05,0.031,0.104,0.06,0.129,0.112c0.039,0.073,0.047,0.161,0.021,0.245l-0.258,0.772
		c-0.021-0.018-0.05-0.023-0.065-0.046c-0.041-0.064-0.063-0.143-0.054-0.222L118.992,20.086z M118.499,24.047l0.067-0.204
		c0.044-0.134,0.037-0.268,0.008-0.397l0.025-0.2c0.008-0.08,0.049-0.147,0.103-0.188c0.021-0.016,0.05-0.008,0.073-0.017
		c0.018,0.084,0.057,0.157,0.125,0.172l0.133,0.028c0.075,0.017,0.138-0.047,0.17-0.136c0.046,0.023,0.095,0.044,0.123,0.087
		c0.042,0.063,0.063,0.143,0.054,0.222l-0.103,0.807c-0.01,0.08-0.049,0.147-0.104,0.188c-0.04,0.032-0.095,0.033-0.148,0.034
		c-0.019-0.08-0.057-0.148-0.123-0.163l-0.131-0.028c-0.058-0.012-0.106,0.023-0.145,0.076c-0.024-0.02-0.059-0.027-0.076-0.055
		c-0.042-0.062-0.063-0.141-0.053-0.221L118.499,24.047z M135.375,63.846c0.005-0.037-0.009-0.076,0.008-0.109
		c0.025-0.052,0.079-0.081,0.128-0.113c0.059,0.09,0.147,0.147,0.233,0.119l0.15-0.053c0.083-0.027,0.116-0.122,0.112-0.222
		c0.031,0.005,0.063,0.011,0.091,0.025c0.073,0.036,0.135,0.1,0.162,0.185l0.127,0.374C136.078,63.98,135.741,63.912,135.375,63.846
		z M121.393,21.13l-0.15,0.051c-0.074,0.025-0.105,0.104-0.111,0.192c-0.065,0.009-0.132,0.016-0.188-0.013
		c-0.074-0.036-0.135-0.1-0.164-0.183l-0.286-0.844c-0.028-0.084-0.021-0.172,0.016-0.245c0.026-0.051,0.079-0.081,0.129-0.113
		c0.058,0.09,0.147,0.148,0.233,0.119l0.15-0.051c0.077-0.027,0.109-0.111,0.112-0.204c0.03,0.005,0.063-0.008,0.091,0.006
		c0.074,0.036,0.135,0.101,0.162,0.184l0.287,0.844c0.028,0.082,0.02,0.171-0.017,0.245c-0.016,0.031-0.053,0.043-0.078,0.068
		C121.523,21.137,121.458,21.107,121.393,21.13z M118.537,21.814c0.126,0.024,0.249,0.016,0.366-0.02l-0.103,0.825
		c-0.116,0.006-0.228,0.034-0.318,0.104c-0.088,0.067-0.148,0.168-0.191,0.28c-0.039-0.028-0.082-0.051-0.126-0.072L118.537,21.814z
		"/>
	<path opacity="0.75" fill="#84704A" enable-background="new    " d="M63.045,69.268l1.977,3.012l-1.784-3.205l1.029-0.657
		l1.813,2.765l-1.609-2.894l2.167-1.384L64.36,68.09l-0.063-0.113l3.399-2.17l-3.576,1.858l-2.553-3.535l2.217,3.874l-0.885,0.536
		l-2.39-3.312l2.021,3.533l-2.119,1.282l2.21-1.123l0.104,0.181l-3.372,2.041L63.045,69.268z M64.104,68.169l0.026,0.04l-1.07,0.557
		l-0.033-0.049L64.104,68.169z"/>
</g>
</svg>
