<?xml version="1.0" encoding="iso-8859-1"?>
<!-- Generator: Adobe Illustrator 16.0.0, SVG Export Plug-In . SVG Version: 6.00 Build 0)  -->
<!DOCTYPE svg PUBLIC "-//W3C//DTD SVG 1.0//EN" "http://www.w3.org/TR/2001/REC-SVG-20010904/DTD/svg10.dtd">
<svg version="1.0" id="Layer_1" xmlns="http://www.w3.org/2000/svg" xmlns:xlink="http://www.w3.org/1999/xlink" x="0px" y="0px"
	 width="256px" height="256px" viewBox="0 0 256 256" enable-background="new 0 0 256 256" xml:space="preserve">
<circle fill="#8C7351" cx="127.977" cy="127.682" r="125.144"/>
<g>
	<path fill="#A2855D" d="M149.475,67.649c0.197,4.8-1.102,9-3.898,12.6c-2.805,3.6-6.254,6.253-10.352,7.95
		c-4.102,1.702-8.451,2.302-13.049,1.8c-4.603-0.497-8.602-2.55-12-6.15c-3.6-3.398-5.7-7.35-6.3-11.85c-0.6-4.5,0-8.747,1.8-12.75
		c1.8-3.998,4.547-7.298,8.25-9.9c3.698-2.597,7.95-3.797,12.75-3.6c6.399,0,11.799,2.1,16.2,6.3
		C147.271,56.249,149.475,61.452,149.475,67.649z M148.275,197.249c0,6-2.053,11.203-6.15,15.601c-4.102,4.401-9.051,6.6-14.85,6.6
		c-6.403,0-11.751-2.146-16.05-6.45c-4.303-4.298-6.45-9.548-6.45-15.75v-63.3c0-6.398,2.147-11.747,6.45-16.05
		c4.299-4.299,9.647-6.45,16.05-6.45c5.799,0,10.748,2.25,14.85,6.75c4.098,4.5,6.15,9.75,6.15,15.75V197.249z"/>
</g>
</svg>
