<?xml version="1.0" encoding="iso-8859-1"?>
<!-- Generator: Adobe Illustrator 16.0.0, SVG Export Plug-In . SVG Version: 6.00 Build 0)  -->
<!DOCTYPE svg PUBLIC "-//W3C//DTD SVG 1.0//EN" "http://www.w3.org/TR/2001/REC-SVG-20010904/DTD/svg10.dtd">
<svg version="1.0"
	 id="svg12417" sodipodi:docname="target.svg" inkscape:version="0.47pre4 r22446" xmlns:inkscape="http://www.inkscape.org/namespaces/inkscape" xmlns:svg="http://www.w3.org/2000/svg" xmlns:sodipodi="http://sodipodi.sourceforge.net/DTD/sodipodi-0.dtd" xmlns:dc="http://purl.org/dc/elements/1.1/" xmlns:rdf="http://www.w3.org/1999/02/22-rdf-syntax-ns#" xmlns:cc="http://creativecommons.org/ns#"
	 xmlns="http://www.w3.org/2000/svg" xmlns:xlink="http://www.w3.org/1999/xlink" x="0px" y="0px" width="272.48px"
	 height="272.48px" viewBox="0 0 272.48 272.48" enable-background="new 0 0 272.48 272.48" xml:space="preserve">
<defs>
	
	
		<inkscape:perspective  id="perspective12425" inkscape:persp3d-origin="372.04724 : 350.78739 : 1" sodipodi:type="inkscape:persp3d" inkscape:vp_x="0 : 526.18109 : 1" inkscape:vp_z="744.09448 : 526.18109 : 1" inkscape:vp_y="0 : 1000 : 0">
		</inkscape:perspective>
	
		<inkscape:perspective  id="perspective12947" inkscape:persp3d-origin="0.5 : 0.33333333 : 1" sodipodi:type="inkscape:persp3d" inkscape:vp_x="0 : 0.5 : 1" inkscape:vp_z="1 : 0.5 : 1" inkscape:vp_y="0 : 1000 : 0">
		</inkscape:perspective>
	
		<inkscape:perspective  id="perspective12968" inkscape:persp3d-origin="0.5 : 0.33333333 : 1" sodipodi:type="inkscape:persp3d" inkscape:vp_x="0 : 0.5 : 1" inkscape:vp_z="1 : 0.5 : 1" inkscape:vp_y="0 : 1000 : 0">
		</inkscape:perspective>
	
		<inkscape:perspective  id="perspective12990" inkscape:persp3d-origin="0.5 : 0.33333333 : 1" sodipodi:type="inkscape:persp3d" inkscape:vp_x="0 : 0.5 : 1" inkscape:vp_z="1 : 0.5 : 1" inkscape:vp_y="0 : 1000 : 0">
		</inkscape:perspective>
	
		<inkscape:perspective  id="perspective13012" inkscape:persp3d-origin="0.5 : 0.33333333 : 1" sodipodi:type="inkscape:persp3d" inkscape:vp_x="0 : 0.5 : 1" inkscape:vp_z="1 : 0.5 : 1" inkscape:vp_y="0 : 1000 : 0">
		</inkscape:perspective>
	
		<inkscape:perspective  id="perspective13034" inkscape:persp3d-origin="0.5 : 0.33333333 : 1" sodipodi:type="inkscape:persp3d" inkscape:vp_x="0 : 0.5 : 1" inkscape:vp_z="1 : 0.5 : 1" inkscape:vp_y="0 : 1000 : 0">
		</inkscape:perspective>
	
		<inkscape:perspective  id="perspective13056" inkscape:persp3d-origin="0.5 : 0.33333333 : 1" sodipodi:type="inkscape:persp3d" inkscape:vp_x="0 : 0.5 : 1" inkscape:vp_z="1 : 0.5 : 1" inkscape:vp_y="0 : 1000 : 0">
		</inkscape:perspective>
	
		<inkscape:perspective  id="perspective13078" inkscape:persp3d-origin="0.5 : 0.33333333 : 1" sodipodi:type="inkscape:persp3d" inkscape:vp_x="0 : 0.5 : 1" inkscape:vp_z="1 : 0.5 : 1" inkscape:vp_y="0 : 1000 : 0">
		</inkscape:perspective>
	
		<inkscape:perspective  id="perspective13100" inkscape:persp3d-origin="0.5 : 0.33333333 : 1" sodipodi:type="inkscape:persp3d" inkscape:vp_x="0 : 0.5 : 1" inkscape:vp_z="1 : 0.5 : 1" inkscape:vp_y="0 : 1000 : 0">
		</inkscape:perspective>
	
		<inkscape:perspective  id="perspective13122" inkscape:persp3d-origin="0.5 : 0.33333333 : 1" sodipodi:type="inkscape:persp3d" inkscape:vp_x="0 : 0.5 : 1" inkscape:vp_z="1 : 0.5 : 1" inkscape:vp_y="0 : 1000 : 0">
		</inkscape:perspective>
	
		<inkscape:perspective  id="perspective13199" inkscape:persp3d-origin="0.5 : 0.33333333 : 1" sodipodi:type="inkscape:persp3d" inkscape:vp_x="0 : 0.5 : 1" inkscape:vp_z="1 : 0.5 : 1" inkscape:vp_y="0 : 1000 : 0">
		</inkscape:perspective>
</defs>
<sodipodi:namedview  id="base" inkscape:window-maximized="1" inkscape:window-y="-3" inkscape:window-x="-4" inkscape:window-height="850" inkscape:window-width="1440" inkscape:guide-bbox="true" inkscape:current-layer="layer1" inkscape:document-units="px" inkscape:pageshadow="2" inkscape:pageopacity="0.0" showguides="true" borderopacity="1.0" showgrid="false" inkscape:zoom="1.7196837" bordercolor="#666666" pagecolor="#ffffff" inkscape:cx="136.79855" inkscape:cy="136.21703">
	</sodipodi:namedview>
<g id="layer1" transform="translate(-212.26583,-406.15602)" inkscape:groupmode="layer" inkscape:label="Layer 1" opacity="0.9">
	<g id="g13175" transform="translate(-0.55851416,-0.0229925)">
		
			<path id="path12427" sodipodi:type="arc" sodipodi:cy="557.68408" sodipodi:ry="180.62735" sodipodi:rx="180.62735" sodipodi:cx="351.13956" fill="none" stroke="#83724D" stroke-width="5.8741" stroke-linecap="round" d="
			M472.064,542.419c0,67.931-55.069,123-123,123s-123-55.069-123-123s55.069-123,123-123S472.064,474.488,472.064,542.419z"/>
		<path fill="#83724D" d="M349.064,439.919c-56.609,0-102.5,45.891-102.5,102.5s45.891,102.5,102.5,102.5s102.5-45.891,102.5-102.5
			S405.674,439.919,349.064,439.919z M349.064,632.419c-49.706,0-90-40.294-90-90c0-49.705,40.294-90,90-90s90,40.295,90,90
			C439.064,592.125,398.77,632.419,349.064,632.419z"/>
		<path fill="#83724D" d="M349.064,467.419c-41.421,0-75,33.579-75,75c0,41.422,33.579,75,75,75s75-33.578,75-75
			C424.064,500.998,390.485,467.419,349.064,467.419z M349.064,602.419c-33.137,0-60-26.863-60-60s26.863-60,60-60s60,26.863,60,60
			S382.201,602.419,349.064,602.419z"/>
		<path fill="#83724D" d="M349.064,497.419c-24.853,0-45,20.147-45,45s20.147,45,45,45s45-20.147,45-45
			S373.917,497.419,349.064,497.419z M349.064,572.419c-16.568,0-30-13.432-30-30s13.432-30,30-30s30,13.432,30,30
			S365.633,572.419,349.064,572.419z"/>
		
			<path id="path12427-9-3-9-8-2-3" sodipodi:type="arc" sodipodi:cy="557.68408" sodipodi:ry="180.62735" sodipodi:rx="180.62735" sodipodi:cx="351.13956" fill="#83724D" d="
			M364.064,542.419c0,8.284-6.716,15-15,15s-15-6.716-15-15s6.716-15,15-15S364.064,534.135,364.064,542.419z"/>
	</g>
	<path id="path13189" fill="none" stroke="#000000" stroke-width="1.5" d="M213.016,542.396h270.98"/>
	<path id="path13189-0" fill="none" stroke="#000000" stroke-width="1.5" d="M348.506,406.906v270.98"/>
</g>
</svg>
