<?xml version="1.0" encoding="iso-8859-1"?>
<!-- Generator: Adobe Illustrator 16.0.0, SVG Export Plug-In . SVG Version: 6.00 Build 0)  -->
<!DOCTYPE svg PUBLIC "-//W3C//DTD SVG 1.0//EN" "http://www.w3.org/TR/2001/REC-SVG-20010904/DTD/svg10.dtd">
<svg version="1.0" id="Layer_1" xmlns="http://www.w3.org/2000/svg" xmlns:xlink="http://www.w3.org/1999/xlink" x="0px" y="0px"
	 width="145px" height="95px" viewBox="0 0 145 95" enable-background="new 0 0 145 95" xml:space="preserve">
<g opacity="0.6">
	<path fill-rule="evenodd" clip-rule="evenodd" fill="#554235" d="M131.224,29.168c-0.594-3.762-4.356-9.901-8.317-13.862
		c-5.545-5.941-11.485-8.317-16.041-10.1c-7.723-2.971-14.456-3.961-23.962-3.762c-13.269,0.395-22.576,0.99-34.458,4.554
		C36.762,9.365,13.79,20.059,11.611,20.851c-1.98,0.99-4.753,3.565,0.396,1.188c5.347-2.178,24.556-11.288,36.834-14.853
		c12.08-3.565,24.754-4.357,34.26-4.357s17.823,1.782,23.566,3.961c6.139,2.376,11.287,6.139,15.05,10.297
		c2.971,3.565,7.327,10.298,8.317,12.873C130.63,31.545,131.422,30.951,131.224,29.168L131.224,29.168z"/>
	<path fill-rule="evenodd" clip-rule="evenodd" fill="#3F2F24" d="M139.541,60.854c-3.366-1.188-17.031-16.436-22.18-21.189
		C111.421,34.516,98.548,26,89.438,22.436c-8.911-3.565-18.813-3.565-23.566-3.762c-4.752,0-16.239,0.792-25.15,3.564
		c-8.912,2.772-30.696,16.04-38.221,19.21c-0.99,0.395-1.98,2.375-0.198,2.574c1.584,0.197,4.555,2.375,7.723,6.732
		c6.337,8.318,19.408,19.408,28.121,22.773c8.318,3.17,24.161,2.773,31.686,1.98c7.525-0.99,23.765-5.545,29.705-7.129
		c5.941-1.584,20.794-2.377,23.962-2.377c3.169,0,12.278,0.199,16.438,0.396C143.502,66.795,143.7,62.438,139.541,60.854z
		 M131.817,64.617c-2.376-0.396-11.684-0.596-17.229-0.596c-8.12-0.197-20.991,2.377-26.933,4.16
		c-8.714,2.771-20.991,3.762-28.517,3.564c-9.506-0.396-15.645-3.367-20.992-5.744c-6.931-2.971-16.635-12.475-19.011-15.645
		c-3.168-3.762-6.733-6.535-9.11-7.326c-1.188-0.396-0.792-2.178,0-2.377c7.724-3.367,21.586-12.674,31.488-15.248
		c5.941-1.387,16.437-2.773,22.774-2.575c11.288,0.396,22.774,5.346,29.705,9.307c9.308,5.348,15.446,10.1,22.774,16.635
		c7.327,6.338,14.06,12.08,15.842,12.873C134.393,62.637,133.996,64.814,131.817,64.617z"/>
	<path fill-rule="evenodd" clip-rule="evenodd" fill="#C2B59B" d="M97.162,66.002c-3.763,0.596-7.129,1.584-9.506,2.18
		c-8.714,2.771-20.991,3.762-28.517,3.564c-2.772,0-5.149-0.396-7.328-0.793l0,0c-6.337-5.742-10.297-13.861-10.297-23.17
		c0-9.9,4.555-18.813,11.882-24.357l0,0c3.961-0.396,7.921-0.792,10.892-0.594c11.288,0.396,22.774,5.346,29.705,9.307
		c2.377,1.387,4.753,2.773,6.932,4.158l0,0c1.386,3.566,2.179,7.525,2.179,11.486C103.104,54.518,100.925,60.854,97.162,66.002
		L97.162,66.002L97.162,66.002z"/>
	<path fill-rule="evenodd" clip-rule="evenodd" fill="#554235" d="M119.144,78.678c-2.376-1.387-9.901-1.189-12.872,0.197
		c-5.545,2.377-14.457,7.129-19.012,8.912c-3.763,1.385-7.326,2.375-15.446,3.365c-8.317,0.99-27.328,0.396-28.913,0.199
		c-1.584-0.396-2.772,0.791,0,1.188c3.367,0.396,25.744,0.99,29.507,0.594c5.348-0.197,11.882-1.385,16.438-3.168
		c5.347-1.98,12.476-4.754,18.813-7.922c3.168-1.781,7.921-2.375,10.891-1.781C120.53,80.459,120.332,79.271,119.144,78.678
		L119.144,78.678z"/>
	<path fill-rule="evenodd" clip-rule="evenodd" fill="#594A42" d="M55.971,47.783c0-8.91,7.328-16.238,16.239-16.238
		c8.911,0,16.238,7.328,16.238,16.238c0,8.912-7.327,16.238-16.238,16.238C63.298,64.021,55.971,56.695,55.971,47.783L55.971,47.783
		z"/>
	<path fill-rule="evenodd" clip-rule="evenodd" fill="#FFFFFF" d="M62.308,40.854c0-2.377,1.98-4.557,4.555-4.557
		c2.376,0,4.554,2.18,4.554,4.557c0,2.574-2.178,4.752-4.554,4.752C64.289,45.605,62.308,43.428,62.308,40.854L62.308,40.854z"/>
</g>
</svg>
