<?xml version="1.0" encoding="iso-8859-1"?>
<!-- Generator: Adobe Illustrator 16.0.0, SVG Export Plug-In . SVG Version: 6.00 Build 0)  -->
<!DOCTYPE svg PUBLIC "-//W3C//DTD SVG 1.0//EN" "http://www.w3.org/TR/2001/REC-SVG-20010904/DTD/svg10.dtd">
<svg version="1.0" id="Layer_1" xmlns="http://www.w3.org/2000/svg" xmlns:xlink="http://www.w3.org/1999/xlink" x="0px" y="0px"
	 width="256px" height="256px" viewBox="0 0 256 256" enable-background="new 0 0 256 256" xml:space="preserve">
<circle fill="#DABD8E" cx="127.977" cy="127.682" r="125.144"/>
<path fill-rule="evenodd" clip-rule="evenodd" fill="#C9AE82" d="M129.983,194.8c-14.12-4.171-18.462-1.735-17.809,2.988
	c1.208,8.887,7.333,11.8,2.351,22.335c-8.537,18.063-38.757,9.131-36.111-10.668c1.553-11.554,8.281-10.665,14.133-17.469
	c3.104-3.616,0.78-8.021-13.331-12.189L39.849,168.16l11.636-39.364c4.172-14.116,8.564-16.441,12.185-13.322
	c6.796,5.85,5.915,12.569,17.468,14.115c19.795,2.649,28.727-27.569,10.672-36.107c-10.539-4.979-13.458,1.151-22.339,2.365
	c-4.727,0.64-7.153-3.7-2.978-17.823l11.634-39.358l39.367,11.636c14.111,4.173,16.438,8.57,13.331,12.187
	c-5.852,6.797-12.58,5.916-14.132,17.471c-2.644,19.791,27.576,28.724,36.113,10.672c4.983-10.547-1.149-13.462-2.36-22.341
	c-0.644-4.726,3.7-7.156,17.818-2.979l39.355,11.632l-11.636,39.367c-4.176,14.113-1.744,18.454,2.985,17.815
	c8.89-1.211,11.803-7.342,22.335-2.366c18.062,8.542,9.131,38.762-10.672,36.108c-11.551-1.543-10.671-8.268-17.468-14.114
	c-3.615-3.121-8.013-0.795-12.186,13.321l-11.636,39.36L129.983,194.8z"/>
</svg>
