<?xml version="1.0" encoding="iso-8859-1"?>
<!-- Generator: Adobe Illustrator 16.0.0, SVG Export Plug-In . SVG Version: 6.00 Build 0)  -->
<!DOCTYPE svg PUBLIC "-//W3C//DTD SVG 1.0//EN" "http://www.w3.org/TR/2001/REC-SVG-20010904/DTD/svg10.dtd">
<svg version="1.0" id="Layer_1" xmlns="http://www.w3.org/2000/svg" xmlns:xlink="http://www.w3.org/1999/xlink" x="0px" y="0px"
	 width="256px" height="256px" viewBox="0 0 256 256" enable-background="new 0 0 256 256" xml:space="preserve">
<circle fill="#DDC7A7" cx="127.977" cy="127.682" r="125.144"/>
<g opacity="0.25">
	<path fill="#333333" d="M156.41,189.771c0,0,0.442,11.322,0.442,14.213c0,2.894,0.36,7.153-0.181,7.58
		c-0.532,0.422,1.08,4.255-0.711,4.851c-1.791,0.594-6.354,1.108-7.165,0.255c-0.807-0.851-1.077-1.79-2.323-0.851
		c-1.252,0.934-5.642,3.572-11.817,3.572c-6.182,0-7.969-1.104-9.313-1.617c-1.344-0.51-0.085-3.15,1.075-3.15
		c1.164,0,7.076,0.086,9.849-2.211c2.774-2.295,2.774-5.449,3.581-6.128c0.804-0.679-0.094-1.022-0.094-3.918
		c0-2.891,0.717-8.085,1.167-9.79c0.449-1.701-0.36-7.32-0.36-10.383s-0.623-13.448-0.713-18.133
		c-0.094-4.681-1.616-9.873-2.24-15.153c-0.623-5.276-1.431-10.211-1.431-12.764c0-2.555,0-4.086,0-4.086s-1.072-0.428-0.987-1.787
		c0.09-1.365,0-12.771,0.271-18.13c0.268-5.366,1.344-11.664,1.344-12.003c0-0.343-2.687-1.532-3.939-1.962
		c-1.252-0.424-4.924-0.509-6-0.936c-1.072-0.425-2.865-2.466-3.219-6.041c-0.361-3.577-0.542-6.47,0.354-8.429
		c0.899-1.956,2.688-4.851,4.208-9.194c1.524-4.34,0.985-7.4,2.147-10.381c1.168-2.98,1.881-6.214,8.236-8.854
		c6.36-2.637,10.025-4.424,10.025-4.424s0.093-3.064,0.63-3.492c0.538-0.427,1.167-1.448,0.538-2.98
		c-0.634-1.533-1.256-3.659-1.256-4.512s-7.696-20.34,5.643-20.513c13.337-0.168,12.444,6.896,12.53,9.194
		c0.095,2.296-1.61,9.106-2.235,11.658c-0.629,2.557-1.162,5.364-0.448,6.299c0.719,0.936,1.969,2.727,7.611,5.878
		c5.639,3.149,11.818,3.743,10.292,11.234c-1.522,7.49-3.044,11.49-4.924,16.599c-1.882,5.109-4.023,7.151-4.117,9.79
		c-0.087,2.639,1.253,12.853,2.057,18.385c0.812,5.533,1.796,13.707,1.881,17.281c0.091,3.573,0.9,4.767-0.085,5.448
		c-0.984,0.682-0.807,0.51-0.718,1.613c0.091,1.109,1.965,13.367,1.965,16.855c0,3.492,0.632,5.96,0.99,9.027
		c0.357,3.063,2.057,15.826,2.236,21.535c0.181,5.703-0.986,16.682-2.329,20.935c-1.34,4.261-1.253,7.409-0.897,9.11
		c0.364,1.706,1.616,4.94,1.616,6.981c0,2.044,0.361,3.746,0.361,3.746s0.267,1.956-0.096,2.382
		c-0.354,0.427-4.471,1.871-4.654,1.616c-0.176-0.253-0.625-1.531-1.341-0.421c-0.716,1.107-3.758,3.233-6.086,3.659
		c-2.331,0.423-7.256,0.594-10.382-0.17c-3.14-0.769-6.091-1.531-4.211-4.088c1.879-2.556,4.745-1.275,7.427-3.745
		c2.689-2.47,2.865-3.829,2.511-5.449c-0.363-1.617-0.361-9.62-0.448-11.492c-0.093-1.87-1.434-23.918-1.434-27.493
		s-1.166-16.425-1.166-19.493c0-3.063-0.181-5.532-0.715-7.063c-0.534-1.533-0.629-2.383-0.629-2.383s-0.174,3.232-0.174,6.125
		c0,2.897-0.094,6.557-0.807,14.47C157.033,174.364,156.41,184.068,156.41,189.771z"/>
	<path fill="#FFFFFF" d="M147.365,71.28c0,0,8.061-17.112,17.725-24.688c0,0-1.434-0.849-1.52-1.872c0,0-9.218,6.214-9.847,6.812
		c-0.627,0.598-0.716,0.423-1.165,0c-0.449-0.427-3.313-5.107-3.313-5.107s-0.718,2.725-0.63,3.492
		C148.708,50.681,147.005,67.022,147.365,71.28z"/>
	<path fill="#CCCCCC" d="M147.139,71.619c0,0,5.98-9.634,5.778-14.809c0.068-1.915,0.27-3.194,0.27-3.194s1.679-1.021,1.207-1.786
		c-0.467-0.768-2.15-1.342-2.819,1.275c0.399,1.213-3.891,4.469-4.098,9.069L147.139,71.619z"/>
	<polygon fill="#010101" points="154.08,51.43 154.17,51.331 157.858,54.268 157.773,54.366 154.08,51.43 	"/>
	<polygon fill="#010101" points="148.369,54.397 152.132,51.077 152.228,51.174 148.461,54.494 148.369,54.397 	"/>
	<path fill="#FFFFFF" d="M137.701,88.986c0,0-0.448,0.085-0.807-0.171c-0.355-0.255,1.342-6.045,2.322-6.896
		c0.986-0.85,1.434-0.425,1.434-0.425S137.518,87.115,137.701,88.986z"/>
	<path fill="#FFFFFF" d="M145.395,93.243c0,0,0.089,3.659,0.089,4.423c0,0.769,1.521,0.682,1.521,0.682l-0.085-6.896L145.395,93.243
		z"/>
</g>
<g opacity="0.25">
	<g>
		<path fill="#333333" d="M82.437,215.369c0,0-3.292,8.935-1.41,11.377c1.882,2.446,3.573,4.892,5.361,3.386
			c1.788-1.501,4.323-3.574,4.323-6.769c0-3.195-0.47-4.611,0.658-4.14c1.125,0.471,6.488,0.66,9.027,0.66
			c2.535,0,3.009-0.474,1.692-1.132c-1.316-0.659-7.429-3.383-8.084-8.553c-0.66-5.176-2.167-10.25,0.56-18.618
			c2.73-8.372,3.576-13.543,4.327-17.398c1.412-9.965,0.941-9.871,2.915-10.903c0,0,1.316-0.941,2.821-1.319
			c1.505-0.377,3.857-0.938,3.951-2.726c0.095-1.787,0.187-13.261,0.563-17.583c0.375-4.323,1.224-12.038,1.036-15.329
			c-0.19-3.289-0.851-5.072,0.096-5.828c0.937-0.753,1.879-1.785,1.879-1.785s-1.691-4.986-1.975-6.867
			c-0.277-1.879-2.728-7.145-1.692-8.179c1.031-1.035,7.147-5.268,9.028-6.583c1.88-1.315,2.913-2.259,2.726-4.607
			c-0.188-2.351-1.699-4.983-6.205-11.661c-4.517-6.675-7.9-12.127-9.218-13.635c-1.317-1.499-2.065-1.969-4.417-2.443
			c-2.349-0.467-6.297-0.562-6.677-1.69c-0.375-1.127-0.19-1.413,0.658-3.295c0.846-1.877,3.574-7.332,3.762-9.117
			c0.19-1.786,4.139-10.248-1.22-13.446c-5.361-3.2-12.413-4.418-15.99,2.254c-1.785,3.48-1.127,6.118-1.222,6.773
			c0,0-1.879-0.282-1.127,1.974c0.754,2.254,0.846,2.816,0.846,3.667c0,0.844-0.188,0.75,0.566,0.844
			c0.754,0.1,2.445,2.918,1.789,4.327c-0.662,1.407-1.375,2.315-1.978,3.295c-0.095,1.312-0.849,1.219-2.063,2.627
			c-1.228,1.413-8.937,5.174-9.033,9.595c-0.092,4.415,2.07,11.283,4.42,17.301c2.349,6.019,4.421,8.553,4.421,14.012
			c0,5.449-3.009,16.733-3.102,18.709c-0.096,1.975,0.281,1.598,1.127,1.692c0.846,0.092-0.75,3.01,0.377,9.121
			c1.123,6.111,2.444,14.197,2.444,19.56c0,5.357-0.285,11.561,1.974,12.688c2.257,1.13,5.078-0.092,4.982,2.074
			c-0.092,2.158-3.95,9.867-2.82,16.735c1.129,6.862,2.07,13.823,0.941,14.289c-1.128,0.473-5.174,4.612-3.382,7.997
			c0.938,1.409,2.16-0.003,2.16,2.912c0,2.914,0.095,4.702,0.095,4.702l0.566,0.094C82.909,214.429,82.529,214.713,82.437,215.369z"
			/>
		<path fill="#FFFFFF" d="M97.669,78.65l-6.396-8.273l-5.169,2.069c0,0-2.072-5.079-3.762-7.332c-1.692-2.259-2.54-4.795-2.54-4.795
			l1.978-3.295c0,0,8.65,8.841,10.15,11.565c0,0,2.162,2.353,2.823,3.012c0.655,0.653,0.75-0.756,1.224-1.88
			c-0.095-1.979-2.353-5.64-2.353-5.64h2.069l6.865,5.449c0,0-3.762-0.373-3.95,0.191C98.422,70.284,97.573,77.429,97.669,78.65z"/>
		<path fill="#FFFFFF" d="M111.492,90.872l-4.138-5.45c0,0,0.095-1.127,1.413-0.188c1.312,0.943,4.132,3.479,3.474,4.42
			C111.588,90.593,111.492,90.872,111.492,90.872z"/>
		<path fill="#FFFFFF" d="M100.864,105.356c0,0-2.254,0.377-3.105,0c-0.839-0.375-1.685-1.412-1.685-1.412s0.938,0.753,1.974,0.378
			c1.03-0.378,1.313-1.694,1.03-3.196c-0.28-1.504-0.938-1.881,0.188-1.974c1.131-0.095,2.921,0.093,3.01,1.409
			C102.368,101.873,101.901,104.888,100.864,105.356z"/>
	</g>
</g>
</svg>
