<?xml version="1.0" encoding="utf-8"?>
<!-- Generator: Adobe Illustrator 16.0.0, SVG Export Plug-In . SVG Version: 6.00 Build 0)  -->
<!DOCTYPE svg PUBLIC "-//W3C//DTD SVG 1.1//EN" "http://www.w3.org/Graphics/SVG/1.1/DTD/svg11.dtd">
<svg version="1.1" id="Layer_1" xmlns="http://www.w3.org/2000/svg" xmlns:xlink="http://www.w3.org/1999/xlink" x="0px" y="0px"
	 width="64px" height="64px" viewBox="0 0 64 64" enable-background="new 0 0 64 64" xml:space="preserve">
<g>
	<g>
		<path fill="#EEEEEE" d="M31.793,0.1c8.918,0,16.441,3.061,22.565,9.185C60.517,15.446,63.6,22.968,63.6,31.85
			c0,8.92-3.024,16.348-9.072,22.281C48.101,60.443,40.523,63.6,31.793,63.6c-8.581,0-16.026-3.119-22.338-9.355
			C3.22,48.007,0.1,40.543,0.1,31.85c0-8.692,3.12-16.214,9.355-22.564C15.58,3.161,23.024,0.1,31.793,0.1z M31.907,5.827
			c-7.22,0-13.324,2.533-18.313,7.597c-5.18,5.292-7.768,11.435-7.768,18.427c0,7.031,2.569,13.117,7.709,18.253
			c5.141,5.143,11.263,7.71,18.37,7.71c7.066,0,13.229-2.586,18.482-7.767c4.99-4.801,7.484-10.865,7.484-18.199
			c0-7.219-2.533-13.36-7.597-18.427C45.212,8.359,39.088,5.827,31.907,5.827z M40.411,23.969v12.983h-3.627v15.42h-9.865v-15.42
			h-3.627V23.969c0-0.567,0.199-1.049,0.595-1.445c0.397-0.396,0.88-0.596,1.446-0.596h13.041c0.526,0,1.002,0.199,1.416,0.596
			C40.202,22.92,40.411,23.403,40.411,23.969z M27.427,15.806c0-2.985,1.473-4.479,4.423-4.479c2.949,0,4.422,1.492,4.422,4.479
			c0,2.947-1.475,4.422-4.422,4.422S27.427,18.753,27.427,15.806z"/>
	</g>
</g>
</svg>
