<?xml version="1.0" encoding="utf-8"?>
<!-- Generator: Adobe Illustrator 16.0.0, SVG Export Plug-In . SVG Version: 6.00 Build 0)  -->
<!DOCTYPE svg PUBLIC "-//W3C//DTD SVG 1.1//EN" "http://www.w3.org/Graphics/SVG/1.1/DTD/svg11.dtd">
<svg version="1.1" id="Layer_1" xmlns="http://www.w3.org/2000/svg" xmlns:xlink="http://www.w3.org/1999/xlink" x="0px" y="0px"
	 width="307px" height="73px" viewBox="0 0 307 73" enable-background="new 0 0 307 73" xml:space="preserve">
<g>
	<path fill="#EEEEEE" d="M96.237,49.615c-2.759-5.03-7.465-7.032-12.928-7.032c-7.951,0-14.28,5.626-14.28,15.146
		c0,9.684,5.95,15.146,14.552,15.146c5.517,0,10.223-3.029,12.817-7.627l-6.058-3.083c-1.354,3.246-3.408,4.22-6.004,4.22
		c-4.49,0-6.545-3.73-6.545-8.652c0-4.924,1.729-8.655,6.545-8.655c1.298,0,3.895,0.702,5.409,3.948L96.237,49.615z"/>
	<path fill="#EEEEEE" d="M111.701,49.074c4.813,0,6.868,3.732,6.868,8.33c0,5.246-2.056,8.979-6.868,8.979
		c-4.814,0-6.869-3.732-6.869-8.654S106.887,49.074,111.701,49.074z M111.701,42.583c-8.979,0-15.309,5.464-15.309,15.146
		c0,9.684,6.328,15.146,15.309,15.146c8.979,0,15.308-5.463,15.308-15.146C127.009,48.047,120.68,42.583,111.701,42.583z"/>
	<path fill="#EEEEEE" d="M128.738,72.116h8.438V54.213c0-2.597,1.082-4.813,4.489-4.813c3.246,0,4.109,1.893,4.109,4.705v18.012
		h8.438V54.43c0-2.921,1.459-5.029,4.271-5.029c3.189,0,4.326,1.839,4.326,5.896v16.821h8.438v-21.96c0-6.6-6.059-7.573-8.871-7.573
		c-3.354,0-6.49,1.026-9.248,3.841c-1.896-2.542-4.327-3.841-7.627-3.841c-2.596,0-6.166,0.758-8.33,3.301v-2.543h-8.438
		L128.738,72.116L128.738,72.116z"/>
	<path fill="#EEEEEE" d="M173.951,72.116h8.438V54.213c0-2.597,1.082-4.813,4.49-4.813c3.246,0,4.111,1.893,4.111,4.705v18.012
		h8.438V54.43c0-2.921,1.461-5.029,4.273-5.029c3.189,0,4.326,1.839,4.326,5.896v16.821h8.438v-21.96c0-6.6-6.059-7.573-8.871-7.573
		c-3.354,0-6.49,1.026-9.25,3.841c-1.893-2.542-4.326-3.841-7.627-3.841c-2.596,0-6.166,0.758-8.33,3.301v-2.543h-8.438
		L173.951,72.116L173.951,72.116z"/>
	<path fill="#EEEEEE" d="M233.5,49.074c4.813,0,6.869,3.732,6.869,8.33c0,5.246-2.059,8.979-6.869,8.979
		c-4.814,0-6.871-3.732-6.871-8.654S228.686,49.074,233.5,49.074z M233.5,42.583c-8.98,0-15.311,5.464-15.311,15.146
		c0,9.684,6.328,15.146,15.311,15.146c8.979,0,15.307-5.463,15.307-15.146C248.807,48.047,242.479,42.583,233.5,42.583z"/>
	<path fill="#EEEEEE" d="M251.076,72.116h8.438V54.213c0-2.597,1.082-4.813,4.49-4.813c3.246,0,4.109,1.893,4.109,4.705v18.012
		h8.438V50.859c0-4.327-1.893-8.276-8.709-8.276c-2.596,0-6.166,0.758-8.33,3.301v-2.543h-8.438L251.076,72.116L251.076,72.116z"/>
	<path fill="#EEEEEE" d="M304.729,46.749c-3.895-2.597-8.273-4.166-12.711-4.166c-5.842,0-12.17,2.813-12.17,10.062
		c0,10.225,17.037,6.653,17.037,11.145c0,2.597-3.189,2.921-4.598,2.921c-3.842,0-6.49-1.567-9.086-4.058l-5.248,4.543
		c4.221,3.896,7.789,5.681,14.063,5.681c6.271,0,12.98-2.705,12.98-10.276c0-10.765-17.037-6.707-17.037-11.63
		c0-1.461,1.514-2.218,3.623-2.218c2.65,0,6.273,1.081,7.949,3.083L304.729,46.749z"/>
	<path fill="#EEEEEE" d="M96.237,16.51c-2.759-5.03-7.465-7.032-12.928-7.032c-7.951,0-14.28,5.625-14.28,15.145
		c0,9.682,5.95,15.146,14.552,15.146c5.517,0,10.223-3.029,12.817-7.627l-6.058-3.083c-1.354,3.246-3.408,4.219-6.004,4.219
		c-4.49,0-6.545-3.732-6.545-8.655c0-4.922,1.729-8.654,6.545-8.654c1.298,0,3.895,0.703,5.409,3.949L96.237,16.51z"/>
	<path fill="#EEEEEE" d="M98.295,39.011h8.438V22.352c0-3.191,2.001-4.057,7.032-4.652l0.919-0.108l-0.054-7.464
		c-2.977,0.217-6.06,1.298-7.897,3.029v-2.921h-8.438V39.011z"/>
	<path fill="#EEEEEE" d="M143.341,26.354c-0.054-8.871-3.624-16.876-14.118-16.876c-8.763,0-14.118,5.842-14.118,16.011
		c0,8.113,5.193,14.28,14.118,14.28c6.438,0,11.034-2.543,13.955-7.953l-6.329-3.3c-2.434,3.462-3.895,5.084-7.032,5.084
		c-2.704,0-6.22-1.731-6.272-7.248L143.341,26.354L143.341,26.354z M123.436,21.162c0.378-3.787,3.299-5.517,5.733-5.517
		c2.434,0,5.463,1.298,5.731,5.517H123.436z"/>
	<path fill="#EEEEEE" d="M162.697,27.003c0,4.381-2.486,6.599-5.785,6.599c-2.059,0-3.949-0.974-3.949-3.245
		c0-2.326,1.947-3.137,4.057-3.732l5.681-1.623L162.697,27.003L162.697,27.003z M170.811,17.808
		c-0.055-6.491-4.977-8.33-12.818-8.33c-3.896,0-11.574,0.757-11.847,9.033h8.114c0.432-2.867,1.729-3.84,4.434-3.84
		c2.273,0,4.005,0.919,4.005,3.083v2.38l-3.085,0.433c-9.193,1.298-14.766,3.732-14.766,10.656c0,5.517,4.111,8.546,9.627,8.546
		c3.029,0,7.248-1.461,8.654-3.732h0.107c0.055,0.974,0.219,2.002,0.541,2.975h7.789c-0.703-1.785-0.758-4.002-0.758-6.003
		L170.811,17.808L170.811,17.808z"/>
	<path fill="#EEEEEE" d="M190.654,10.776h-5.029v-8.33h-8.439v8.33h-4.107v5.192h4.107v15.146c0,4.165,1.029,8.653,8.225,8.653
		c1.84,0,4.326-0.218,5.408-0.324v-6.652c-0.434,0.054-1.623,0.162-2.543,0.162c-1.516,0-2.648-0.595-2.648-2.867V15.969h5.029
		L190.654,10.776L190.654,10.776z"/>
	<path fill="#EEEEEE" d="M193.832,10.235V39.01h8.438V10.235H193.832z M202.27,6.99V0.499h-8.438V6.99H202.27z"/>
	<polygon fill="#EEEEEE" points="213.625,39.011 222.117,39.011 231.963,10.235 222.982,10.235 218.006,30.573 217.898,30.573 
		212.922,10.235 203.889,10.235 	"/>
	<path fill="#EEEEEE" d="M259.211,26.354c-0.053-8.871-3.623-16.876-14.117-16.876c-8.764,0-14.117,5.842-14.117,16.011
		c0,8.113,5.191,14.28,14.117,14.28c6.438,0,11.035-2.543,13.955-7.953l-6.328-3.3c-2.434,3.462-3.895,5.084-7.031,5.084
		c-2.705,0-6.221-1.731-6.273-7.248L259.211,26.354L259.211,26.354z M239.307,21.162c0.379-3.787,3.299-5.517,5.732-5.517
		c2.436,0,5.465,1.298,5.732,5.517H239.307z"/>
	<g>
		<path fill="#EEEEEE" d="M33.557,8.994c-8.682,0-16.322,3.213-22.226,9.203c-6.077,6.165-9.376,14.152-9.376,22.486
			c0,8.422,3.212,16.233,9.29,22.313c6.075,6.077,13.978,9.376,22.313,9.376s16.409-3.299,22.66-9.463
			c5.904-5.817,9.029-13.544,9.029-22.228c0-8.596-3.125-16.41-9.116-22.398C50.053,12.207,42.239,8.994,33.557,8.994z
			 M33.644,14.725c7.119,0,13.457,2.691,18.406,7.64c4.861,4.862,7.466,11.287,7.466,18.32c0,7.119-2.518,13.369-7.38,18.146
			c-5.123,5.035-11.721,7.728-18.493,7.728c-6.857,0-13.284-2.69-18.23-7.641c-4.949-4.949-7.729-11.461-7.729-18.232
			c0-6.857,2.778-13.371,7.729-18.407C20.273,17.33,26.525,14.725,33.644,14.725z"/>
		<path fill="#EEEEEE" d="M33.235,35.418c-1.79-3.264-4.844-4.563-8.389-4.563c-5.16,0-9.267,3.65-9.267,9.829
			c0,6.283,3.859,9.828,9.441,9.828c3.581,0,6.634-1.966,8.319-4.949l-3.932-2c-0.88,2.105-2.213,2.736-3.896,2.736
			c-2.914,0-4.247-2.422-4.247-5.615s1.123-5.617,4.247-5.617c0.842,0,2.527,0.457,3.51,2.563L33.235,35.418z"/>
		<path fill="#EEEEEE" d="M51.517,35.418c-1.791-3.264-4.844-4.563-8.389-4.563c-5.16,0-9.27,3.65-9.27,9.829
			c0,6.283,3.862,9.828,9.443,9.828c3.581,0,6.634-1.966,8.319-4.949l-3.934-2c-0.877,2.105-2.211,2.736-3.896,2.736
			c-2.913,0-4.248-2.422-4.248-5.615s1.124-5.617,4.248-5.617c0.842,0,2.525,0.457,3.511,2.563L51.517,35.418z"/>
	</g>
</g>
</svg>
