<?xml version="1.0" encoding="utf-8"?>
<!-- Generator: Adobe Illustrator 16.0.0, SVG Export Plug-In . SVG Version: 6.00 Build 0)  -->
<!DOCTYPE svg PUBLIC "-//W3C//DTD SVG 1.1//EN" "http://www.w3.org/Graphics/SVG/1.1/DTD/svg11.dtd">
<svg version="1.1" id="Layer_1" xmlns="http://www.w3.org/2000/svg" xmlns:xlink="http://www.w3.org/1999/xlink" x="0px" y="0px"
	 width="64px" height="64px" viewBox="0 0 64 64" enable-background="new 0 0 64 64" xml:space="preserve">
<g>
	<path fill="#EEEEEE" d="M31.792,0.1c8.881,0,16.444,3.101,22.678,9.299c2.986,2.985,5.254,6.397,6.802,10.233
		c1.551,3.837,2.327,7.909,2.327,12.218c0,4.346-0.765,8.419-2.294,12.216c-1.531,3.798-3.791,7.154-6.775,10.065
		c-3.099,3.061-6.614,5.405-10.546,7.03c-3.931,1.626-7.996,2.438-12.19,2.438c-4.196,0-8.211-0.802-12.049-2.41
		c-3.836-1.604-7.276-3.93-10.319-6.972c-3.043-3.041-5.357-6.474-6.944-10.292C0.894,40.108,0.1,36.084,0.1,31.85
		c0-4.196,0.803-8.23,2.409-12.104S6.45,12.403,9.511,9.341C15.559,3.182,22.986,0.1,31.792,0.1z M31.908,5.827
		c-7.256,0-13.363,2.533-18.315,7.597c-2.495,2.533-4.414,5.377-5.755,8.533c-1.344,3.156-2.013,6.455-2.013,9.894
		c0,3.402,0.669,6.68,2.013,9.835c1.342,3.159,3.26,5.975,5.755,8.449c2.494,2.477,5.31,4.365,8.449,5.67
		c3.137,1.305,6.426,1.958,9.866,1.958c3.4,0,6.696-0.66,9.894-1.984c3.196-1.324,6.074-3.232,8.647-5.725
		c4.949-4.839,7.424-10.905,7.424-18.202c0-3.515-0.641-6.841-1.926-9.979c-1.283-3.137-3.157-5.933-5.61-8.392
		C45.23,8.379,39.089,5.827,31.908,5.827z M31.51,26.579l-4.253,2.212c-0.454-0.944-1.011-1.606-1.672-1.984
		c-0.662-0.377-1.276-0.567-1.843-0.567c-2.834,0-4.253,1.871-4.253,5.613c0,1.701,0.359,3.06,1.077,4.081
		c0.718,1.021,1.777,1.532,3.176,1.532c1.852,0,3.156-0.908,3.912-2.722l3.911,1.984c-0.832,1.55-1.984,2.77-3.458,3.657
		c-1.473,0.889-3.1,1.333-4.877,1.333c-2.835,0-5.123-0.868-6.861-2.608c-1.738-1.738-2.607-4.157-2.607-7.255
		c0-3.024,0.879-5.423,2.636-7.2c1.757-1.776,3.979-2.665,6.664-2.665C26.993,21.986,29.808,23.517,31.51,26.579z M49.823,26.579
		l-4.196,2.212c-0.453-0.944-1.013-1.606-1.674-1.984c-0.663-0.377-1.296-0.567-1.898-0.567c-2.834,0-4.254,1.871-4.254,5.613
		c0,1.701,0.36,3.06,1.078,4.081c0.718,1.021,1.775,1.532,3.176,1.532c1.851,0,3.155-0.908,3.91-2.722l3.969,1.984
		c-0.868,1.55-2.041,2.77-3.514,3.657c-1.475,0.889-3.08,1.333-4.818,1.333c-2.873,0-5.169-0.868-6.887-2.608
		c-1.723-1.738-2.582-4.157-2.582-7.255c0-3.024,0.877-5.423,2.636-7.2c1.757-1.776,3.978-2.665,6.66-2.665
		C45.362,21.986,48.16,23.517,49.823,26.579z"/>
</g>
</svg>
