<?xml version="1.0" encoding="utf-8"?>
<!-- Generator: Adobe Illustrator 16.0.0, SVG Export Plug-In . SVG Version: 6.00 Build 0)  -->
<!DOCTYPE svg PUBLIC "-//W3C//DTD SVG 1.1//EN" "http://www.w3.org/Graphics/SVG/1.1/DTD/svg11.dtd">
<svg version="1.1" id="Layer_1" xmlns="http://www.w3.org/2000/svg" xmlns:xlink="http://www.w3.org/1999/xlink" x="0px" y="0px"
	 width="64px" height="64px" viewBox="0 0 64 64" enable-background="new 0 0 64 64" xml:space="preserve">
<g>
	<g>
		<path fill="#EEEEEE" d="M31.793,0.1c8.881,0,16.402,3.081,22.565,9.242C60.517,15.466,63.6,22.968,63.6,31.85
			c0,8.883-3.024,16.328-9.073,22.337C48.139,60.462,40.561,63.6,31.793,63.6c-8.581,0-16.026-3.118-22.338-9.356
			C3.219,48.009,0.1,40.545,0.1,31.851c0-8.655,3.119-16.158,9.355-22.508C15.616,3.181,23.062,0.1,31.793,0.1z M31.907,5.827
			c-7.22,0-13.323,2.551-18.313,7.654c-5.18,5.255-7.769,11.378-7.769,18.369c0,7.069,2.57,13.153,7.71,18.256
			c5.141,5.141,11.263,7.71,18.369,7.71c7.066,0,13.229-2.588,18.483-7.768c4.99-4.838,7.483-10.903,7.483-18.199
			c0-7.256-2.533-13.379-7.596-18.369C45.248,8.377,39.125,5.827,31.907,5.827z M17.732,27.37c0.604-3.893,2.172-6.907,4.706-9.042
			c2.532-2.136,5.612-3.203,9.241-3.203c4.986,0,8.957,1.607,11.906,4.818c2.946,3.212,4.421,7.333,4.421,12.36
			c0,4.876-1.53,8.929-4.591,12.159c-3.064,3.23-7.03,4.848-11.909,4.848c-3.589,0-6.688-1.075-9.296-3.231
			c-2.609-2.154-4.176-5.216-4.706-9.185H25.5c0.188,3.856,2.513,5.784,6.974,5.784c2.228,0,4.025-0.965,5.384-2.892
			c1.362-1.927,2.045-4.499,2.045-7.71c0-3.364-0.626-5.924-1.872-7.683c-1.248-1.757-3.041-2.636-5.388-2.636
			c-4.233,0-6.614,1.87-7.142,5.611h2.323l-6.291,6.293l-6.294-6.293L17.732,27.37L17.732,27.37z"/>
	</g>
</g>
</svg>
