<?xml version="1.0" encoding="iso-8859-1"?>
<!-- Generator: Adobe Illustrator 16.0.0, SVG Export Plug-In . SVG Version: 6.00 Build 0)  -->
<!DOCTYPE svg PUBLIC "-//W3C//DTD SVG 1.0//EN" "http://www.w3.org/TR/2001/REC-SVG-20010904/DTD/svg10.dtd">
<svg version="1.0" id="Layer_1" xmlns="http://www.w3.org/2000/svg" xmlns:xlink="http://www.w3.org/1999/xlink" x="0px" y="0px"
	 width="256px" height="256px" viewBox="0 0 256 256" enable-background="new 0 0 256 256" xml:space="preserve">
<circle fill="#555655" cx="127.977" cy="127.682" r="125.144"/>
<g>
	<path fill="#666766" d="M128.846,36.894c15.838,0,31.033,3.98,45.586,11.939c14.552,7.959,25.989,19.316,34.311,34.069
		c8.321,14.754,12.482,30.21,12.482,46.371c0,16.081-4.082,31.416-12.241,46.008c-8.161,14.593-19.537,25.971-34.129,34.13
		c-14.593,8.159-29.93,12.241-46.009,12.241c-16.082,0-31.417-4.082-46.009-12.241c-14.593-8.159-25.97-19.537-34.13-34.13
		c-8.161-14.592-12.241-29.927-12.241-46.008c0-16.161,4.161-31.616,12.482-46.371c8.321-14.753,19.758-26.11,34.311-34.069
		C97.81,40.874,113.005,36.894,128.846,36.894z M128.846,55.104c-12.705,0-24.904,3.177-36.602,9.527
		c-11.698,6.352-20.884,15.458-27.557,27.316c-6.674,11.86-10.01,24.301-10.01,37.326c0,12.864,3.275,25.165,9.829,36.903
		c6.552,11.739,15.697,20.884,27.436,27.436c11.738,6.555,24.039,9.829,36.904,9.829c12.862,0,25.163-3.274,36.903-9.829
		c11.737-6.552,20.882-15.696,27.437-27.436c6.552-11.738,9.828-24.039,9.828-36.903c0-12.944-3.337-25.366-10.01-37.266
		c-6.674-11.898-15.858-21.024-27.557-27.376C153.749,58.282,141.548,55.104,128.846,55.104z M151.277,143.021l19.416,6.513
		c-3.057,10.13-8.122,17.89-15.195,23.275c-7.076,5.388-15.518,8.08-25.326,8.08c-13.748,0-24.964-4.502-33.647-13.507
		c-8.683-9.004-13.025-21.426-13.025-37.266c0-10.372,1.93-19.616,5.789-27.738c3.859-8.12,9.425-14.189,16.703-18.21
		c7.276-4.02,15.416-6.03,24.421-6.03c9.89,0,18.15,2.352,24.783,7.055c6.633,4.704,11.798,12.121,15.497,22.251l-19.537,4.583
		c-2.252-5.868-5.167-10.13-8.743-12.784c-3.579-2.653-7.82-3.979-12.724-3.979c-7.317,0-13.307,2.755-17.969,8.261
		c-4.664,5.508-6.995,14.131-6.995,25.869c0,11.739,2.292,20.382,6.874,25.929c4.583,5.548,10.089,8.321,16.522,8.321
		c5.386,0,10.049-1.586,13.989-4.764C146.05,155.705,149.106,150.419,151.277,143.021z"/>
</g>
</svg>
