<?xml version="1.0" encoding="iso-8859-1"?>
<!-- Generator: Adobe Illustrator 16.0.0, SVG Export Plug-In . SVG Version: 6.00 Build 0)  -->
<!DOCTYPE svg PUBLIC "-//W3C//DTD SVG 1.1//EN" "http://www.w3.org/Graphics/SVG/1.1/DTD/svg11.dtd">
<svg version="1.1" id="Layer_1" xmlns="http://www.w3.org/2000/svg" xmlns:xlink="http://www.w3.org/1999/xlink" x="0px" y="0px"
	 width="512px" height="512px" viewBox="0 0 512 512" enable-background="new 0 0 512 512" xml:space="preserve">
<g>
	
		<radialGradient id="SVGID_1_" cx="303.137" cy="118.751" r="127.6759" gradientTransform="matrix(1 0 0 -1 -155.0996 267.0098)" gradientUnits="userSpaceOnUse">
		<stop  offset="0" style="stop-color:#E5CC52"/>
		<stop  offset="0.9946" style="stop-color:#DDAC13"/>
	</radialGradient>
	<path fill="url(#SVGID_1_)" d="M254.97,23.872C124.33-28.021,20.041,113.792,29.13,235.289c37.874,9.068,69.4,26.686,97.034,48.365
		L267.496,29.696C263.286,27.476,259.095,25.512,254.97,23.872z"/>
	
		<radialGradient id="SVGID_2_" cx="421.6018" cy="-127.8145" r="142.9715" gradientTransform="matrix(1 0 0 -1 -155.0996 267.0098)" gradientUnits="userSpaceOnUse">
		<stop  offset="0" style="stop-color:#E5CC52"/>
		<stop  offset="0.9946" style="stop-color:#DDAC13"/>
	</radialGradient>
	<path fill="url(#SVGID_2_)" d="M134.178,475.662c28.109,15.311,41.17-7.689,72.145-5.562c4.477,17.346,8.539,25.471,9.711,36.642
		h165.596c-17.477-20.313-19.734-35.262-19.004-64.443c0.59-23.701,28.916-37.835,42.077-61.158
		c14.072-24.947,28.67-65.332,30.191-98.234h-308.83c-6.581,26.205-16.824,51.545-27.954,75.99
		C141.768,391.072,104.351,434.224,134.178,475.662z"/>
	<g>
		<g>
			
				<radialGradient id="SVGID_3_" cx="548.6077" cy="195.8374" r="64.4039" gradientTransform="matrix(1 0 0 -1 -155.0996 267.0098)" gradientUnits="userSpaceOnUse">
				<stop  offset="0" style="stop-color:#E5CC52"/>
				<stop  offset="0.9946" style="stop-color:#DDAC13"/>
			</radialGradient>
			<path fill="url(#SVGID_3_)" d="M444.559,84.395c-5.277,7.886-12.317,13.885-20.246,17.826c-0.439,0.219,0.032,0.218-1.33,0.637
				c-40.765,19.793-42.777,40.886-55.296,36.25c-9.118-6.101-17.476-11.694-30.594-20.692
				c-11.141-10.313,7.374-12.665,11.274-66.066c-0.31-0.957,0.05-0.829,0.08-1.243c0.667-8.72,3.521-17.393,8.731-25.179
				c16.146-24.129,48.793-30.6,72.921-14.456C454.23,27.617,460.702,60.266,444.559,84.395z"/>
			
				<radialGradient id="SVGID_4_" cx="502.7307" cy="132.4526" r="16.3589" gradientTransform="matrix(1 0 0 -1 -155.0996 267.0098)" gradientUnits="userSpaceOnUse">
				<stop  offset="0" style="stop-color:#E5CC52"/>
				<stop  offset="0.9946" style="stop-color:#DDAC13"/>
			</radialGradient>
			<path fill="url(#SVGID_4_)" d="M365.524,146.614c-1.166,1.743-3.523,2.209-5.266,1.043l-29.556-19.775
				c-1.74-1.166-2.209-3.523-1.043-5.266l0.078-0.115c1.165-1.743,3.523-2.21,5.267-1.045l29.554,19.775
				c1.741,1.166,2.208,3.524,1.043,5.266L365.524,146.614z"/>
			
				<radialGradient id="SVGID_5_" cx="490.1936" cy="113.458" r="16.3595" gradientTransform="matrix(1 0 0 -1 -155.0996 267.0098)" gradientUnits="userSpaceOnUse">
				<stop  offset="0" style="stop-color:#E5CC52"/>
				<stop  offset="0.9946" style="stop-color:#DDAC13"/>
			</radialGradient>
			<path fill="url(#SVGID_5_)" d="M352.987,165.608c-1.166,1.742-3.523,2.21-5.266,1.044l-29.557-19.775
				c-1.74-1.166-2.208-3.524-1.042-5.266l0.077-0.116c1.167-1.743,3.524-2.21,5.268-1.044l29.554,19.776
				c1.741,1.166,2.209,3.523,1.043,5.266L352.987,165.608z"/>
			
				<radialGradient id="SVGID_6_" cx="496.468" cy="122.835" r="16.3598" gradientTransform="matrix(1 0 0 -1 -155.0996 267.0098)" gradientUnits="userSpaceOnUse">
				<stop  offset="0" style="stop-color:#E5CC52"/>
				<stop  offset="0.9946" style="stop-color:#DDAC13"/>
			</radialGradient>
			<path fill="url(#SVGID_6_)" d="M359.261,156.232c-1.165,1.742-3.523,2.209-5.267,1.044L324.441,137.5
				c-1.742-1.165-2.21-3.524-1.045-5.265l0.079-0.117c1.166-1.743,3.522-2.209,5.265-1.044l29.557,19.776
				c1.741,1.166,2.21,3.522,1.043,5.265L359.261,156.232z"/>
			
				<radialGradient id="SVGID_7_" cx="485.4612" cy="105.4854" r="10.9537" gradientTransform="matrix(1 0 0 -1 -155.0996 267.0098)" gradientUnits="userSpaceOnUse">
				<stop  offset="0" style="stop-color:#E5CC52"/>
				<stop  offset="0.9946" style="stop-color:#DDAC13"/>
			</radialGradient>
			<path fill="url(#SVGID_7_)" d="M319.162,152.091c-2.851,4.259,0.098,11.23,6.581,15.569c6.486,4.34,14.056,4.405,16.904,0.146
				L319.162,152.091z"/>
		</g>
		<g>
			
				<radialGradient id="SVGID_8_" cx="383.0178" cy="51.2822" r="32.7288" gradientTransform="matrix(1 0 0 -1 -155.0996 267.0098)" gradientUnits="userSpaceOnUse">
				<stop  offset="0" style="stop-color:#E5CC52"/>
				<stop  offset="0.9946" style="stop-color:#DDAC13"/>
			</radialGradient>
			<path fill="url(#SVGID_8_)" d="M254.114,214.269c-1.498,4.729-4.155,8.768-7.561,11.902c-0.189,0.174,0.048,0.105-0.574,0.514
				c-17.572,15.885-15.504,26.766-22.464,26.267c-5.468-1.732-10.479-3.32-18.377-5.921c-7.097-3.551,1.854-7.434-3.983-34.807
				c-0.295-0.436-0.096-0.424-0.142-0.636c-0.937-4.474-0.771-9.245,0.708-13.913c4.583-14.468,20.025-22.481,34.493-17.899
				C250.681,184.358,258.696,199.801,254.114,214.269z"/>
			
				<radialGradient id="SVGID_9_" cx="367.8831" cy="13.4141" r="8.4009" gradientTransform="matrix(1 0 0 -1 -155.0996 267.0098)" gradientUnits="userSpaceOnUse">
				<stop  offset="0" style="stop-color:#E5CC52"/>
				<stop  offset="0.9946" style="stop-color:#DDAC13"/>
			</radialGradient>
			<path fill="url(#SVGID_9_)" d="M223.525,257.035c-0.331,1.044-1.445,1.624-2.49,1.292l-17.722-5.611
				c-1.045-0.331-1.623-1.446-1.293-2.491l0.023-0.069c0.33-1.044,1.444-1.624,2.49-1.293l17.721,5.612
				c1.044,0.331,1.623,1.446,1.292,2.491L223.525,257.035z"/>
			
				<radialGradient id="SVGID_10_" cx="364.3616" cy="2.0508" r="8.4004" gradientTransform="matrix(1 0 0 -1 -155.0996 267.0098)" gradientUnits="userSpaceOnUse">
				<stop  offset="0" style="stop-color:#E5CC52"/>
				<stop  offset="0.9946" style="stop-color:#DDAC13"/>
			</radialGradient>
			<path fill="url(#SVGID_10_)" d="M220.004,268.398c-0.331,1.045-1.446,1.625-2.491,1.293l-17.721-5.613
				c-1.044-0.329-1.623-1.445-1.292-2.49l0.021-0.068c0.333-1.045,1.447-1.625,2.491-1.293l17.72,5.611
				c1.045,0.332,1.624,1.446,1.292,2.491L220.004,268.398z"/>
			
				<radialGradient id="SVGID_11_" cx="366.1448" cy="7.6729" r="8.4003" gradientTransform="matrix(1 0 0 -1 -155.0996 267.0098)" gradientUnits="userSpaceOnUse">
				<stop  offset="0" style="stop-color:#E5CC52"/>
				<stop  offset="0.9946" style="stop-color:#DDAC13"/>
			</radialGradient>
			<path fill="url(#SVGID_11_)" d="M221.785,262.777c-0.331,1.043-1.446,1.623-2.491,1.291l-17.722-5.611
				c-1.044-0.331-1.622-1.446-1.292-2.491l0.022-0.069c0.332-1.045,1.446-1.624,2.49-1.292l17.723,5.612
				c1.044,0.33,1.623,1.445,1.291,2.491L221.785,262.777z"/>
			
				<radialGradient id="SVGID_12_" cx="363.1184" cy="-3.2231" r="5.6668" gradientTransform="matrix(1 0 0 -1 -155.0996 267.0098)" gradientUnits="userSpaceOnUse">
				<stop  offset="0" style="stop-color:#E5CC52"/>
				<stop  offset="0.9946" style="stop-color:#DDAC13"/>
			</radialGradient>
			<path fill="url(#SVGID_12_)" d="M201.053,266.551c-0.809,2.555,1.689,5.624,5.576,6.854c3.89,1.231,7.698,0.16,8.507-2.395
				L201.053,266.551z"/>
		</g>
		<g>
			
				<radialGradient id="SVGID_13_" cx="439.8909" cy="164.0127" r="32.7285" gradientTransform="matrix(1 0 0 -1 -155.0996 267.0098)" gradientUnits="userSpaceOnUse">
				<stop  offset="0" style="stop-color:#E5CC52"/>
				<stop  offset="0.9946" style="stop-color:#DDAC13"/>
			</radialGradient>
			<path fill="url(#SVGID_13_)" d="M310.987,101.538c-1.498,4.729-4.155,8.768-7.562,11.903c-0.188,0.174,0.049,0.104-0.573,0.514
				c-17.572,15.884-15.505,26.766-22.464,26.266c-5.469-1.732-10.479-3.32-18.378-5.92c-7.096-3.551,1.854-7.434-3.983-34.807
				c-0.295-0.436-0.095-0.423-0.141-0.636c-0.938-4.474-0.771-9.245,0.707-13.913c4.583-14.468,20.025-22.481,34.493-17.899
				C307.554,71.627,315.569,87.07,310.987,101.538z"/>
			
				<radialGradient id="SVGID_14_" cx="424.7561" cy="126.146" r="8.4009" gradientTransform="matrix(1 0 0 -1 -155.0996 267.0098)" gradientUnits="userSpaceOnUse">
				<stop  offset="0" style="stop-color:#E5CC52"/>
				<stop  offset="0.9946" style="stop-color:#DDAC13"/>
			</radialGradient>
			<path fill="url(#SVGID_14_)" d="M280.398,144.304c-0.331,1.044-1.445,1.624-2.49,1.292l-17.721-5.612
				c-1.045-0.331-1.624-1.446-1.293-2.491l0.023-0.069c0.33-1.044,1.443-1.624,2.49-1.293l17.719,5.613
				c1.046,0.331,1.623,1.446,1.294,2.49L280.398,144.304z"/>
			
				<radialGradient id="SVGID_15_" cx="421.2366" cy="114.7822" r="8.4004" gradientTransform="matrix(1 0 0 -1 -155.0996 267.0098)" gradientUnits="userSpaceOnUse">
				<stop  offset="0" style="stop-color:#E5CC52"/>
				<stop  offset="0.9946" style="stop-color:#DDAC13"/>
			</radialGradient>
			<path fill="url(#SVGID_15_)" d="M276.878,155.668c-0.331,1.043-1.446,1.624-2.491,1.292l-17.721-5.613
				c-1.044-0.331-1.623-1.446-1.292-2.491l0.021-0.069c0.332-1.046,1.447-1.624,2.491-1.292l17.72,5.612
				c1.045,0.332,1.624,1.446,1.293,2.491L276.878,155.668z"/>
			
				<radialGradient id="SVGID_16_" cx="423.0168" cy="120.4053" r="8.401" gradientTransform="matrix(1 0 0 -1 -155.0996 267.0098)" gradientUnits="userSpaceOnUse">
				<stop  offset="0" style="stop-color:#E5CC52"/>
				<stop  offset="0.9946" style="stop-color:#DDAC13"/>
			</radialGradient>
			<path fill="url(#SVGID_16_)" d="M278.658,150.045c-0.33,1.044-1.446,1.624-2.49,1.292l-17.723-5.612
				c-1.044-0.331-1.623-1.447-1.292-2.491l0.021-0.07c0.332-1.045,1.447-1.624,2.49-1.292l17.724,5.612
				c1.043,0.331,1.622,1.445,1.291,2.491L278.658,150.045z"/>
			
				<radialGradient id="SVGID_17_" cx="419.9924" cy="109.5073" r="5.6664" gradientTransform="matrix(1 0 0 -1 -155.0996 267.0098)" gradientUnits="userSpaceOnUse">
				<stop  offset="0" style="stop-color:#E5CC52"/>
				<stop  offset="0.9946" style="stop-color:#DDAC13"/>
			</radialGradient>
			<path fill="url(#SVGID_17_)" d="M257.927,153.82c-0.809,2.554,1.688,5.623,5.575,6.854c3.891,1.232,7.699,0.16,8.508-2.394
				L257.927,153.82z"/>
		</g>
		<g>
			
				<radialGradient id="SVGID_18_" cx="514.7327" cy="27.8633" r="33.1262" gradientTransform="matrix(1 0 0 -1 -155.0996 267.0098)" gradientUnits="userSpaceOnUse">
				<stop  offset="0" style="stop-color:#E5CC52"/>
				<stop  offset="0.9946" style="stop-color:#DDAC13"/>
			</radialGradient>
			<path fill="url(#SVGID_18_)" d="M380.795,262.189c-4.465,2.164-9.225,3.012-13.843,2.693c-0.256-0.018-0.042,0.107-0.769-0.063
				c-23.615-1.84-30.095,7.144-34.52,1.744c-2.501-5.16-4.793-9.891-8.335-17.414c-2.3-7.595,6.674-3.765,22.537-26.824
				c0.114-0.513,0.242-0.361,0.364-0.54c2.604-3.756,6.184-6.915,10.59-9.051c13.656-6.62,30.093-0.915,36.712,12.74
				C400.153,239.133,394.45,255.57,380.795,262.189z"/>
			
				<radialGradient id="SVGID_19_" cx="478.9221" cy="7.7935" r="8.4932" gradientTransform="matrix(1 0 0 -1 -155.0996 267.0098)" gradientUnits="userSpaceOnUse">
				<stop  offset="0" style="stop-color:#E5CC52"/>
				<stop  offset="0.9946" style="stop-color:#DDAC13"/>
			</radialGradient>
			<path fill="url(#SVGID_19_)" d="M328.709,269.381c-0.986,0.479-2.174,0.066-2.651-0.921l-8.108-16.726
				c-0.478-0.986-0.064-2.172,0.92-2.651l0.066-0.031c0.986-0.478,2.173-0.067,2.652,0.919l8.105,16.726
				c0.479,0.984,0.065,2.174-0.92,2.65L328.709,269.381z"/>
			
				<radialGradient id="SVGID_20_" cx="468.2493" cy="2.5371" r="8.4932" gradientTransform="matrix(1 0 0 -1 -155.0996 267.0098)" gradientUnits="userSpaceOnUse">
				<stop  offset="0" style="stop-color:#E5CC52"/>
				<stop  offset="0.9946" style="stop-color:#DDAC13"/>
			</radialGradient>
			<path fill="url(#SVGID_20_)" d="M318.035,274.637c-0.984,0.479-2.173,0.066-2.65-0.919l-8.107-16.728
				c-0.479-0.985-0.064-2.173,0.92-2.65l0.065-0.032c0.988-0.478,2.175-0.066,2.65,0.92l8.108,16.726
				c0.479,0.985,0.066,2.173-0.921,2.651L318.035,274.637z"/>
			
				<radialGradient id="SVGID_21_" cx="473.5569" cy="5.1108" r="8.4938" gradientTransform="matrix(1 0 0 -1 -155.0996 267.0098)" gradientUnits="userSpaceOnUse">
				<stop  offset="0" style="stop-color:#E5CC52"/>
				<stop  offset="0.9946" style="stop-color:#DDAC13"/>
			</radialGradient>
			<path fill="url(#SVGID_21_)" d="M323.344,272.064c-0.986,0.478-2.174,0.066-2.651-0.92l-8.108-16.727
				c-0.478-0.986-0.064-2.174,0.921-2.652l0.065-0.032c0.986-0.479,2.173-0.066,2.65,0.92l8.107,16.728
				c0.479,0.985,0.066,2.173-0.92,2.65L323.344,272.064z"/>
			
				<radialGradient id="SVGID_22_" cx="463.5686" cy="0.5928" r="5.7051" gradientTransform="matrix(1 0 0 -1 -155.0996 267.0098)" gradientUnits="userSpaceOnUse">
				<stop  offset="0" style="stop-color:#E5CC52"/>
				<stop  offset="0.9946" style="stop-color:#DDAC13"/>
			</radialGradient>
			<path fill="url(#SVGID_22_)" d="M306.349,259.605c-2.41,1.168-2.922,5.092-1.145,8.762c1.78,3.671,5.179,5.699,7.589,4.531
				L306.349,259.605z"/>
		</g>
		<g>
			
				<radialGradient id="SVGID_23_" cx="611.5842" cy="89.5449" r="32.7881" gradientTransform="matrix(1 0 0 -1 -155.0996 267.0098)" gradientUnits="userSpaceOnUse">
				<stop  offset="0" style="stop-color:#E5CC52"/>
				<stop  offset="0.9946" style="stop-color:#DDAC13"/>
			</radialGradient>
			<path fill="url(#SVGID_23_)" d="M482.415,178.084c-1.838,4.607-4.78,8.442-8.404,11.322c-0.2,0.16,0.041,0.108-0.61,0.472
				c-18.678,14.567-17.405,25.569-24.312,24.566c-5.327-2.124-10.21-4.072-17.897-7.239c-6.821-4.058,2.388-7.28-1.447-35.004
				c-0.262-0.456-0.063-0.43-0.095-0.645c-0.609-4.53-0.098-9.275,1.716-13.824c5.621-14.097,21.604-20.969,35.701-15.349
				C481.161,148.003,488.035,163.987,482.415,178.084z"/>
			
				<radialGradient id="SVGID_24_" cx="593.4397" cy="52.7041" r="8.4511" gradientTransform="matrix(1 0 0 -1 -155.0996 267.0098)" gradientUnits="userSpaceOnUse">
				<stop  offset="0" style="stop-color:#E5CC52"/>
				<stop  offset="0.9946" style="stop-color:#DDAC13"/>
			</radialGradient>
			<path fill="url(#SVGID_24_)" d="M448.803,218.517c-0.406,1.018-1.561,1.515-2.578,1.108l-17.269-6.883
				c-1.017-0.407-1.512-1.56-1.106-2.579l0.027-0.068c0.405-1.018,1.561-1.515,2.578-1.109l17.267,6.884
				c1.018,0.405,1.513,1.56,1.106,2.578L448.803,218.517z"/>
			
				<radialGradient id="SVGID_25_" cx="589.1038" cy="41.6255" r="8.4511" gradientTransform="matrix(1 0 0 -1 -155.0996 267.0098)" gradientUnits="userSpaceOnUse">
				<stop  offset="0" style="stop-color:#E5CC52"/>
				<stop  offset="0.9946" style="stop-color:#DDAC13"/>
			</radialGradient>
			<path fill="url(#SVGID_25_)" d="M444.466,229.595c-0.405,1.018-1.561,1.515-2.577,1.109l-17.269-6.885
				c-1.018-0.405-1.514-1.56-1.105-2.578l0.024-0.068c0.408-1.019,1.563-1.515,2.579-1.108l17.267,6.884
				c1.018,0.405,1.515,1.56,1.107,2.578L444.466,229.595z"/>
			
				<radialGradient id="SVGID_26_" cx="591.2874" cy="47.103" r="8.4516" gradientTransform="matrix(1 0 0 -1 -155.0996 267.0098)" gradientUnits="userSpaceOnUse">
				<stop  offset="0" style="stop-color:#E5CC52"/>
				<stop  offset="0.9946" style="stop-color:#DDAC13"/>
			</radialGradient>
			<path fill="url(#SVGID_26_)" d="M446.651,224.118c-0.407,1.017-1.561,1.514-2.579,1.108l-17.266-6.883
				c-1.019-0.407-1.515-1.562-1.109-2.579l0.028-0.068c0.405-1.019,1.56-1.515,2.576-1.108l17.269,6.884
				c1.019,0.405,1.515,1.559,1.107,2.579L446.651,224.118z"/>
			
				<radialGradient id="SVGID_27_" cx="587.5432" cy="36.6299" r="5.6891" gradientTransform="matrix(1 0 0 -1 -155.0996 267.0098)" gradientUnits="userSpaceOnUse">
				<stop  offset="0" style="stop-color:#E5CC52"/>
				<stop  offset="0.9946" style="stop-color:#DDAC13"/>
			</radialGradient>
			<path fill="url(#SVGID_27_)" d="M425.698,226.376c-0.991,2.488,1.276,5.731,5.064,7.241c3.79,1.511,7.666,0.718,8.658-1.77
				L425.698,226.376z"/>
		</g>
	</g>
</g>
</svg>
