<?xml version="1.0" encoding="iso-8859-1"?>
<!-- Generator: Adobe Illustrator 16.0.0, SVG Export Plug-In . SVG Version: 6.00 Build 0)  -->
<!DOCTYPE svg PUBLIC "-//W3C//DTD SVG 1.0//EN" "http://www.w3.org/TR/2001/REC-SVG-20010904/DTD/svg10.dtd">
<svg version="1.0" id="Layer_1" xmlns="http://www.w3.org/2000/svg" xmlns:xlink="http://www.w3.org/1999/xlink" x="0px" y="0px"
	 width="136.06px" height="136.06px" viewBox="0 0 136.06 136.06" enable-background="new 0 0 136.06 136.06" xml:space="preserve">
<g>
	<path fill="#010101" d="M126.411,66.671c0.007,0.35,0.009,0.699,0.009,1.051c0,0.923-0.021,1.84-0.063,2.752l1.674,0.077
		c0.043-0.938,0.064-1.881,0.064-2.829c0-0.361-0.003-0.721-0.01-1.08L126.411,66.671z M126.061,61.178
		c0.101,0.908,0.181,1.822,0.239,2.742l1.672-0.106c-0.06-0.946-0.142-1.886-0.245-2.819L126.061,61.178z M125.201,55.743
		c0.186,0.896,0.35,1.798,0.494,2.707l1.654-0.262c-0.148-0.936-0.317-1.864-0.508-2.784L125.201,55.743z M123.835,50.413
		c0.269,0.874,0.518,1.758,0.745,2.648l1.624-0.416c-0.235-0.916-0.491-1.825-0.768-2.725L123.835,50.413z M121.973,45.234
		c0.351,0.847,0.682,1.702,0.992,2.567l1.577-0.566c-0.32-0.891-0.661-1.771-1.021-2.641L121.973,45.234z M119.639,40.264
		c0.427,0.809,0.836,1.629,1.226,2.459l1.517-0.713c-0.401-0.854-0.822-1.696-1.262-2.528L119.639,40.264z M116.847,35.53
		c0.501,0.766,0.985,1.544,1.451,2.335l1.443-0.852c-0.479-0.813-0.978-1.613-1.493-2.401L116.847,35.53z M113.624,31.073
		c0.571,0.718,1.126,1.448,1.663,2.191l1.358-0.981c-0.554-0.765-1.124-1.517-1.711-2.254L113.624,31.073z M110,26.934
		c0.635,0.662,1.256,1.338,1.86,2.028l1.261-1.104c-0.621-0.71-1.26-1.405-1.913-2.086L110,26.934z M106.005,23.146
		c0.694,0.601,1.376,1.217,2.042,1.848l1.152-1.216c-0.685-0.649-1.385-1.282-2.1-1.899L106.005,23.146z M101.674,19.746
		c0.748,0.533,1.483,1.083,2.205,1.65l1.035-1.318c-0.742-0.583-1.498-1.148-2.268-1.696L101.674,19.746z M97.043,16.763
		c0.795,0.461,1.579,0.94,2.351,1.438l0.907-1.408c-0.793-0.512-1.6-1.005-2.418-1.479L97.043,16.763z M92.15,14.225
		c0.836,0.385,1.662,0.789,2.477,1.212l0.771-1.487c-0.838-0.436-1.688-0.851-2.547-1.247L92.15,14.225z M87.039,12.156
		c0.869,0.305,1.729,0.63,2.58,0.974l0.629-1.553c-0.875-0.354-1.76-0.688-2.655-1.002L87.039,12.156z M81.766,10.582
		c0.894,0.222,1.778,0.463,2.655,0.725L84.9,9.701c-0.902-0.269-1.813-0.518-2.731-0.745L81.766,10.582z M76.368,9.511
		c0.911,0.137,1.815,0.294,2.712,0.473l0.326-1.644c-0.923-0.184-1.853-0.346-2.789-0.486L76.368,9.511z M70.895,8.948
		c0.92,0.052,1.834,0.124,2.743,0.218l0.171-1.667c-0.934-0.096-1.875-0.171-2.821-0.224L70.895,8.948z M65.389,8.895
		c0.718-0.026,1.44-0.039,2.165-0.039c0.197,0,0.393,0.001,0.589,0.003l0.017-1.676c-0.202-0.002-0.403-0.003-0.605-0.003
		c-0.745,0-1.486,0.014-2.225,0.04L65.389,8.895z M59.905,9.348c0.906-0.117,1.818-0.215,2.737-0.29l-0.138-1.67
		c-0.944,0.078-1.883,0.178-2.814,0.299L59.905,9.348z M54.487,10.311c0.892-0.202,1.791-0.384,2.697-0.545l-0.293-1.649
		c-0.932,0.165-1.857,0.353-2.774,0.561L54.487,10.311z M49.184,11.778c0.869-0.285,1.748-0.551,2.634-0.796l-0.447-1.615
		c-0.912,0.252-1.816,0.525-2.71,0.819L49.184,11.778z M44.048,13.735c0.837-0.365,1.685-0.711,2.542-1.038l-0.597-1.565
		c-0.881,0.336-1.753,0.692-2.614,1.068L44.048,13.735z M39.122,16.165c0.8-0.442,1.612-0.867,2.435-1.272l-0.741-1.503
		c-0.847,0.417-1.682,0.854-2.505,1.309L39.122,16.165z M34.44,19.045c0.757-0.516,1.526-1.014,2.308-1.495l-0.878-1.427
		c-0.804,0.494-1.595,1.008-2.373,1.538L34.44,19.045z M30.045,22.352c0.706-0.585,1.426-1.153,2.159-1.705l-1.007-1.339
		c-0.754,0.567-1.495,1.151-2.221,1.753L30.045,22.352z M25.974,26.053c0.649-0.647,1.314-1.28,1.993-1.898l-1.127-1.239
		c-0.698,0.635-1.381,1.285-2.049,1.952L25.974,26.053z M22.262,30.118c0.587-0.706,1.19-1.398,1.809-2.076l-1.237-1.129
		c-0.636,0.696-1.256,1.408-1.86,2.135L22.262,30.118z M18.943,34.513c0.519-0.758,1.055-1.504,1.608-2.235l-1.337-1.011
		c-0.569,0.754-1.121,1.521-1.654,2.3L18.943,34.513z M16.047,39.2c0.446-0.805,0.911-1.597,1.393-2.378l-1.425-0.881
		c-0.496,0.803-0.974,1.618-1.433,2.445L16.047,39.2z M13.602,44.14c0.369-0.843,0.757-1.677,1.165-2.499l-1.501-0.743
		c-0.419,0.846-0.818,1.703-1.198,2.57L13.602,44.14z M11.631,49.291c0.288-0.876,0.597-1.742,0.925-2.6l-1.565-0.599
		c-0.337,0.882-0.655,1.773-0.952,2.674L11.631,49.291z M10.157,54.593c0.205-0.897,0.429-1.787,0.674-2.668l-1.614-0.449
		c-0.252,0.907-0.483,1.821-0.694,2.745L10.157,54.593z M9.188,60.01c0.12-0.914,0.26-1.82,0.421-2.72L7.96,56.995
		c-0.166,0.925-0.31,1.857-0.433,2.797L9.188,60.01z M8.729,65.493c0.034-0.921,0.089-1.837,0.166-2.747l-1.669-0.14
		c-0.079,0.936-0.135,1.878-0.171,2.825L8.729,65.493z M8.777,70.998c-0.05-0.911-0.079-1.829-0.087-2.752l-1.675,0.015
		c0.008,0.948,0.039,1.892,0.09,2.829L8.777,70.998z M9.334,76.473c-0.135-0.903-0.249-1.813-0.342-2.73l-1.667,0.17
		c0.096,0.942,0.213,1.879,0.352,2.808L9.334,76.473z M10.399,81.871c-0.219-0.888-0.418-1.783-0.596-2.687l-1.644,0.324
		c0.184,0.93,0.388,1.851,0.613,2.764L10.399,81.871z M11.968,87.146c-0.302-0.864-0.584-1.737-0.846-2.618l-1.606,0.478
		c0.27,0.906,0.56,1.805,0.871,2.693L11.968,87.146z M14.023,92.243c-0.381-0.83-0.744-1.671-1.086-2.521l-1.554,0.626
		c0.353,0.875,0.726,1.74,1.118,2.595L14.023,92.243z M16.545,97.124c-0.458-0.793-0.897-1.597-1.319-2.411l-1.488,0.77
		c0.433,0.838,0.885,1.664,1.356,2.479L16.545,97.124z M19.514,101.75c-0.53-0.747-1.043-1.507-1.539-2.279l-1.41,0.905
		c0.51,0.794,1.037,1.576,1.583,2.344L19.514,101.75z M22.903,106.083c-0.598-0.695-1.18-1.404-1.745-2.127l-1.32,1.032
		c0.581,0.743,1.179,1.473,1.794,2.188L22.903,106.083z M26.681,110.084c-0.66-0.637-1.306-1.289-1.936-1.957l-1.218,1.15
		c0.648,0.687,1.312,1.357,1.991,2.013L26.681,110.084z M30.816,113.719c-0.717-0.573-1.42-1.163-2.11-1.77l-1.106,1.259
		c0.709,0.623,1.432,1.229,2.17,1.819L30.816,113.719z M35.273,116.955c-0.768-0.505-1.524-1.027-2.267-1.566l-0.984,1.356
		c0.764,0.554,1.541,1.091,2.331,1.61L35.273,116.955z M40.014,119.762c-0.813-0.431-1.614-0.881-2.404-1.348l-0.854,1.441
		c0.812,0.48,1.636,0.943,2.473,1.387L40.014,119.762z M45,122.112c-0.851-0.353-1.691-0.726-2.521-1.116l-0.715,1.516
		c0.854,0.402,1.718,0.785,2.593,1.148L45,122.112z M50.189,123.985c-0.881-0.272-1.754-0.564-2.617-0.875l-0.569,1.575
		c0.888,0.321,1.785,0.621,2.692,0.9L50.189,123.985z M55.518,125.356c-0.901-0.188-1.795-0.395-2.681-0.623l-0.418,1.623
		c0.911,0.234,1.831,0.448,2.758,0.641L55.518,125.356z M60.952,126.222c-0.916-0.102-1.825-0.225-2.728-0.369l-0.263,1.655
		c0.928,0.147,1.863,0.274,2.805,0.38L60.952,126.222z M66.444,126.578c-0.922-0.018-1.839-0.056-2.75-0.114l-0.108,1.672
		c0.937,0.061,1.879,0.1,2.827,0.117L66.444,126.578z M71.947,126.427c-0.911,0.067-1.828,0.113-2.75,0.139l0.047,1.675
		c0.947-0.025,1.89-0.073,2.826-0.143L71.947,126.427z M77.41,125.767c-0.9,0.152-1.809,0.283-2.724,0.394l0.2,1.664
		c0.941-0.114,1.875-0.249,2.802-0.405L77.41,125.767z M82.787,124.599c-0.883,0.235-1.775,0.451-2.675,0.647l0.356,1.637
		c0.925-0.201,1.842-0.423,2.751-0.666L82.787,124.599z M88.03,122.93c-0.858,0.318-1.726,0.617-2.603,0.896l0.509,1.597
		c0.901-0.287,1.794-0.594,2.677-0.922L88.03,122.93z M93.082,120.78c-0.823,0.396-1.656,0.774-2.501,1.134l0.655,1.542
		c0.869-0.369,1.727-0.759,2.574-1.167L93.082,120.78z M97.914,118.165c-0.783,0.473-1.578,0.928-2.385,1.364l0.797,1.474
		c0.83-0.449,1.648-0.917,2.454-1.403L97.914,118.165z M102.484,115.109c-0.736,0.544-1.486,1.071-2.25,1.581l0.932,1.393
		c0.785-0.524,1.557-1.066,2.314-1.626L102.484,115.109z M106.754,111.639c-0.684,0.611-1.383,1.206-2.095,1.785l1.058,1.3
		c0.731-0.595,1.449-1.207,2.152-1.835L106.754,111.639z M110.684,107.786c-0.625,0.672-1.266,1.33-1.92,1.972l1.172,1.197
		c0.674-0.661,1.333-1.337,1.975-2.028L110.684,107.786z M114.24,103.583c-0.561,0.728-1.137,1.442-1.729,2.143l1.278,1.083
		c0.61-0.721,1.203-1.455,1.779-2.204L114.24,103.583z M117.392,99.065c-0.49,0.777-0.998,1.543-1.523,2.296l1.374,0.958
		c0.541-0.773,1.063-1.561,1.566-2.36L117.392,99.065z M120.107,94.271c-0.415,0.82-0.85,1.631-1.302,2.429l1.458,0.826
		c0.465-0.821,0.912-1.654,1.34-2.499L120.107,94.271L120.107,94.271z M122.363,89.24c-0.336,0.857-0.693,1.705-1.068,2.542
		l1.529,0.686c0.386-0.86,0.752-1.732,1.1-2.614L122.363,89.24z M124.135,84.023c-0.255,0.884-0.529,1.76-0.823,2.626l1.587,0.539
		c0.303-0.892,0.584-1.792,0.846-2.702L124.135,84.023z M125.404,78.669c-0.17,0.905-0.361,1.803-0.572,2.692l1.631,0.387
		c0.217-0.915,0.413-1.838,0.588-2.769L125.404,78.669z M126.167,73.22c-0.085,0.917-0.19,1.829-0.317,2.733l1.66,0.232
		c0.129-0.931,0.238-1.868,0.326-2.812L126.167,73.22z"/>
	
		<linearGradient id="SVGID_1_" gradientUnits="userSpaceOnUse" x1="-341.4604" y1="367.7695" x2="-340.4604" y2="367.7695" gradientTransform="matrix(28.4868 0 0 -28.4868 9765.0625 10509.8906)">
		<stop  offset="0" style="stop-color:#66B8E7"/>
		<stop  offset="1" style="stop-color:#1A75BC"/>
	</linearGradient>
	<path fill="url(#SVGID_1_)" d="M38.092,22.963c8.344-5.654,18.433-8.53,28.475-8.738c0,12.708,0,25.417,0,38.123
		c-9.495,0.004-18.99,0.004-28.485,0C38.089,42.554,38.067,32.758,38.092,22.963z"/>
	
		<linearGradient id="SVGID_2_" gradientUnits="userSpaceOnUse" x1="-341.207" y1="367.8242" x2="-340.207" y2="367.8242" gradientTransform="matrix(27.8745 0 0 -27.8745 9577.4375 10286.2031)">
		<stop  offset="0" style="stop-color:#85C441"/>
		<stop  offset="0.25" style="stop-color:#85C441"/>
		<stop  offset="1" style="stop-color:#478B42"/>
	</linearGradient>
	<path fill="url(#SVGID_2_)" d="M66.566,14.225c9.75-0.176,19.496,2.537,27.865,7.513l0.01,0.13c-0.004,10.16,0,20.32-0.002,30.48
		c-9.291,0.004-18.582,0.004-27.873,0C66.566,39.642,66.566,26.933,66.566,14.225z"/>
	
		<linearGradient id="SVGID_3_" gradientUnits="userSpaceOnUse" x1="-339.1328" y1="368.2656" x2="-338.1328" y2="368.2656" gradientTransform="matrix(23.7046 0 0 -23.7046 8133.5156 8766.6875)">
		<stop  offset="0" style="stop-color:#FFE794"/>
		<stop  offset="0.1603" style="stop-color:#FFE591"/>
		<stop  offset="0.2994" style="stop-color:#FFE188"/>
		<stop  offset="0.4307" style="stop-color:#FFDB79"/>
		<stop  offset="0.5572" style="stop-color:#FFD162"/>
		<stop  offset="0.6791" style="stop-color:#FFC640"/>
		<stop  offset="0.7946" style="stop-color:#FDB813"/>
		<stop  offset="1" style="stop-color:#FCB415"/>
	</linearGradient>
	<path fill="url(#SVGID_3_)" d="M94.441,21.867c0.57,0.093,0.994,0.551,1.492,0.813c10.641,6.81,18.697,17.548,22.21,29.681
		c-7.902-0.025-15.804,0-23.704-0.013C94.441,42.188,94.438,32.027,94.441,21.867z"/>
	
		<linearGradient id="SVGID_4_" gradientUnits="userSpaceOnUse" x1="-337.9697" y1="368.5205" x2="-336.9697" y2="368.5205" gradientTransform="matrix(21.8706 0 0 -21.8706 7407.7656 8097.4375)">
		<stop  offset="0" style="stop-color:#F79F89"/>
		<stop  offset="1" style="stop-color:#DE3428"/>
	</linearGradient>
	<path fill="url(#SVGID_4_)" d="M26.044,33.72c3.452-4.146,7.426-7.94,12.048-10.757c-0.024,9.795-0.003,19.591-0.011,29.385
		c-7.286,0.013-14.573-0.01-21.86,0.013C18.152,45.564,21.563,39.181,26.044,33.72z"/>
	
		<linearGradient id="SVGID_5_" gradientUnits="userSpaceOnUse" x1="-349.9067" y1="365.9473" x2="-348.9067" y2="365.9473" gradientTransform="matrix(106.2607 0 0 -106.2607 37195 38972.1875)">
		<stop  offset="0" style="stop-color:#797676"/>
		<stop  offset="1" style="stop-color:#42403F"/>
	</linearGradient>
	<path fill="url(#SVGID_5_)" d="M16.221,52.36c7.287-0.022,14.574,0,21.86-0.013c9.495,0.004,18.99,0.004,28.485,0
		c9.291,0.004,18.582,0.004,27.873,0c7.9,0.013,15.802-0.013,23.704,0.013c1.866,6.457,2.55,13.262,1.964,19.952
		c-1.184,12.532-6.936,24.604-16.057,33.297c-5.426,5.312-12.076,9.348-19.232,11.865c-11.864,4.176-25.246,4.062-36.949-0.626
		c-11.801-4.537-21.833-13.485-27.686-24.692C13.783,80.072,12.272,65.47,16.221,52.36z"/>
	<path fill="#010101" d="M69.654,72.938c-2.102-1.486-6.12-5.104-6.12-7.229c0-2.491,0.712-3.719,4.463-6.649
		c3.845-3.006,6.565-7.228,6.565-12.141c0-5.85-2.605-11.549-7.495-13.43h7.372l5.203-3.761H56.395
		c-10.423,0-20.232,7.896-20.232,17.044c0,9.347,7.105,16.889,17.708,16.889c0.736,0,1.453-0.013,2.155-0.065
		c-0.687,1.318-1.179,2.802-1.179,4.345c0,2.595,1.397,4.702,3.164,6.42c-1.334,0-2.624,0.04-4.03,0.04
		c-12.911,0-22.848,8.223-22.848,16.749c0,8.395,10.894,13.648,23.803,13.648c14.718,0,22.849-8.35,22.849-16.749
		C77.785,81.315,75.798,77.281,69.654,72.938 M57.235,61.291c-5.989-0.178-11.683-6.703-12.716-14.565
		c-1.033-7.865,2.982-13.884,8.971-13.705c5.988,0.177,11.682,6.491,12.716,14.355C67.239,55.24,63.221,61.47,57.235,61.291
		 M54.889,101.084c-8.921,0-15.368-5.647-15.368-12.434c0-6.648,7.995-12.185,16.918-12.088c2.082,0.021,4.021,0.356,5.783,0.927
		c4.844,3.369,8.319,5.271,9.299,9.111c0.187,0.778,0.285,1.579,0.285,2.398C71.807,95.78,67.434,101.084,54.889,101.084"/>
	<g>
		<defs>
			<path id="SVGID_6_" d="M39.521,87.708c0-6.651,7.992-12.187,16.92-12.087c2.079,0.026,4.014,0.359,5.778,0.927
				c4.851,3.366,8.325,5.273,9.306,9.107c0.18,0.783,0.279,1.584,0.279,2.403c0,6.786-4.374,12.087-16.92,12.087
				C45.966,100.146,39.521,94.494,39.521,87.708 M57.234,60.348c-5.985-0.18-11.682-6.696-12.717-14.562
				c-1.035-7.866,2.988-13.888,8.973-13.707c5.985,0.18,11.682,6.488,12.717,14.354c1.017,7.758-2.871,13.923-8.721,13.923
				L57.234,60.348 M56.396,28.785c-10.422,0-20.232,7.901-20.232,17.046c0,9.342,7.101,16.884,17.703,16.884
				c0.738,0,1.458-0.009,2.16-0.063c-0.693,1.323-1.179,2.809-1.179,4.348c0,2.592,1.395,4.707,3.159,6.417
				c-1.332,0-2.619,0.045-4.032,0.045c-12.906,0-22.842,8.217-22.842,16.739c0,8.406,10.89,13.653,23.805,13.653
				c14.716,0,22.843-8.352,22.843-16.749c0-6.731-1.98-10.764-8.127-15.11c-2.098-1.485-6.121-5.104-6.121-7.228
				c0-2.493,0.711-3.717,4.464-6.651c3.843-3.006,6.561-7.227,6.561-12.141c0-5.841-2.602-11.547-7.488-13.428h7.371l5.202-3.762
				H56.396"/>
		</defs>
		<clipPath id="SVGID_7_">
			<use xlink:href="#SVGID_6_"  overflow="visible"/>
		</clipPath>
		
			<linearGradient id="SVGID_8_" gradientUnits="userSpaceOnUse" x1="-353.917" y1="361.0264" x2="-352.917" y2="361.0264" gradientTransform="matrix(0 77.3751 -77.3751 0 27989.875 27412.875)">
			<stop  offset="0" style="stop-color:#F8F9FA"/>
			<stop  offset="1" style="stop-color:#D2D2D4"/>
		</linearGradient>
		<rect x="31.133" y="28.789" clip-path="url(#SVGID_7_)" fill="url(#SVGID_8_)" width="48.51" height="75.068"/>
	</g>
	<polygon fill="#010101" points="110.064,57.922 97.615,57.922 97.615,45.472 90.291,45.472 90.291,57.922 77.842,57.922 
		77.842,65.246 90.291,65.246 90.068,77.697 97.838,77.697 97.615,65.246 110.064,65.246 	"/>
	<g>
		<defs>
			<polyline id="SVGID_9_" points="90.552,45.281 90.552,57.369 78.465,57.369 78.465,64.479 90.552,64.479 90.552,76.565 
				97.662,76.565 97.662,64.479 109.748,64.479 109.748,57.369 97.662,57.369 97.662,45.281 90.552,45.281 			"/>
		</defs>
		<clipPath id="SVGID_10_">
			<use xlink:href="#SVGID_9_"  overflow="visible"/>
		</clipPath>
		
			<linearGradient id="SVGID_11_" gradientUnits="userSpaceOnUse" x1="-355.2534" y1="354.8262" x2="-354.2534" y2="354.8262" gradientTransform="matrix(0 31.4715 -31.4715 0 11261.0156 11225.875)">
			<stop  offset="0" style="stop-color:#F8F9FA"/>
			<stop  offset="1" style="stop-color:#D2D2D4"/>
		</linearGradient>
		<rect x="78.464" y="45.28" clip-path="url(#SVGID_10_)" fill="url(#SVGID_11_)" width="31.285" height="31.284"/>
	</g>
</g>
</svg>
