<?xml version="1.0" encoding="iso-8859-1"?>
<!-- Generator: Adobe Illustrator 16.0.0, SVG Export Plug-In . SVG Version: 6.00 Build 0)  -->
<!DOCTYPE svg PUBLIC "-//W3C//DTD SVG 1.0//EN" "http://www.w3.org/TR/2001/REC-SVG-20010904/DTD/svg10.dtd">
<svg version="1.0" id="Layer_1" xmlns="http://www.w3.org/2000/svg" xmlns:xlink="http://www.w3.org/1999/xlink" x="0px" y="0px"
	 width="136.06px" height="136.06px" viewBox="0 0 136.06 136.06" enable-background="new 0 0 136.06 136.06" xml:space="preserve">
<g>
	<path fill="#010101" d="M126.587,66.595c0.006,0.351,0.009,0.702,0.009,1.055c0,0.923-0.021,1.84-0.063,2.752l1.674,0.077
		c0.044-0.938,0.065-1.881,0.065-2.829c0-0.362-0.003-0.724-0.01-1.084L126.587,66.595z M126.236,61.103
		c0.1,0.907,0.18,1.822,0.238,2.742l1.672-0.107c-0.06-0.945-0.142-1.886-0.245-2.819L126.236,61.103z M125.376,55.668
		c0.185,0.895,0.35,1.797,0.493,2.707l1.655-0.262c-0.148-0.936-0.317-1.864-0.508-2.785L125.376,55.668z M124.009,50.338
		c0.269,0.874,0.518,1.757,0.746,2.648l1.623-0.416c-0.234-0.917-0.49-1.825-0.767-2.725L124.009,50.338z M122.147,45.159
		c0.35,0.847,0.681,1.702,0.992,2.567l1.576-0.567c-0.32-0.89-0.66-1.771-1.021-2.641L122.147,45.159z M119.812,40.188
		c0.428,0.809,0.836,1.629,1.227,2.459l1.517-0.713c-0.401-0.854-0.822-1.696-1.262-2.528L119.812,40.188z M117.02,35.455
		c0.502,0.766,0.986,1.544,1.452,2.335l1.443-0.852c-0.479-0.813-0.978-1.613-1.493-2.401L117.02,35.455z M113.797,30.999
		c0.571,0.717,1.126,1.447,1.664,2.19l1.357-0.981c-0.553-0.765-1.123-1.516-1.711-2.253L113.797,30.999z M110.173,26.859
		c0.636,0.661,1.256,1.338,1.86,2.028l1.261-1.104c-0.622-0.71-1.26-1.405-1.913-2.085L110.173,26.859z M106.178,23.072
		c0.694,0.601,1.375,1.216,2.042,1.848l1.152-1.216c-0.685-0.649-1.385-1.283-2.1-1.899L106.178,23.072z M101.846,19.672
		c0.749,0.533,1.484,1.083,2.206,1.65l1.034-1.318c-0.742-0.583-1.498-1.148-2.268-1.696L101.846,19.672z M97.215,16.688
		c0.796,0.462,1.579,0.94,2.351,1.438l0.907-1.408c-0.793-0.511-1.599-1.004-2.417-1.479L97.215,16.688z M92.322,14.15
		c0.837,0.386,1.662,0.789,2.477,1.212l0.771-1.487c-0.838-0.435-1.687-0.851-2.547-1.246L92.322,14.15z M87.211,12.083
		c0.869,0.305,1.729,0.63,2.58,0.974l0.629-1.553c-0.875-0.354-1.761-0.688-2.655-1.002L87.211,12.083z M81.938,10.509
		c0.894,0.222,1.778,0.464,2.655,0.726l0.479-1.606c-0.901-0.269-1.812-0.518-2.73-0.745L81.938,10.509z M76.54,9.438
		c0.911,0.136,1.814,0.294,2.712,0.472l0.326-1.644c-0.923-0.183-1.853-0.345-2.789-0.485L76.54,9.438L76.54,9.438z M71.065,8.876
		C71.986,8.928,72.901,9,73.81,9.094l0.171-1.667c-0.935-0.096-1.875-0.171-2.821-0.224L71.065,8.876z M65.562,8.822
		c0.719-0.026,1.441-0.039,2.167-0.039c0.195,0,0.391,0.001,0.586,0.003l0.017-1.676c-0.201-0.002-0.401-0.003-0.603-0.003
		c-0.746,0-1.488,0.014-2.229,0.04L65.562,8.822L65.562,8.822z M60.076,9.275c0.906-0.117,1.818-0.214,2.737-0.29l-0.139-1.67
		c-0.944,0.078-1.882,0.178-2.814,0.299L60.076,9.275z M54.659,10.239c0.892-0.202,1.79-0.385,2.697-0.546l-0.293-1.649
		c-0.933,0.166-1.857,0.353-2.775,0.561L54.659,10.239z M49.355,11.707c0.87-0.286,1.748-0.552,2.635-0.797l-0.447-1.615
		c-0.912,0.253-1.815,0.526-2.71,0.819L49.355,11.707z M44.221,13.664c0.837-0.365,1.685-0.711,2.541-1.038l-0.597-1.565
		c-0.882,0.336-1.753,0.692-2.614,1.067L44.221,13.664z M39.294,16.094c0.801-0.443,1.612-0.867,2.436-1.272l-0.741-1.503
		c-0.847,0.417-1.682,0.854-2.505,1.309L39.294,16.094z M34.612,18.974c0.757-0.516,1.526-1.014,2.308-1.495l-0.878-1.427
		c-0.804,0.494-1.595,1.008-2.373,1.538L34.612,18.974z M30.217,22.28c0.707-0.585,1.427-1.153,2.16-1.704l-1.008-1.34
		c-0.754,0.567-1.494,1.152-2.221,1.753L30.217,22.28L30.217,22.28z M26.146,25.982c0.649-0.648,1.314-1.281,1.993-1.898
		l-1.127-1.24c-0.698,0.635-1.382,1.286-2.049,1.952L26.146,25.982z M22.435,30.048c0.587-0.706,1.189-1.398,1.809-2.076
		l-1.237-1.13c-0.637,0.696-1.257,1.408-1.86,2.135L22.435,30.048z M19.115,34.442c0.519-0.759,1.056-1.504,1.608-2.236l-1.337-1.01
		c-0.569,0.753-1.12,1.52-1.654,2.3L19.115,34.442z M16.219,39.129c0.447-0.804,0.911-1.597,1.394-2.377l-1.425-0.881
		c-0.496,0.803-0.975,1.618-1.434,2.445L16.219,39.129z M13.774,44.069c0.369-0.844,0.757-1.677,1.164-2.499l-1.501-0.743
		c-0.419,0.846-0.818,1.702-1.198,2.57L13.774,44.069z M11.804,49.22c0.288-0.875,0.597-1.742,0.925-2.599l-1.565-0.599
		c-0.337,0.881-0.654,1.772-0.951,2.674L11.804,49.22z M10.33,54.522c0.204-0.897,0.43-1.787,0.674-2.669L9.39,51.405
		c-0.252,0.906-0.483,1.821-0.693,2.745L10.33,54.522z M9.361,59.938c0.12-0.913,0.26-1.819,0.421-2.72l-1.649-0.295
		c-0.165,0.926-0.31,1.858-0.433,2.798L9.361,59.938z M8.902,65.423c0.034-0.921,0.09-1.837,0.166-2.747l-1.67-0.14
		c-0.078,0.936-0.135,1.877-0.17,2.824L8.902,65.423z M8.951,70.928c-0.051-0.912-0.08-1.829-0.088-2.752L7.188,68.19
		c0.008,0.948,0.038,1.892,0.09,2.829L8.951,70.928z M9.508,76.402c-0.135-0.903-0.249-1.814-0.343-2.73l-1.667,0.169
		c0.096,0.943,0.214,1.879,0.353,2.809L9.508,76.402z M10.573,81.801c-0.22-0.888-0.418-1.783-0.597-2.687l-1.644,0.324
		c0.184,0.929,0.388,1.851,0.613,2.764L10.573,81.801z M12.142,87.075c-0.302-0.864-0.584-1.737-0.847-2.619l-1.605,0.478
		c0.27,0.907,0.56,1.806,0.87,2.694L12.142,87.075z M14.196,92.173c-0.381-0.831-0.743-1.672-1.086-2.522l-1.554,0.627
		c0.353,0.875,0.726,1.74,1.117,2.594L14.196,92.173z M16.72,97.053c-0.458-0.792-0.897-1.596-1.319-2.411l-1.488,0.77
		c0.434,0.838,0.886,1.665,1.356,2.479L16.72,97.053z M19.688,101.68c-0.53-0.747-1.043-1.507-1.539-2.279l-1.41,0.905
		c0.51,0.794,1.038,1.575,1.583,2.344L19.688,101.68z M23.077,106.012c-0.598-0.695-1.18-1.404-1.745-2.127l-1.319,1.032
		c0.581,0.743,1.18,1.473,1.794,2.188L23.077,106.012z M26.855,110.014c-0.66-0.638-1.306-1.29-1.936-1.957l-1.219,1.15
		c0.648,0.686,1.312,1.356,1.991,2.012L26.855,110.014z M30.99,113.647c-0.717-0.573-1.42-1.163-2.109-1.769l-1.106,1.258
		c0.709,0.623,1.433,1.229,2.17,1.819L30.99,113.647z M35.447,116.884c-0.768-0.505-1.523-1.027-2.266-1.566l-0.984,1.356
		c0.764,0.554,1.54,1.091,2.33,1.61L35.447,116.884z M40.189,119.69c-0.813-0.432-1.614-0.881-2.404-1.349l-0.854,1.442
		c0.813,0.48,1.637,0.943,2.473,1.387L40.189,119.69z M45.176,122.041c-0.851-0.354-1.691-0.726-2.521-1.117l-0.715,1.516
		c0.854,0.402,1.719,0.786,2.594,1.149L45.176,122.041z M50.364,123.913c-0.882-0.271-1.754-0.563-2.617-0.875l-0.568,1.576
		c0.888,0.32,1.785,0.62,2.691,0.899L50.364,123.913z M55.693,125.284c-0.901-0.187-1.795-0.395-2.681-0.623l-0.418,1.623
		c0.911,0.234,1.83,0.448,2.758,0.641L55.693,125.284z M61.127,126.149c-0.915-0.102-1.824-0.225-2.727-0.368l-0.264,1.654
		c0.928,0.147,1.863,0.274,2.805,0.38L61.127,126.149z M66.619,126.506c-0.922-0.018-1.839-0.056-2.75-0.114l-0.108,1.672
		c0.937,0.061,1.88,0.1,2.827,0.117L66.619,126.506z M72.122,126.354c-0.91,0.067-1.827,0.113-2.749,0.139l0.046,1.675
		c0.947-0.025,1.89-0.073,2.827-0.143L72.122,126.354z M77.585,125.694c-0.9,0.151-1.809,0.283-2.724,0.394l0.201,1.664
		c0.94-0.114,1.875-0.249,2.802-0.405L77.585,125.694z M82.962,124.525c-0.883,0.236-1.774,0.452-2.675,0.647l0.356,1.638
		c0.925-0.201,1.842-0.423,2.751-0.666L82.962,124.525z M88.205,122.856c-0.857,0.318-1.725,0.618-2.602,0.896l0.508,1.597
		c0.902-0.287,1.794-0.595,2.677-0.922L88.205,122.856z M93.258,120.707c-0.823,0.397-1.657,0.775-2.502,1.135l0.656,1.542
		c0.868-0.37,1.726-0.759,2.573-1.167L93.258,120.707L93.258,120.707z M98.09,118.093c-0.784,0.473-1.579,0.928-2.386,1.364
		l0.797,1.474c0.83-0.449,1.648-0.917,2.454-1.403L98.09,118.093z M102.66,115.036c-0.737,0.545-1.487,1.072-2.25,1.582l0.932,1.393
		c0.784-0.524,1.556-1.066,2.313-1.626L102.66,115.036z M106.929,111.566c-0.684,0.611-1.382,1.206-2.095,1.785l1.058,1.3
		c0.732-0.595,1.45-1.207,2.153-1.835L106.929,111.566z M110.858,107.714c-0.625,0.672-1.265,1.329-1.92,1.972l1.173,1.197
		c0.674-0.661,1.332-1.337,1.975-2.028L110.858,107.714z M114.415,103.511c-0.56,0.728-1.137,1.442-1.729,2.143l1.279,1.083
		c0.609-0.721,1.202-1.455,1.778-2.204L114.415,103.511z M117.566,98.993c-0.49,0.777-0.998,1.543-1.522,2.296l1.374,0.958
		c0.54-0.773,1.063-1.561,1.566-2.36L117.566,98.993z M120.283,94.198c-0.416,0.821-0.85,1.632-1.303,2.43l1.458,0.826
		c0.466-0.821,0.912-1.654,1.34-2.499L120.283,94.198z M122.539,89.168c-0.337,0.857-0.693,1.705-1.069,2.542l1.529,0.686
		c0.386-0.86,0.753-1.732,1.1-2.614L122.539,89.168z M124.31,83.951c-0.254,0.884-0.528,1.76-0.823,2.626l1.587,0.539
		c0.303-0.892,0.585-1.792,0.847-2.702L124.31,83.951z M125.58,78.597c-0.171,0.905-0.361,1.803-0.572,2.692l1.63,0.387
		c0.218-0.915,0.414-1.838,0.589-2.769L125.58,78.597z M126.343,73.147c-0.085,0.917-0.191,1.829-0.317,2.733l1.659,0.232
		c0.13-0.931,0.239-1.868,0.326-2.812L126.343,73.147z"/>
	
		<linearGradient id="SVGID_1_" gradientUnits="userSpaceOnUse" x1="-354.8384" y1="365.9434" x2="-353.8384" y2="365.9434" gradientTransform="matrix(106.1387 0 0 -106.1387 37676.625 38908.5625)">
		<stop  offset="0" style="stop-color:#FAAB4F"/>
		<stop  offset="1" style="stop-color:#F58020"/>
	</linearGradient>
	<path fill="url(#SVGID_1_)" d="M85.376,17.823c-27.614-9.81-57.946,4.624-67.753,32.238c-9.808,27.612,4.625,57.944,32.236,67.753
		c27.609,9.809,57.943-4.625,67.752-32.236C127.419,57.963,112.988,27.631,85.376,17.823z"/>
	
		<linearGradient id="SVGID_2_" gradientUnits="userSpaceOnUse" x1="-350.5591" y1="371.9805" x2="-349.5584" y2="371.9805" gradientTransform="matrix(-1.000000e-006 -29.0835 -29.0835 1.000000e-006 10865.5781 -10096.5313)">
		<stop  offset="0" style="stop-color:#FED2A6"/>
		<stop  offset="1" style="stop-color:#EE7D2F"/>
	</linearGradient>
	<path fill="url(#SVGID_2_)" d="M47.05,78.723c-5.909,0-10.716,4.801-10.716,10.698c0,5.888,4.807,10.691,10.716,10.691
		c5.918,0,10.73-4.804,10.73-10.691C57.78,83.523,52.968,78.723,47.05,78.723z"/>
	
		<linearGradient id="SVGID_3_" gradientUnits="userSpaceOnUse" x1="-350.5591" y1="371.9883" x2="-349.5591" y2="371.9883" gradientTransform="matrix(-1.000000e-006 -29.0874 -29.0874 1.000000e-006 10878.7344 -10097.7344)">
		<stop  offset="0" style="stop-color:#FED2A6"/>
		<stop  offset="1" style="stop-color:#EE7D2F"/>
	</linearGradient>
	<path fill="url(#SVGID_3_)" d="M39.264,55.676H36.34v17.078h2.924c6.523,0,12.657,2.537,17.281,7.167
		c4.616,4.617,7.162,10.77,7.162,17.333v2.925h17.12v-2.925C80.827,74.333,62.181,55.676,39.264,55.676z"/>
	
		<linearGradient id="SVGID_4_" gradientUnits="userSpaceOnUse" x1="-350.5586" y1="371.9873" x2="-349.5586" y2="371.9873" gradientTransform="matrix(-1.000000e-006 -29.0833 -29.0833 1.000000e-006 10887.1719 -10096.2656)">
		<stop  offset="0" style="stop-color:#FED2A6"/>
		<stop  offset="1" style="stop-color:#EE7D2F"/>
	</linearGradient>
	<path fill="url(#SVGID_4_)" d="M39.282,35.796h-2.925v17.069h2.925c24.446,0,44.333,19.912,44.333,44.389v2.925h17.104v-2.925
		C100.719,63.356,73.156,35.796,39.282,35.796z"/>
	<path fill="#FFFFFF" d="M47.05,81.647c-4.3,0-7.792,3.501-7.792,7.773c0,4.287,3.492,7.764,7.792,7.764
		c4.315,0,7.802-3.477,7.802-7.764C54.852,85.148,51.365,81.647,47.05,81.647z"/>
	<path fill="#FFFFFF" d="M39.264,58.604v11.226c7.312,0,14.177,2.847,19.352,8.025c5.167,5.165,8.02,12.059,8.02,19.399h11.264
		C77.898,75.931,60.563,58.604,39.264,58.604z"/>
	<path fill="#FFFFFF" d="M39.282,38.721v11.217c26.054,0,47.259,21.228,47.259,47.316H97.79
		C97.79,64.98,71.544,38.721,39.282,38.721z"/>
</g>
</svg>
