<?xml version="1.0" encoding="iso-8859-1"?>
<!-- Generator: Adobe Illustrator 16.0.0, SVG Export Plug-In . SVG Version: 6.00 Build 0)  -->
<!DOCTYPE svg PUBLIC "-//W3C//DTD SVG 1.0//EN" "http://www.w3.org/TR/2001/REC-SVG-20010904/DTD/svg10.dtd">
<svg version="1.0" id="Layer_1" xmlns="http://www.w3.org/2000/svg" xmlns:xlink="http://www.w3.org/1999/xlink" x="0px" y="0px"
	 width="256px" height="256px" viewBox="0 0 256 256" enable-background="new 0 0 256 256" xml:space="preserve">
<g>
	<path fill="#ED1F24" d="M116.684,13.644c0,52.351-45.047,178.972-94.963,232.539c-1.218,1.219-2.435,2.436-3.654,2.436
		c-2.433,0-12.175-8.522-10.956-13.392C27.809,173.134,33.896,86.692,35.113,47.732c0-10.956,4.871-21.914,29.221-28.001
		C80.16,14.86,106.945,7.557,113.032,7.557c2.436,0,3.652,1.216,3.652,4.869V13.644z M249.392,13.644
		c0,52.351-45.047,178.972-94.965,232.539c-1.219,1.219-2.436,2.436-3.652,2.436c-2.434,0-10.958-8.522-9.74-13.392
		c19.479-62.093,25.567-148.535,26.784-187.494c0-10.956,4.87-20.697,29.22-28.001c15.827-4.871,43.831-12.175,48.699-12.175
		c2.436,0,3.654,1.216,3.654,4.869V13.644z"/>
</g>
</svg>
