<?xml version="1.0" encoding="iso-8859-1"?>
<!-- Generator: Adobe Illustrator 16.0.0, SVG Export Plug-In . SVG Version: 6.00 Build 0)  -->
<!DOCTYPE svg PUBLIC "-//W3C//DTD SVG 1.0//EN" "http://www.w3.org/TR/2001/REC-SVG-20010904/DTD/svg10.dtd">
<svg version="1.0" id="Layer_1" xmlns="http://www.w3.org/2000/svg" xmlns:xlink="http://www.w3.org/1999/xlink" x="0px" y="0px"
	 width="307px" height="73px" viewBox="0 0 307 73" enable-background="new 0 0 307 73" xml:space="preserve">
<g>
	<path fill-rule="evenodd" clip-rule="evenodd" d="M96.237,49.615c-2.759-5.03-7.465-7.032-12.928-7.032
		c-7.951,0-14.28,5.626-14.28,15.146c0,9.682,5.95,15.145,14.55,15.145c5.517,0,10.223-3.029,12.819-7.627l-6.058-3.083
		c-1.353,3.246-3.408,4.22-6.004,4.22c-4.49,0-6.545-3.732-6.545-8.654c0-4.923,1.731-8.655,6.545-8.655
		c1.298,0,3.895,0.703,5.409,3.948L96.237,49.615z"/>
	<path fill-rule="evenodd" clip-rule="evenodd" d="M111.701,49.074c4.814,0,6.87,3.732,6.87,8.33c0,5.247-2.056,8.979-6.87,8.979
		s-6.869-3.732-6.869-8.654C104.832,52.807,106.887,49.074,111.701,49.074z M111.701,42.583c-8.979,0-15.307,5.464-15.307,15.146
		c0,9.682,6.328,15.145,15.307,15.145s15.308-5.463,15.308-15.145C127.009,48.047,120.68,42.583,111.701,42.583z"/>
	<path fill-rule="evenodd" clip-rule="evenodd" d="M128.738,72.116h8.438V54.213c0-2.597,1.082-4.813,4.489-4.813
		c3.246,0,4.111,1.893,4.111,4.705v18.012h8.438V54.429c0-2.92,1.459-5.029,4.273-5.029c3.189,0,4.326,1.838,4.326,5.896v16.821
		h8.438v-21.96c0-6.599-6.057-7.573-8.871-7.573c-3.354,0-6.49,1.028-9.248,3.841c-1.894-2.542-4.327-3.841-7.627-3.841
		c-2.596,0-6.166,0.758-8.33,3.301v-2.543h-8.438V72.116z"/>
	<path fill-rule="evenodd" clip-rule="evenodd" d="M173.951,72.116h8.438V54.213c0-2.597,1.082-4.813,4.49-4.813
		c3.246,0,4.111,1.893,4.111,4.705v18.012h8.438V54.429c0-2.92,1.461-5.029,4.273-5.029c3.191,0,4.328,1.838,4.328,5.896v16.821
		h8.438v-21.96c0-6.599-6.059-7.573-8.871-7.573c-3.354,0-6.49,1.028-9.25,3.841c-1.893-2.542-4.326-3.841-7.627-3.841
		c-2.596,0-6.166,0.758-8.33,3.301v-2.543h-8.438V72.116z"/>
	<path fill-rule="evenodd" clip-rule="evenodd" d="M233.5,49.074c4.813,0,6.869,3.732,6.869,8.33c0,5.247-2.057,8.979-6.869,8.979
		c-4.814,0-6.871-3.732-6.871-8.654C226.629,52.807,228.686,49.074,233.5,49.074z M233.5,42.583c-8.98,0-15.309,5.464-15.309,15.146
		c0,9.682,6.328,15.145,15.309,15.145c8.979,0,15.307-5.463,15.307-15.145C248.807,48.047,242.479,42.583,233.5,42.583z"/>
	<path fill-rule="evenodd" clip-rule="evenodd" d="M251.076,72.116h8.438V54.213c0-2.597,1.082-4.813,4.49-4.813
		c3.246,0,4.111,1.893,4.111,4.705v18.012h8.438V50.859c0-4.327-1.893-8.276-8.709-8.276c-2.596,0-6.166,0.758-8.33,3.301v-2.543
		h-8.438V72.116z"/>
	<path fill-rule="evenodd" clip-rule="evenodd" d="M304.729,46.749c-3.895-2.597-8.275-4.166-12.711-4.166
		c-5.842,0-12.17,2.813-12.17,10.062c0,10.223,17.037,6.653,17.037,11.143c0,2.597-3.189,2.921-4.598,2.921
		c-3.84,0-6.49-1.568-9.086-4.057l-5.248,4.543c4.221,3.895,7.789,5.68,14.064,5.68c6.273,0,12.982-2.705,12.982-10.277
		c0-10.764-17.039-6.707-17.039-11.629c0-1.461,1.514-2.218,3.623-2.218c2.652,0,6.275,1.081,7.951,3.083L304.729,46.749z"/>
	<path fill-rule="evenodd" clip-rule="evenodd" d="M96.237,16.51c-2.759-5.03-7.465-7.032-12.928-7.032
		c-7.951,0-14.28,5.625-14.28,15.145c0,9.682,5.95,15.146,14.55,15.146c5.517,0,10.223-3.029,12.819-7.627l-6.058-3.083
		c-1.353,3.246-3.408,4.219-6.004,4.219c-4.49,0-6.545-3.732-6.545-8.655c0-4.922,1.731-8.654,6.545-8.654
		c1.298,0,3.895,0.703,5.409,3.949L96.237,16.51z"/>
	<path fill-rule="evenodd" clip-rule="evenodd" d="M98.295,39.011h8.438V22.352c0-3.191,2.001-4.057,7.032-4.652l0.919-0.108
		l-0.054-7.464c-2.975,0.217-6.058,1.298-7.897,3.029v-2.921h-8.438V39.011z"/>
	<path fill-rule="evenodd" clip-rule="evenodd" d="M143.341,26.354c-0.054-8.871-3.624-16.876-14.118-16.876
		c-8.763,0-14.118,5.842-14.118,16.011c0,8.113,5.193,14.28,14.118,14.28c6.437,0,11.034-2.543,13.955-7.951l-6.329-3.3
		c-2.434,3.462-3.895,5.084-7.032,5.084c-2.704,0-6.22-1.731-6.274-7.248H143.341z M123.436,21.162
		c0.378-3.787,3.299-5.517,5.733-5.517s5.463,1.298,5.733,5.517H123.436z"/>
	<path fill-rule="evenodd" clip-rule="evenodd" d="M162.697,27.003c0,4.381-2.488,6.599-5.787,6.599
		c-2.057,0-3.949-0.974-3.949-3.245c0-2.326,1.947-3.137,4.057-3.732l5.68-1.623V27.003z M170.811,17.808
		c-0.055-6.491-4.977-8.33-12.82-8.33c-3.895,0-11.574,0.757-11.845,9.033h8.114c0.432-2.867,1.73-3.84,4.434-3.84
		c2.273,0,4.004,0.919,4.004,3.083v2.38l-3.084,0.433c-9.195,1.298-14.766,3.732-14.766,10.656c0,5.517,4.111,8.546,9.627,8.546
		c3.029,0,7.248-1.461,8.654-3.732h0.109c0.053,0.974,0.217,2.002,0.541,2.975h7.789c-0.703-1.785-0.758-4.002-0.758-6.003V17.808z"
		/>
	<path fill-rule="evenodd" clip-rule="evenodd" d="M190.654,10.776h-5.031v-8.33h-8.439v8.33h-4.109v5.192h4.109v15.146
		c0,4.165,1.029,8.654,8.223,8.654c1.84,0,4.328-0.217,5.41-0.324v-6.653c-0.434,0.054-1.623,0.162-2.543,0.162
		c-1.516,0-2.65-0.595-2.65-2.867V15.969h5.031V10.776z"/>
	<path fill-rule="evenodd" clip-rule="evenodd" d="M193.832,10.235v28.775h8.438V10.235H193.832z M202.27,6.99V0.499h-8.438V6.99
		H202.27z"/>
	<polygon fill-rule="evenodd" clip-rule="evenodd" points="213.625,39.011 222.117,39.011 231.963,10.235 222.982,10.235 
		218.006,30.573 217.898,30.573 212.922,10.235 203.889,10.235 	"/>
	<path fill-rule="evenodd" clip-rule="evenodd" d="M259.211,26.354c-0.053-8.871-3.623-16.876-14.117-16.876
		c-8.764,0-14.117,5.842-14.117,16.011c0,8.113,5.191,14.28,14.117,14.28c6.438,0,11.035-2.543,13.955-7.951l-6.328-3.3
		c-2.434,3.462-3.895,5.084-7.031,5.084c-2.705,0-6.221-1.731-6.275-7.248H259.211z M239.307,21.162
		c0.379-3.787,3.299-5.517,5.732-5.517c2.436,0,5.465,1.298,5.734,5.517H239.307z"/>
	<g>
		<path fill-rule="evenodd" clip-rule="evenodd" d="M33.557,8.994c-8.682,0-16.322,3.213-22.226,9.203
			c-6.077,6.165-9.376,14.152-9.376,22.487c0,8.421,3.212,16.234,9.29,22.313c6.077,6.077,13.978,9.376,22.313,9.376
			s16.409-3.299,22.66-9.463c5.904-5.817,9.029-13.544,9.029-22.226c0-8.596-3.125-16.41-9.116-22.4
			C50.053,12.207,42.239,8.994,33.557,8.994z M33.644,14.725c7.119,0,13.457,2.691,18.406,7.64
			c4.861,4.862,7.466,11.287,7.466,18.32c0,7.119-2.518,13.369-7.38,18.146c-5.123,5.035-11.721,7.727-18.493,7.727
			c-6.859,0-13.284-2.691-18.232-7.64c-4.949-4.949-7.727-11.461-7.727-18.232c0-6.859,2.778-13.371,7.727-18.407
			C20.273,17.33,26.525,14.725,33.644,14.725z"/>
		<path fill-rule="evenodd" clip-rule="evenodd" d="M33.235,35.418c-1.79-3.264-4.844-4.563-8.389-4.563
			c-5.16,0-9.267,3.65-9.267,9.829c0,6.283,3.861,9.828,9.443,9.828c3.581,0,6.634-1.966,8.319-4.949l-3.932-2.001
			c-0.878,2.106-2.211,2.737-3.896,2.737c-2.914,0-4.247-2.422-4.247-5.615c0-3.195,1.123-5.617,4.247-5.617
			c0.842,0,2.527,0.457,3.51,2.563L33.235,35.418z"/>
		<path fill-rule="evenodd" clip-rule="evenodd" d="M51.517,35.418c-1.791-3.264-4.844-4.563-8.389-4.563
			c-5.16,0-9.268,3.65-9.268,9.829c0,6.283,3.862,9.828,9.443,9.828c3.581,0,6.634-1.966,8.319-4.949l-3.932-2.001
			c-0.877,2.106-2.211,2.737-3.896,2.737c-2.913,0-4.248-2.422-4.248-5.615c0-3.195,1.124-5.617,4.248-5.617
			c0.842,0,2.527,0.457,3.511,2.563L51.517,35.418z"/>
	</g>
</g>
</svg>
