<?xml version="1.0" encoding="iso-8859-1"?>
<!-- Generator: Adobe Illustrator 16.0.0, SVG Export Plug-In . SVG Version: 6.00 Build 0)  -->
<!DOCTYPE svg PUBLIC "-//W3C//DTD SVG 1.0//EN" "http://www.w3.org/TR/2001/REC-SVG-20010904/DTD/svg10.dtd">
<svg version="1.0" xmlns="http://www.w3.org/2000/svg" xmlns:xlink="http://www.w3.org/1999/xlink" x="0px" y="0px" width="256px"
	 height="256px" viewBox="0 0 256 256" enable-background="new 0 0 256 256" xml:space="preserve">
<g id="fundo">
</g>
<g id="icone">
	<path fill="#020202" d="M245.318,64.212c0,6.241-5.044,11.301-11.265,11.301H22.188c-6.221,0-11.264-5.06-11.264-11.301V28.839
		c0-6.242,5.043-11.301,11.264-11.301h211.865c6.221,0,11.265,5.06,11.265,11.301V64.212z"/>
	<path fill="#020202" d="M245.318,146.895c0,6.24-5.044,11.301-11.265,11.301H22.188c-6.221,0-11.264-5.061-11.264-11.301v-35.374
		c0-6.242,5.043-11.301,11.264-11.301h211.865c6.221,0,11.265,5.06,11.265,11.301V146.895z"/>
	<path fill="#020202" d="M245.318,229.016c0,6.24-5.044,11.301-11.265,11.301H22.188c-6.221,0-11.264-5.061-11.264-11.301v-35.373
		c0-6.242,5.043-11.302,11.264-11.302h211.865c6.221,0,11.265,5.06,11.265,11.302V229.016z"/>
</g>
</svg>
