<?xml version="1.0" encoding="iso-8859-1"?>
<!-- Generator: Adobe Illustrator 16.0.0, SVG Export Plug-In . SVG Version: 6.00 Build 0)  -->
<!DOCTYPE svg PUBLIC "-//W3C//DTD SVG 1.1//EN" "http://www.w3.org/Graphics/SVG/1.1/DTD/svg11.dtd">
<svg version="1.1" id="Layer_1" xmlns="http://www.w3.org/2000/svg" xmlns:xlink="http://www.w3.org/1999/xlink" x="0px" y="0px"
	 width="256px" height="256px" viewBox="0 0 256 256" enable-background="new 0 0 256 256" xml:space="preserve">
<circle fill="#1468C7" cx="127.977" cy="127.682" r="125.144"/>
<g>
	<g>
		
			<linearGradient id="SVGID_1_" gradientUnits="userSpaceOnUse" x1="22.8555" y1="131.7324" x2="222.1816" y2="131.7324" gradientTransform="matrix(1 0 0 1 6.0488 3.5381)">
			<stop  offset="0" style="stop-color:#BED5E5"/>
			<stop  offset="0.5" style="stop-color:#F7F7F7"/>
			<stop  offset="1" style="stop-color:#BED5E5"/>
		</linearGradient>
		<path fill="url(#SVGID_1_)" d="M228.23,187.603c0,0.795-0.653,1.445-1.446,1.448H30.354c-0.795,0-1.449-0.656-1.449-1.451V82.937
			c0-0.798,0.651-1.447,1.449-1.447h196.431c0.793,0,1.446,0.651,1.446,1.447V187.603z"/>
		
			<linearGradient id="SVGID_2_" gradientUnits="userSpaceOnUse" x1="122.519" y1="185.5127" x2="122.519" y2="100.0615" gradientTransform="matrix(1 0 0 1 6.0488 3.5381)">
			<stop  offset="0" style="stop-color:#6B6B6B"/>
			<stop  offset="0.0424" style="stop-color:#D9E6F0"/>
		</linearGradient>
		<path fill="url(#SVGID_2_)" d="M225.508,166.861c-0.092-0.795-0.719-1.788-1.389-2.222l-94.335-60.716
			c-0.668-0.433-1.766-0.433-2.434,0l-94.334,60.719c-0.674,0.431-1.299,1.429-1.395,2.219l-2.542,20.752
			c-0.096,0.79,0.479,1.438,1.274,1.438h196.431c0.793-0.003,1.37-0.647,1.271-1.438L225.508,166.861z"/>
		<linearGradient id="SVGID_3_" gradientUnits="userSpaceOnUse" x1="128.5664" y1="189.0508" x2="128.5664" y2="103.6001">
			<stop  offset="0" style="stop-color:#919191"/>
			<stop  offset="0.0424" style="stop-color:#E8E8E8"/>
			<stop  offset="0.1636" style="stop-color:#FFFFFF"/>
			<stop  offset="1" style="stop-color:#FFFFFF"/>
		</linearGradient>
		<path fill="url(#SVGID_3_)" d="M225.508,166.861c-0.092-0.795-0.719-1.788-1.389-2.222l-94.335-60.716
			c-0.331-0.216-0.775-0.324-1.214-0.324c-0.444,0-0.883,0.107-1.22,0.324l-94.334,60.719c-0.674,0.431-1.299,1.429-1.395,2.219
			l-2.542,20.752c-0.083,0.674,0.34,1.287,0.957,1.438c0.059-0.192-0.501-0.306-0.379-1.369l2.539-20.749
			c0.076-0.622,0.608-1.464,1.135-1.806l94.334-60.719c0.23-0.146,0.558-0.229,0.906-0.229c0.346,0,0.677,0.081,0.902,0.229
			l94.329,60.719c0.531,0.342,1.057,1.184,1.135,1.806l2.539,20.749c0.226,0.971-0.052,0.968-0.028,1.171
			c0.415-0.246,0.67-0.701,0.607-1.239L225.508,166.861z"/>
		
			<linearGradient id="SVGID_4_" gradientUnits="userSpaceOnUse" x1="122.5205" y1="163.3984" x2="122.5205" y2="77.9521" gradientTransform="matrix(1 0 0 1 6.0488 3.5381)">
			<stop  offset="0" style="stop-color:#F7F7F7"/>
			<stop  offset="1" style="stop-color:#C7DBE9"/>
		</linearGradient>
		<path fill="url(#SVGID_4_)" d="M33.016,105.893l94.334,60.722c0.67,0.428,1.766,0.428,2.434,0l2.204-1.421l17.967-11.562
			l74.164-47.734c0.67-0.433,1.293-1.431,1.389-2.221l2.545-20.718c0.06-0.813-0.493-1.47-1.269-1.47H30.354
			c-0.775,0-1.33,0.656-1.268,1.472l2.536,20.714C31.72,104.464,32.346,105.463,33.016,105.893z"/>
		<path fill="#8EAABB" d="M225.508,103.677c-0.096,0.79-0.719,1.788-1.389,2.221l-74.164,47.734l-17.967,11.562l-2.204,1.421
			c-0.668,0.428-1.763,0.428-2.434,0l-94.334-60.722c-0.67-0.43-1.296-1.429-1.395-2.217l-2.536-20.714
			c0,0.019,2.281,22.153,2.281,22.153c0.099,0.841,0.979,1.903,1.65,2.364l94.334,64.654c0.67,0.458,1.766,0.458,2.434,0
			l5.065-3.473l17.319-11.868l71.95-49.312c0.67-0.461,1.55-1.522,1.648-2.365c0,0,2.281-22.137,2.285-22.157L225.508,103.677z"/>
	</g>
	<g>
		<linearGradient id="SVGID_5_" gradientUnits="userSpaceOnUse" x1="108.2427" y1="120.2534" x2="108.2427" y2="62.6655">
			<stop  offset="0.0392" style="stop-color:#0A476D"/>
			<stop  offset="0.8088" style="stop-color:#1E6EA6"/>
			<stop  offset="0.9657" style="stop-color:#95BBD5"/>
			<stop  offset="1" style="stop-color:#034168"/>
		</linearGradient>
		<path fill="url(#SVGID_5_)" d="M134.009,95.844C128.85,73.7,117.848,62.666,97.591,62.666c-11.744,0-19.107,7.42-22.888,18.824
			c0,0,8.535-24.037,25.517-15.751c7.222,3.524,13.442,13.673,17.996,32.943l-9.033-0.252l22.187,21.824l10.413-27.529
			L134.009,95.844z"/>
		<linearGradient id="SVGID_6_" gradientUnits="userSpaceOnUse" x1="87.4614" y1="81.4897" x2="87.4614" y2="64.0005">
			<stop  offset="0" style="stop-color:#1E6EA6"/>
			<stop  offset="0.2416" style="stop-color:#1C6BA2"/>
			<stop  offset="0.5088" style="stop-color:#166195"/>
			<stop  offset="0.7873" style="stop-color:#0D517F"/>
			<stop  offset="1" style="stop-color:#034168"/>
		</linearGradient>
		<path fill="url(#SVGID_6_)" d="M74.703,81.49h15.129c0-9.231,5.137-15.751,10.388-15.751C83.238,57.453,74.703,81.49,74.703,81.49
			z"/>
	</g>
</g>
</svg>
