<?xml version="1.0" encoding="iso-8859-1"?>
<!-- Generator: Adobe Illustrator 16.0.0, SVG Export Plug-In . SVG Version: 6.00 Build 0)  -->
<!DOCTYPE svg PUBLIC "-//W3C//DTD SVG 1.1//EN" "http://www.w3.org/Graphics/SVG/1.1/DTD/svg11.dtd">
<svg version="1.1" id="Layer_1" xmlns="http://www.w3.org/2000/svg" xmlns:xlink="http://www.w3.org/1999/xlink" x="0px" y="0px"
	 width="400px" height="100px" viewBox="0 0 400 100" enable-background="new 0 0 400 100" xml:space="preserve">
<g>
	<path d="M25.238,48.385c0-2.391-0.077-4.318-0.154-6.092h3.046l0.154,3.201h0.077c1.388-2.275,3.586-3.625,6.632-3.625
		c4.511,0,7.904,3.817,7.904,9.486c0,6.709-4.087,10.025-8.483,10.025c-2.468,0-4.627-1.079-5.745-2.931h-0.077V68.59h-3.354V48.385
		z M28.592,53.359c0,0.502,0.077,0.964,0.154,1.389c0.617,2.352,2.661,3.971,5.09,3.971c3.586,0,5.668-2.93,5.668-7.21
		c0-3.74-1.966-6.941-5.552-6.941c-2.313,0-4.473,1.658-5.128,4.203c-0.116,0.424-0.231,0.925-0.231,1.388V53.359z"/>
	<path d="M47.174,48.115c0-2.198-0.039-4.087-0.154-5.822h2.969l0.116,3.663h0.154c0.849-2.506,2.892-4.087,5.167-4.087
		c0.386,0,0.655,0.039,0.964,0.116v3.201c-0.347-0.077-0.694-0.116-1.157-0.116c-2.391,0-4.087,1.812-4.55,4.357
		c-0.077,0.463-0.154,1.003-0.154,1.582v9.947h-3.354V48.115z"/>
	<path d="M76.285,51.471c0,6.901-4.781,9.909-9.292,9.909c-5.051,0-8.946-3.702-8.946-9.602c0-6.247,4.087-9.91,9.254-9.91
		C72.66,41.869,76.285,45.763,76.285,51.471z M61.478,51.663c0,4.087,2.352,7.172,5.668,7.172c3.239,0,5.668-3.046,5.668-7.249
		c0-3.162-1.581-7.172-5.591-7.172C63.213,44.414,61.478,48.115,61.478,51.663z"/>
	<path d="M76.011,66.354c1.542-0.115,2.892-0.539,3.702-1.426c0.926-1.08,1.272-2.545,1.272-7.019V42.293h3.394v16.928
		c0,3.624-0.579,5.977-2.237,7.674c-1.503,1.502-3.971,2.119-5.784,2.119L76.011,66.354z M84.764,37.049
		c0.039,1.118-0.771,2.083-2.121,2.083c-1.272,0-2.082-0.964-2.082-2.083c0-1.195,0.887-2.121,2.159-2.121
		C83.955,34.928,84.764,35.854,84.764,37.049z"/>
	<path d="M91.819,52.241c0.077,4.589,3.008,6.478,6.401,6.478c2.429,0,3.895-0.424,5.167-0.963l0.578,2.429
		c-1.195,0.54-3.239,1.157-6.208,1.157c-5.745,0-9.177-3.779-9.177-9.409c0-5.629,3.316-10.064,8.753-10.064
		c6.092,0,7.711,5.36,7.711,8.792c0,0.694-0.077,1.234-0.115,1.581H91.819z M101.767,49.812c0.039-2.159-0.887-5.514-4.704-5.514
		c-3.432,0-4.936,3.162-5.206,5.514H101.767z"/>
	<path d="M113.332,36.933v5.36h4.858v2.583h-4.858V54.94c0,2.313,0.656,3.624,2.545,3.624c0.887,0,1.542-0.115,1.967-0.23
		l0.154,2.545c-0.656,0.27-1.697,0.463-3.008,0.463c-1.581,0-2.854-0.502-3.663-1.428c-0.964-1.002-1.311-2.66-1.311-4.857v-10.18
		h-2.892v-2.583h2.892V37.82L113.332,36.933z"/>
	<path d="M138.664,51.471c0,6.901-4.781,9.909-9.292,9.909c-5.051,0-8.946-3.702-8.946-9.602c0-6.247,4.087-9.91,9.254-9.91
		C135.039,41.869,138.664,45.763,138.664,51.471z M123.857,51.663c0,4.087,2.352,7.172,5.668,7.172c3.239,0,5.668-3.046,5.668-7.249
		c0-3.162-1.581-7.172-5.591-7.172C125.592,44.414,123.857,48.115,123.857,51.663z"/>
	<path d="M142.478,57.485c1.002,0.655,2.776,1.35,4.473,1.35c2.468,0,3.625-1.233,3.625-2.776c0-1.619-0.964-2.506-3.471-3.432
		c-3.354-1.195-4.936-3.046-4.936-5.283c0-3.008,2.429-5.476,6.439-5.476c1.89,0,3.547,0.54,4.588,1.157l-0.848,2.468
		c-0.732-0.463-2.082-1.08-3.817-1.08c-2.005,0-3.123,1.157-3.123,2.545c0,1.542,1.118,2.237,3.547,3.162
		c3.239,1.234,4.897,2.853,4.897,5.629c0,3.277-2.545,5.592-6.979,5.592c-2.044,0-3.933-0.502-5.244-1.273L142.478,57.485z"/>
	<path d="M175.598,63.424c-2.121,1.117-4.28,1.541-6.864,1.541c-6.324,0-11.683-4.627-11.683-12.029
		c0-7.943,5.514-14.807,14.074-14.807c6.709,0,11.221,4.705,11.221,11.144c0,5.785-3.239,9.177-6.863,9.177
		c-1.542,0-2.969-1.041-2.854-3.393h-0.154c-1.35,2.274-3.123,3.393-5.437,3.393c-2.237,0-4.165-1.813-4.165-4.858
		c0-4.781,3.779-9.139,9.139-9.139c1.658,0,3.123,0.347,4.125,0.81l-1.311,6.979c-0.578,2.931-0.116,4.28,1.157,4.319
		c1.967,0.038,4.165-2.584,4.165-7.057c0-5.591-3.354-9.601-9.331-9.601c-6.285,0-11.568,4.974-11.568,12.802
		c0,6.438,4.203,10.411,9.91,10.411c2.198,0,4.241-0.463,5.822-1.35L175.598,63.424z M173.477,46.766
		c-0.385-0.116-1.041-0.27-1.928-0.27c-3.393,0-6.131,3.2-6.131,6.94c0,1.696,0.848,2.931,2.545,2.931
		c2.236,0,4.28-2.854,4.704-5.244L173.477,46.766z"/>
	<path d="M187.971,42.293l2.468,9.485c0.54,2.083,1.041,4.011,1.388,5.938h0.115c0.425-1.89,1.042-3.895,1.658-5.9l3.046-9.523
		h2.854l2.892,9.332c0.694,2.236,1.234,4.202,1.658,6.092h0.116c0.309-1.89,0.81-3.855,1.427-6.054l2.66-9.37h3.354l-6.015,18.662
		h-3.085l-2.854-8.906c-0.655-2.083-1.195-3.934-1.658-6.131h-0.077c-0.463,2.236-1.041,4.165-1.696,6.169l-3.008,8.868h-3.084
		l-5.63-18.662H187.971z"/>
	<path d="M218.775,37.049c0.038,1.157-0.81,2.083-2.159,2.083c-1.195,0-2.044-0.926-2.044-2.083c0-1.195,0.887-2.121,2.121-2.121
		C217.966,34.928,218.775,35.854,218.775,37.049z M214.996,60.955V42.293h3.394v18.662H214.996z"/>
	<path d="M227.372,50.853h0.077c0.463-0.655,1.119-1.465,1.658-2.121l5.476-6.439h4.087l-7.21,7.673l8.213,10.989h-4.126
		l-6.439-8.945l-1.735,1.928v7.018h-3.354V33.579h3.354V50.853z"/>
	<path d="M246.533,37.049c0.038,1.157-0.81,2.083-2.159,2.083c-1.195,0-2.044-0.926-2.044-2.083c0-1.195,0.887-2.121,2.121-2.121
		C245.724,34.928,246.533,35.854,246.533,37.049z M242.754,60.955V42.293h3.394v18.662H242.754z"/>
	<path d="M251.775,47.344c0-1.928-0.038-3.509-0.154-5.051h3.008l0.193,3.085h0.077c0.925-1.774,3.084-3.509,6.169-3.509
		c2.584,0,6.594,1.542,6.594,7.943v11.143h-3.394V50.198c0-3.008-1.118-5.514-4.318-5.514c-2.236,0-3.972,1.581-4.55,3.47
		c-0.154,0.424-0.231,1.003-0.231,1.581v11.22h-3.394V47.344z"/>
	<path d="M283.507,60.955l-0.27-2.352h-0.116c-1.041,1.465-3.046,2.776-5.706,2.776c-3.779,0-5.707-2.661-5.707-5.36
		c0-4.511,4.01-6.979,11.221-6.94v-0.386c0-1.542-0.424-4.319-4.241-4.319c-1.735,0-3.548,0.54-4.858,1.388l-0.771-2.236
		c1.542-1.002,3.778-1.658,6.131-1.658c5.707,0,7.095,3.895,7.095,7.635v6.979c0,1.619,0.077,3.201,0.309,4.473H283.507z
		 M283.006,51.432c-3.702-0.077-7.904,0.578-7.904,4.203c0,2.197,1.465,3.238,3.2,3.238c2.429,0,3.972-1.542,4.511-3.123
		c0.116-0.348,0.193-0.732,0.193-1.08V51.432z"/>
	<path d="M291.755,33.579h3.394v27.376h-3.394V33.579z"/>
	<path d="M298.733,58.989L307.178,48c0.81-1.002,1.581-1.889,2.429-2.892v-0.077h-10.103v-2.738h14.229l-0.038,2.121l-8.329,10.835
		c-0.771,1.041-1.542,1.966-2.391,2.931v0.076h10.912v2.699h-15.153V58.989z"/>
	<path d="M316.545,58.951c0-1.428,0.964-2.43,2.313-2.43s2.275,1.002,2.275,2.43c0,1.387-0.887,2.429-2.313,2.429
		C317.471,61.38,316.545,60.338,316.545,58.951z"/>
	<path d="M342.224,51.471c0,6.901-4.782,9.909-9.293,9.909c-5.052,0-8.946-3.702-8.946-9.602c0-6.247,4.088-9.91,9.255-9.91
		C338.599,41.869,342.224,45.763,342.224,51.471z M327.417,51.663c0,4.087,2.352,7.172,5.668,7.172c3.238,0,5.668-3.046,5.668-7.249
		c0-3.162-1.581-7.172-5.591-7.172C329.151,44.414,327.417,48.115,327.417,51.663z"/>
	<path d="M346.5,48.115c0-2.198-0.038-4.087-0.154-5.822h2.97l0.115,3.663h0.154c0.849-2.506,2.892-4.087,5.167-4.087
		c0.386,0,0.655,0.039,0.964,0.116v3.201c-0.347-0.077-0.694-0.116-1.156-0.116c-2.391,0-4.088,1.812-4.551,4.357
		c-0.077,0.463-0.154,1.003-0.154,1.582v9.947H346.5V48.115z"/>
	<path d="M374.878,42.293c-0.077,1.35-0.154,2.854-0.154,5.128v10.834c0,4.281-0.848,6.902-2.66,8.521
		c-1.813,1.697-4.435,2.236-6.786,2.236c-2.236,0-4.704-0.539-6.208-1.541l0.848-2.584c1.234,0.771,3.162,1.465,5.476,1.465
		c3.471,0,6.016-1.813,6.016-6.516v-2.082h-0.077c-1.041,1.734-3.046,3.123-5.938,3.123c-4.627,0-7.943-3.934-7.943-9.101
		c0-6.323,4.126-9.91,8.406-9.91c3.239,0,5.013,1.697,5.822,3.239h0.077l0.154-2.815H374.878z M371.369,49.658
		c0-0.578-0.038-1.08-0.192-1.542c-0.617-1.966-2.275-3.586-4.743-3.586c-3.238,0-5.552,2.738-5.552,7.057
		c0,3.663,1.851,6.709,5.514,6.709c2.082,0,3.972-1.311,4.704-3.471c0.192-0.578,0.27-1.233,0.27-1.813V49.658z"/>
</g>
</svg>
